  0
SECTION
  2
HEADER
  9
$ACADVER
  1
AC1009
  9
$INSBASE
 10
0.0
 20
0.0
 30
0.0
  9
$EXTMIN
 10
1147.462686
 20
-827.486636
 30
-0.001526
  9
$EXTMAX
 10
3143.803748
 20
1943.653352
 30
0.0
  9
$LIMMIN
 10
0.0
 20
0.0
  9
$LIMMAX
 10
12.0
 20
9.0
  9
$ORTHOMODE
 70
     1
  9
$REGENMODE
 70
     1
  9
$FILLMODE
 70
     1
  9
$QTEXTMODE
 70
     0
  9
$MIRRTEXT
 70
     1
  9
$DRAGMODE
 70
     2
  9
$LTSCALE
 40
5.0
  9
$OSMODE
 70
   167
  9
$ATTMODE
 70
     1
  9
$TEXTSIZE
 40
0.2
  9
$TRACEWID
 40
0.05
  9
$TEXTSTYLE
  7
STANDARD
  9
$CLAYER
  8
0
  9
$CELTYPE
  6
BYLAYER
  9
$CECOLOR
 62
   256
  9
$DIMSCALE
 40
1.0
  9
$DIMASZ
 40
0.18
  9
$DIMEXO
 40
0.0625
  9
$DIMDLI
 40
0.38
  9
$DIMRND
 40
0.0
  9
$DIMDLE
 40
0.0
  9
$DIMEXE
 40
0.18
  9
$DIMTP
 40
0.0
  9
$DIMTM
 40
0.0
  9
$DIMTXT
 40
0.18
  9
$DIMCEN
 40
0.09
  9
$DIMTSZ
 40
0.0
  9
$DIMTOL
 70
     0
  9
$DIMLIM
 70
     0
  9
$DIMTIH
 70
     1
  9
$DIMTOH
 70
     1
  9
$DIMSE1
 70
     0
  9
$DIMSE2
 70
     0
  9
$DIMTAD
 70
     0
  9
$DIMZIN
 70
     0
  9
$DIMBLK
  1

  9
$DIMASO
 70
     1
  9
$DIMSHO
 70
     1
  9
$DIMPOST
  1

  9
$DIMAPOST
  1

  9
$DIMALT
 70
     0
  9
$DIMALTD
 70
     2
  9
$DIMALTF
 40
25.4
  9
$DIMLFAC
 40
1.0
  9
$DIMTOFL
 70
     0
  9
$DIMTVP
 40
0.0
  9
$DIMTIX
 70
     0
  9
$DIMSOXD
 70
     0
  9
$DIMSAH
 70
     0
  9
$DIMBLK1
  1

  9
$DIMBLK2
  1

  9
$DIMSTYLE
  2
STANDARD
  9
$DIMCLRD
 70
     0
  9
$DIMCLRE
 70
     0
  9
$DIMCLRT
 70
     0
  9
$DIMTFAC
 40
1.0
  9
$DIMGAP
 40
0.09
  9
$LUNITS
 70
     2
  9
$LUPREC
 70
     4
  9
$SKETCHINC
 40
0.1
  9
$FILLETRAD
 40
17.960167
  9
$AUNITS
 70
     0
  9
$AUPREC
 70
     0
  9
$MENU
  1
.
  9
$ELEVATION
 40
0.0
  9
$PELEVATION
 40
0.0
  9
$THICKNESS
 40
0.0
  9
$LIMCHECK
 70
     0
  9
$BLIPMODE
 70
     0
  9
$CHAMFERA
 40
0.0
  9
$CHAMFERB
 40
0.0
  9
$SKPOLY
 70
     1
  9
$TDCREATE
 40
2451199.890431
  9
$TDUPDATE
 40
2451221.543228
  9
$TDINDWG
 40
0.225659
  9
$TDUSRTIMER
 40
0.225659
  9
$USRTIMER
 70
     1
  9
$ANGBASE
 50
0.0
  9
$ANGDIR
 70
     0
  9
$PDMODE
 70
     0
  9
$PDSIZE
 40
0.0
  9
$PLINEWID
 40
0.0
  9
$COORDS
 70
     1
  9
$SPLFRAME
 70
     0
  9
$SPLINETYPE
 70
     6
  9
$SPLINESEGS
 70
     8
  9
$ATTDIA
 70
     0
  9
$ATTREQ
 70
     1
  9
$HANDLING
 70
     1
  9
$HANDSEED
  5
1879
  9
$SURFTAB1
 70
     6
  9
$SURFTAB2
 70
     6
  9
$SURFTYPE
 70
     6
  9
$SURFU
 70
     6
  9
$SURFV
 70
     6
  9
$UCSNAME
  2

  9
$UCSORG
 10
0.0
 20
0.0
 30
0.0
  9
$UCSXDIR
 10
1.0
 20
0.0
 30
0.0
  9
$UCSYDIR
 10
0.0
 20
1.0
 30
0.0
  9
$PUCSNAME
  2

  9
$PUCSORG
 10
0.0
 20
0.0
 30
0.0
  9
$PUCSXDIR
 10
1.0
 20
0.0
 30
0.0
  9
$PUCSYDIR
 10
0.0
 20
1.0
 30
0.0
  9
$USERI1
 70
     0
  9
$USERI2
 70
     0
  9
$USERI3
 70
     0
  9
$USERI4
 70
     0
  9
$USERI5
 70
     0
  9
$USERR1
 40
0.0
  9
$USERR2
 40
0.0
  9
$USERR3
 40
0.0
  9
$USERR4
 40
0.0
  9
$USERR5
 40
0.0
  9
$WORLDVIEW
 70
     1
  9
$SHADEDGE
 70
     3
  9
$SHADEDIF
 70
    70
  9
$TILEMODE
 70
     1
  9
$MAXACTVP
 70
    48
  9
$PLIMCHECK
 70
     0
  9
$PEXTMIN
 10
1.000000E+020
 20
1.000000E+020
 30
1.000000E+020
  9
$PEXTMAX
 10
-1.000000E+020
 20
-1.000000E+020
 30
-1.000000E+020
  9
$PLIMMIN
 10
0.0
 20
0.0
  9
$PLIMMAX
 10
12.0
 20
9.0
  9
$UNITMODE
 70
     0
  9
$VISRETAIN
 70
     1
  9
$PLINEGEN
 70
     0
  9
$PSLTSCALE
 70
     1
  0
ENDSEC
  0
SECTION
  2
TABLES
  0
TABLE
  2
VPORT
 70
     7
  0
VPORT
  2
*ACTIVE
 70
     0
 10
0.0
 20
0.0
 11
1.0
 21
1.0
 12
2145.633217
 22
558.083358
 13
0.0
 23
0.0
 14
0.5
 24
0.5
 15
0.5
 25
0.5
 16
0.0
 26
0.0
 36
1.0
 17
0.0
 27
0.0
 37
0.0
 40
2812.707087
 41
1.756892
 42
50.0
 43
0.0
 44
0.0
 50
0.0
 51
0.0
 71
     0
 72
   100
 73
     1
 74
     0
 75
     0
 76
     0
 77
     0
 78
     0
  0
ENDTAB
  0
TABLE
  2
LTYPE
 70
     2
  0
LTYPE
  2
CONTINUOUS
 70
     0
  3
Solid line
 72
    65
 73
     0
 40
0.0
  0
LTYPE
  2
DASHED2
 70
     0
  3
Dashed (.5x) _ _ _ _ _ _ _ _ _ _ _ _ _ _ _ _ _
 72
    65
 73
     2
 40
9.525
 49
6.35
 49
-3.175
  0
ENDTAB
  0
TABLE
  2
LAYER
 70
     3
  0
LAYER
  2
0
 70
     0
 62
     7
  6
CONTINUOUS
  0
LAYER
  2
CONTORNO_PAGINA
 70
     0
 62
     7
  6
CONTINUOUS
  0
LAYER
  2
LAYER1
 70
     0
 62
     7
  6
CONTINUOUS
  0
ENDTAB
  0
TABLE
  2
STYLE
 70
     3
  0
STYLE
  2
STANDARD
 70
     0
 40
0.0
 41
1.0
 50
0.0
 71
     0
 42
0.2
  3
txt
  4

  0
STYLE
  2
SIMPLEX_INCLINATO
 70
     0
 40
2.0
 41
1.0
 50
15.0
 71
     0
 42
89.952478
  3
simplex.shx
  4

  0
ENDTAB
  0
TABLE
  2
VIEW
 70
     0
  0
ENDTAB
  0
TABLE
  2
UCS
 70
     0
  0
ENDTAB
  0
TABLE
  2
APPID
 70
     1
  0
APPID
  2
ACAD
 70
     0
  0
ENDTAB
  0
TABLE
  2
DIMSTYLE
 70
     1
  0
DIMSTYLE
  2
STANDARD
 70
     0
  3

  4

  5

  6

  7

 40
1.0
 41
0.18
 42
0.0625
 43
0.38
 44
0.18
 45
0.0
 46
0.0
 47
0.0
 48
0.0
140
0.18
141
0.09
142
0.0
143
25.4
144
1.0
145
0.0
146
1.0
147
0.09
 71
     0
 72
     0
 73
     1
 74
     1
 75
     0
 76
     0
 77
     0
 78
     0
170
     0
171
     2
172
     0
173
     0
174
     0
175
     0
176
     0
177
     0
178
     0
  0
ENDTAB
  0
ENDSEC
  0
SECTION
  2
BLOCKS
  0
BLOCK
  8
0
  2
$MODEL_SPACE
 70
     0
 10
0.0
 20
0.0
 30
0.0
  3
$MODEL_SPACE
  1

  0
ENDBLK
  5
1B
  8
0
  0
BLOCK
 67
     1
  8
0
  2
$PAPER_SPACE
 70
     0
 10
0.0
 20
0.0
 30
0.0
  3
$PAPER_SPACE
  1

  0
ENDBLK
  5
18
 67
     1
  8
0
  0
BLOCK
  8
0
  2
A$C2406729D
 70
     0
 10
0.0
 20
0.0
 30
0.0
  3
A$C2406729D
  1

  0
LINE
  5
1499
  8
0
 62
     1
 10
666.606205
 20
421.489374
 30
0.0
 11
253.393795
 21
421.489374
 31
0.0
  0
ARC
  5
149A
  8
0
 10
271.353961
 20
373.301915
 30
0.0
 40
17.960167
 50
180.0
 51
270.0
  0
ARC
  5
149B
  8
0
 10
271.353961
 20
724.645559
 30
0.0
 40
17.960167
 50
90.0
 51
180.0
  0
LINE
  5
149C
  8
0
 62
     8
 10
329.306298
 20
336.561755
 30
0.0
 11
122.860133
 21
336.561755
 31
0.0
  0
LINE
  5
149D
  8
0
 62
     8
 10
268.866848
 20
355.514789
 30
0.0
 11
122.860133
 21
355.514789
 31
0.0
  0
LINE
  5
149E
  8
0
 62
     8
 10
329.306298
 20
317.608722
 30
0.0
 11
122.860133
 21
317.608722
 31
0.0
  0
LINE
  5
149F
  8
0
 62
     8
 10
329.306298
 20
298.655688
 30
0.0
 11
122.860133
 21
298.655688
 31
0.0
  0
LINE
  5
14A0
  8
0
 62
     8
 10
329.306298
 20
222.843553
 30
0.0
 11
122.860133
 21
222.843553
 31
0.0
  0
LINE
  5
14A1
  8
0
 62
     8
 10
329.306298
 20
279.702654
 30
0.0
 11
122.860133
 21
279.702654
 31
0.0
  0
LINE
  5
14A2
  8
0
 62
     8
 10
329.306298
 20
260.74962
 30
0.0
 11
122.860133
 21
260.74962
 31
0.0
  0
LINE
  5
14A3
  8
0
 62
     8
 10
329.306298
 20
241.796587
 30
0.0
 11
122.860133
 21
241.796587
 31
0.0
  0
LINE
  5
14A4
  8
0
 62
     8
 10
329.306298
 20
203.890519
 30
0.0
 11
122.860133
 21
203.890519
 31
0.0
  0
LINE
  5
14A5
  8
0
 62
     8
 10
329.306298
 20
184.937485
 30
0.0
 11
122.860133
 21
184.937485
 31
0.0
  0
LINE
  5
14A6
  8
0
 62
     8
 10
329.306298
 20
165.984452
 30
0.0
 11
106.882964
 21
165.984452
 31
0.0
  0
LINE
  5
14A7
  8
0
 10
329.306298
 20
145.036362
 30
0.0
 11
119.661543
 21
145.036362
 31
0.0
  0
LINE
  5
14A8
  8
0
 10
0.0
 20
175.015358
 30
0.0
 11
0.0
 21
362.479988
 31
0.0
  0
LINE
  5
14A9
  8
0
 10
106.882964
 20
137.05614
 30
0.0
 11
106.882964
 21
400.439206
 31
0.0
  0
LINE
  5
14AA
  8
0
 10
119.661543
 20
145.036362
 30
0.0
 11
106.882964
 21
165.984452
 31
0.0
  0
ARC
  5
14AB
  8
0
 10
195.258418
 20
555.354157
 30
0.0
 40
427.531813
 50
242.824932
 51
258.070332
  0
LINE
  5
14AC
  8
0
 10
253.393795
 20
373.301915
 30
0.0
 11
253.393795
 21
724.645559
 31
0.0
  0
LINE
  5
14AD
  8
0
 62
     8
 10
253.48332
 20
371.510895
 30
0.0
 11
106.882964
 21
371.510895
 31
0.0
  0
LINE
  5
14AE
  8
0
 10
119.661543
 20
392.458984
 30
0.0
 11
106.882964
 21
371.510895
 31
0.0
  0
ARC
  5
14AF
  8
0
 10
195.258418
 20
-17.85881
 30
0.0
 40
427.531813
 50
101.929668
 51
117.175068
  0
LINE
  5
14B0
  8
0
 10
253.393795
 20
392.458984
 30
0.0
 11
119.661543
 21
392.458984
 31
0.0
  0
CIRCLE
  5
14B1
  8
0
 10
773.325341
 20
323.267498
 30
0.0
 40
11.998104
  0
LINE
  5
14B2
  8
0
 10
755.483189
 20
205.843842
 30
0.0
 11
755.483189
 21
332.459174
 31
0.0
  0
LINE
  5
14B3
  8
0
 10
860.0
 20
205.843842
 30
0.0
 11
860.0
 21
323.758554
 31
0.0
  0
CIRCLE
  5
14B4
  8
0
 10
773.325341
 20
323.267498
 30
0.0
 40
17.401245
  0
LINE
  5
14B5
  8
0
 10
351.274902
 20
138.053668
 30
0.0
 11
351.274902
 21
355.341748
 31
0.0
  0
LINE
  5
14B6
  8
0
 10
329.306298
 20
138.053668
 30
0.0
 11
329.306298
 21
355.341748
 31
0.0
  0
LINE
  5
14B7
  8
0
 10
735.186589
 20
146.130725
 30
0.0
 11
648.646039
 21
355.341748
 31
0.0
  0
LINE
  5
14B8
  8
0
 10
842.58053
 20
205.843842
 30
0.0
 11
842.58053
 21
353.719673
 31
0.0
  0
LINE
  5
14B9
  8
0
 10
568.725098
 20
-0.000002
 30
0.0
 11
568.725098
 21
355.341748
 31
0.0
  0
ARC
  5
14BA
  8
0
 10
460.0
 20
173.542233
 30
0.0
 40
108.725098
 50
180.0
 51
0.0
  0
LINE
  5
14BB
  8
0
 10
351.274902
 20
138.053668
 30
0.0
 11
329.306298
 21
138.053668
 31
0.0
  0
LINE
  5
14BC
  8
0
 10
735.186589
 20
-0.000002
 30
0.0
 11
735.186589
 21
146.130725
 31
0.0
  0
LINE
  5
14BD
  8
0
 10
568.725098
 20
-0.000002
 30
0.0
 11
735.186589
 21
-0.000002
 31
0.0
  0
LINE
  5
14BE
  8
0
 10
860.0
 20
205.843842
 30
0.0
 11
710.486141
 21
205.843842
 31
0.0
  0
LINE
  5
14BF
  8
0
 62
     8
 10
782.925423
 20
282.347714
 30
0.0
 11
789.477776
 21
282.347714
 31
0.0
  0
LINE
  5
14C0
  8
0
 62
     8
 10
769.613848
 20
282.347714
 30
0.0
 11
769.613848
 21
205.843842
 31
0.0
  0
LINE
  5
14C1
  8
0
 62
     8
 10
776.166201
 20
282.347714
 30
0.0
 11
769.613848
 21
282.347714
 31
0.0
  0
LINE
  5
14C2
  8
0
 62
     8
 10
782.925423
 20
308.753995
 30
0.0
 11
782.925423
 21
282.347714
 31
0.0
  0
LINE
  5
14C3
  8
0
 62
     8
 10
776.166201
 20
306.099712
 30
0.0
 11
776.166201
 21
282.347714
 31
0.0
  0
LINE
  5
14C4
  8
0
 62
     8
 10
789.477776
 20
282.347714
 30
0.0
 11
789.477776
 21
205.843842
 31
0.0
  0
LINE
  5
14C5
  8
0
 62
     8
 10
860.0
 20
232.885387
 30
0.0
 11
842.58053
 21
232.885387
 31
0.0
  0
LINE
  5
14C6
  8
0
 62
     8
 10
860.0
 20
248.35316
 30
0.0
 11
842.58053
 21
248.35316
 31
0.0
  0
LINE
  5
14C7
  8
0
 62
     8
 10
860.0
 20
217.417615
 30
0.0
 11
842.58053
 21
217.417615
 31
0.0
  0
LINE
  5
14C8
  8
0
 62
     8
 10
860.0
 20
294.756476
 30
0.0
 11
842.58053
 21
294.756476
 31
0.0
  0
LINE
  5
14C9
  8
0
 62
     8
 10
860.0
 20
310.224249
 30
0.0
 11
842.58053
 21
310.224249
 31
0.0
  0
LINE
  5
14CA
  8
0
 62
     8
 10
860.0
 20
263.820932
 30
0.0
 11
842.58053
 21
263.820932
 31
0.0
  0
LINE
  5
14CB
  8
0
 62
     8
 10
860.0
 20
279.288704
 30
0.0
 11
842.58053
 21
279.288704
 31
0.0
  0
LINE
  5
14CC
  8
0
 10
648.646039
 20
742.605726
 30
0.0
 11
271.353961
 21
742.605726
 31
0.0
  0
LINE
  5
14CD
  8
0
 10
648.646039
 20
355.341748
 30
0.0
 11
271.353961
 21
355.341748
 31
0.0
  0
LINE
  5
14CE
  8
0
 10
641.946144
 20
483.929605
 30
0.0
 11
522.008603
 21
483.929605
 31
0.0
  0
LINE
  5
14CF
  8
0
 10
641.946144
 20
509.683599
 30
0.0
 11
522.008603
 21
509.683599
 31
0.0
  0
LINE
  5
14D0
  8
0
 10
641.946144
 20
436.900572
 30
0.0
 11
522.008603
 21
436.900572
 31
0.0
  0
LINE
  5
14D1
  8
0
 10
641.946144
 20
721.314261
 30
0.0
 11
522.008603
 21
721.314261
 31
0.0
  0
LINE
  5
14D2
  8
0
 62
     8
 10
575.812361
 20
524.240204
 30
0.0
 11
532.096804
 21
524.240204
 31
0.0
  0
LINE
  5
14D3
  8
0
 62
     8
 10
575.812361
 20
621.657497
 30
0.0
 11
532.096804
 21
621.657497
 31
0.0
  0
LINE
  5
14D4
  8
0
 62
     8
 10
575.812361
 20
608.220628
 30
0.0
 11
532.096804
 21
608.220628
 31
0.0
  0
LINE
  5
14D5
  8
0
 62
     8
 10
575.812361
 20
572.388979
 30
0.0
 11
532.096804
 21
572.388979
 31
0.0
  0
LINE
  5
14D6
  8
0
 62
     8
 10
575.812361
 20
560.071853
 30
0.0
 11
532.096804
 21
560.071853
 31
0.0
  0
LINE
  5
14D7
  8
0
 62
     8
 10
575.812361
 20
705.637921
 30
0.0
 11
532.096804
 21
705.637921
 31
0.0
  0
LINE
  5
14D8
  8
0
 62
     8
 10
575.812361
 20
657.489146
 30
0.0
 11
532.096804
 21
657.489146
 31
0.0
  0
LINE
  5
14D9
  8
0
 62
     8
 10
575.812361
 20
669.806272
 30
0.0
 11
532.096804
 21
669.806272
 31
0.0
  0
LINE
  5
14DA
  8
0
 62
     8
 10
532.096804
 20
524.240204
 30
0.0
 11
532.096804
 21
560.071853
 31
0.0
  0
LINE
  5
14DB
  8
0
 10
522.008603
 20
509.683599
 30
0.0
 11
522.008603
 21
721.314261
 31
0.0
  0
LINE
  5
14DC
  8
0
 10
522.008603
 20
436.900572
 30
0.0
 11
522.008603
 21
483.929605
 31
0.0
  0
LINE
  5
14DD
  8
0
 62
     8
 10
532.096804
 20
621.657497
 30
0.0
 11
532.096804
 21
657.489146
 31
0.0
  0
LINE
  5
14DE
  8
0
 62
     8
 10
532.096804
 20
572.388979
 30
0.0
 11
532.096804
 21
608.220628
 31
0.0
  0
LINE
  5
14DF
  8
0
 62
     8
 10
532.096804
 20
669.806272
 30
0.0
 11
532.096804
 21
705.637921
 31
0.0
  0
LINE
  5
14E0
  8
0
 62
     8
 10
575.812361
 20
524.240204
 30
0.0
 11
575.812361
 21
560.071853
 31
0.0
  0
LINE
  5
14E1
  8
0
 10
666.606205
 20
373.301915
 30
0.0
 11
666.606205
 21
724.645559
 31
0.0
  0
LINE
  5
14E2
  8
0
 10
641.946144
 20
509.683599
 30
0.0
 11
641.946144
 21
721.314261
 31
0.0
  0
LINE
  5
14E3
  8
0
 10
758.549806
 20
332.459174
 30
0.0
 11
658.111461
 21
332.459174
 31
0.0
  0
ARC
  5
14E4
  8
0
 10
648.646039
 20
373.301915
 30
0.0
 40
17.960167
 50
270.0
 51
0.0
  0
LINE
  5
14E5
  8
0
 10
641.946144
 20
436.900572
 30
0.0
 11
641.946144
 21
483.929605
 31
0.0
  0
LINE
  5
14E6
  8
0
 10
774.776966
 20
353.719673
 30
0.0
 11
842.58053
 21
353.719673
 31
0.0
  0
LINE
  5
14E7
  8
0
 62
     8
 10
784.45445
 20
348.617452
 30
0.0
 11
842.58053
 21
348.617452
 31
0.0
  0
LINE
  5
14E8
  8
0
 10
774.776966
 20
340.60809
 30
0.0
 11
774.776966
 21
353.719673
 31
0.0
  0
LINE
  5
14E9
  8
0
 62
     8
 10
784.45445
 20
336.644578
 30
0.0
 11
784.45445
 21
348.617452
 31
0.0
  0
LINE
  5
14EA
  8
0
 10
842.58053
 20
332.459174
 30
0.0
 11
788.100876
 21
332.459174
 31
0.0
  0
LINE
  5
14EB
  8
0
 10
860.0
 20
323.758554
 30
0.0
 11
842.58053
 21
323.758554
 31
0.0
  0
LINE
  5
14EC
  8
0
 62
     8
 10
635.220673
 20
639.573321
 30
0.0
 11
635.220673
 21
657.489146
 31
0.0
  0
LINE
  5
14ED
  8
0
 62
     8
 10
613.362894
 20
639.573321
 30
0.0
 11
613.362894
 21
657.489146
 31
0.0
  0
LINE
  5
14EE
  8
0
 62
     8
 10
575.812361
 20
621.657497
 30
0.0
 11
575.812361
 21
657.489146
 31
0.0
  0
LINE
  5
14EF
  8
0
 62
     8
 10
613.362894
 20
590.304804
 30
0.0
 11
613.362894
 21
608.220628
 31
0.0
  0
LINE
  5
14F0
  8
0
 62
     8
 10
635.220673
 20
590.304804
 30
0.0
 11
635.220673
 21
608.220628
 31
0.0
  0
LINE
  5
14F1
  8
0
 62
     8
 10
575.812361
 20
572.388979
 30
0.0
 11
575.812361
 21
608.220628
 31
0.0
  0
LINE
  5
14F2
  8
0
 62
     8
 10
635.220673
 20
590.304804
 30
0.0
 11
613.362894
 21
590.304804
 31
0.0
  0
LINE
  5
14F3
  8
0
 62
     8
 10
635.220673
 20
542.156028
 30
0.0
 11
613.362894
 21
542.156028
 31
0.0
  0
LINE
  5
14F4
  8
0
 62
     8
 10
635.220673
 20
560.071853
 30
0.0
 11
613.362894
 21
560.071853
 31
0.0
  0
LINE
  5
14F5
  8
0
 62
     8
 10
613.362894
 20
542.156028
 30
0.0
 11
613.362894
 21
560.071853
 31
0.0
  0
LINE
  5
14F6
  8
0
 62
     8
 10
635.220673
 20
542.156028
 30
0.0
 11
635.220673
 21
560.071853
 31
0.0
  0
LINE
  5
14F7
  8
0
 62
     8
 10
635.220673
 20
639.573321
 30
0.0
 11
613.362894
 21
639.573321
 31
0.0
  0
LINE
  5
14F8
  8
0
 62
     8
 10
635.220673
 20
608.220628
 30
0.0
 11
613.362894
 21
608.220628
 31
0.0
  0
LINE
  5
14F9
  8
0
 62
     8
 10
575.812361
 20
669.806272
 30
0.0
 11
575.812361
 21
705.637921
 31
0.0
  0
LINE
  5
14FA
  8
0
 62
     8
 10
635.220673
 20
687.722097
 30
0.0
 11
635.220673
 21
705.637921
 31
0.0
  0
LINE
  5
14FB
  8
0
 62
     8
 10
613.362894
 20
687.722097
 30
0.0
 11
613.362894
 21
705.637921
 31
0.0
  0
LINE
  5
14FC
  8
0
 62
     8
 10
635.220673
 20
687.722097
 30
0.0
 11
613.362894
 21
687.722097
 31
0.0
  0
LINE
  5
14FD
  8
0
 62
     8
 10
635.220673
 20
705.637921
 30
0.0
 11
613.362894
 21
705.637921
 31
0.0
  0
LINE
  5
14FE
  8
0
 62
     8
 10
635.220673
 20
657.489146
 30
0.0
 11
613.362894
 21
657.489146
 31
0.0
  0
ARC
  5
14FF
  8
0
 10
648.646039
 20
724.645559
 30
0.0
 40
17.960167
 50
0.0
 51
90.0
  0
ENDBLK
  5
1501
  8
0
  0
BLOCK
  8
0
  2
A$C19764107
 70
     0
 10
0.0
 20
0.0
 30
0.0
  3
A$C19764107
  1

  0
LINE
  5
1661
  8
0
  6
DASHED2
 10
334.026865
 20
859.999999
 30
0.0
 11
521.491495
 21
859.999999
 31
0.0
  0
LINE
  5
1662
  8
0
  6
DASHED2
 10
373.152134
 20
-0.000001
 30
0.0
 11
491.066846
 21
-0.000001
 31
0.0
  0
LINE
  5
1663
  8
0
  6
DASHED2
 10
-0.000001
 20
193.393794
 30
0.0
 11
-0.000001
 21
606.606205
 31
0.0
  0
LINE
  5
1664
  8
0
  6
DASHED2
 10
330.290215
 20
69.273412
 30
0.0
 11
330.290215
 21
104.075903
 31
0.0
  0
LINE
  5
1665
  8
0
  6
DASHED2
 10
368.801824
 20
17.41947
 30
0.0
 11
368.801824
 21
69.273412
 31
0.0
  0
LINE
  5
1666
  8
0
  6
DASHED2
 10
373.152134
 20
-0.000001
 30
0.0
 11
373.152134
 21
17.41947
 31
0.0
  0
LINE
  5
1667
  8
0
  6
DASHED2
 10
368.801824
 20
17.41947
 30
0.0
 11
373.152134
 21
17.41947
 31
0.0
  0
LINE
  5
1668
  8
0
  6
DASHED2
 10
368.801824
 20
69.273412
 30
0.0
 11
330.290215
 21
69.273412
 31
0.0
  0
LINE
  5
1669
  8
0
  6
DASHED2
 10
-0.000001
 20
193.393794
 30
0.0
 11
275.906876
 21
193.393794
 31
0.0
  0
LINE
  5
166A
  8
0
  6
DASHED2
 10
275.906876
 20
193.393794
 30
0.0
 11
275.906876
 21
124.81341
 31
0.0
  0
LINE
  5
166B
  8
0
  6
DASHED2
 10
275.906876
 20
124.81341
 30
0.0
 11
368.801824
 21
124.81341
 31
0.0
  0
LINE
  5
166C
  8
0
  6
DASHED2
 10
368.801824
 20
104.075903
 30
0.0
 11
368.801824
 21
124.81341
 31
0.0
  0
LINE
  5
166D
  8
0
  6
DASHED2
 10
368.801824
 20
104.075903
 30
0.0
 11
330.290215
 21
104.075903
 31
0.0
  0
ARC
  5
166E
  8
0
  6
DASHED2
 10
714.365664
 20
664.741581
 30
0.0
 40
427.531813
 50
152.824932
 51
168.070332
  0
LINE
  5
166F
  8
0
  6
DASHED2
 10
-0.000001
 20
606.606205
 30
0.0
 11
296.067647
 21
606.606205
 31
0.0
  0
LINE
  5
1670
  8
0
  6
DASHED2
 10
296.067647
 20
606.606205
 30
0.0
 11
296.067647
 21
753.117035
 31
0.0
  0
LINE
  5
1671
  8
0
 62
     8
 10
952.526296
 20
538.780461
 30
0.0
 11
952.526296
 21
737.139866
 31
0.0
  0
LINE
  5
1672
  8
0
 62
     8
 10
933.573262
 20
538.780461
 30
0.0
 11
933.573262
 21
737.139866
 31
0.0
  0
LINE
  5
1673
  8
0
 62
     8
 10
914.620229
 20
538.780461
 30
0.0
 11
914.620229
 21
737.139866
 31
0.0
  0
LINE
  5
1674
  8
0
 62
     8
 10
895.667195
 20
538.780461
 30
0.0
 11
895.667195
 21
737.139866
 31
0.0
  0
LINE
  5
1675
  8
0
 62
     8
 10
876.714161
 20
538.780461
 30
0.0
 11
876.714161
 21
737.139866
 31
0.0
  0
LINE
  5
1676
  8
0
 62
     8
 10
800.902026
 20
538.780461
 30
0.0
 11
800.902026
 21
737.139866
 31
0.0
  0
LINE
  5
1677
  8
0
 62
     8
 10
781.948992
 20
538.780461
 30
0.0
 11
781.948992
 21
737.139866
 31
0.0
  0
LINE
  5
1678
  8
0
 62
     8
 10
857.761127
 20
538.780461
 30
0.0
 11
857.761127
 21
737.139866
 31
0.0
  0
LINE
  5
1679
  8
0
 62
     8
 10
838.808094
 20
538.780461
 30
0.0
 11
838.808094
 21
737.139866
 31
0.0
  0
LINE
  5
167A
  8
0
 62
     8
 10
819.85506
 20
538.780461
 30
0.0
 11
819.85506
 21
737.139866
 31
0.0
  0
LINE
  5
167B
  8
0
 62
     8
 10
762.995959
 20
538.780461
 30
0.0
 11
762.995959
 21
753.117035
 31
0.0
  0
LINE
  5
167C
  8
0
 10
742.047869
 20
538.780461
 30
0.0
 11
742.047869
 21
740.338456
 31
0.0
  0
LINE
  5
167D
  8
0
 10
989.470491
 20
538.780461
 30
0.0
 11
989.470491
 21
740.338456
 31
0.0
  0
LINE
  5
167E
  8
0
 62
     8
 10
968.522402
 20
538.780461
 30
0.0
 11
968.522402
 21
753.117035
 31
0.0
  0
LINE
  5
167F
  8
0
 62
     8
 10
1531.118397
 20
280.280461
 30
0.0
 11
1531.118397
 21
575.280461
 31
0.0
  0
LINE
  5
1680
  8
0
 10
1881.999999
 20
280.280461
 30
0.0
 11
1881.999999
 21
575.280461
 31
0.0
  0
LINE
  5
1681
  8
0
 10
1363.059905
 20
265.559299
 30
0.0
 11
1363.059905
 21
590.001622
 31
0.0
  0
LINE
  5
1682
  8
0
 10
1437.999999
 20
265.559299
 30
0.0
 11
1437.999999
 21
590.001622
 31
0.0
  0
LINE
  5
1683
  8
0
 62
     8
 10
1386.725196
 20
438.047541
 30
0.0
 11
1386.725196
 21
590.001622
 31
0.0
  0
LINE
  5
1684
  8
0
 62
     8
 10
1418.045194
 20
438.047541
 30
0.0
 11
1418.045194
 21
590.001622
 31
0.0
  0
LINE
  5
1685
  8
0
 10
734.48158
 20
193.393794
 30
0.0
 11
734.48158
 21
606.606205
 31
0.0
  0
LINE
  5
1686
  8
0
 10
437.999999
 20
193.393794
 30
0.0
 11
437.999999
 21
606.606205
 31
0.0
  0
LINE
  5
1687
  8
0
 62
     1
 10
613.337797
 20
193.393794
 30
0.0
 11
613.337797
 21
606.606205
 31
0.0
  0
LINE
  5
1688
  8
0
 10
734.48158
 20
538.780461
 30
0.0
 11
1363.059905
 21
538.780461
 31
0.0
  0
LINE
  5
1689
  8
0
 10
868.259042
 20
347.331044
 30
0.0
 11
1307.778764
 21
347.331044
 31
0.0
  0
LINE
  5
168A
  8
0
 10
868.259042
 20
319.861787
 30
0.0
 11
1307.778764
 21
319.861787
 31
0.0
  0
LINE
  5
168B
  8
0
 10
1083.988997
 20
193.333803
 30
0.0
 11
1323.385988
 21
193.333803
 31
0.0
  0
LINE
  5
168C
  8
0
 10
1083.988997
 20
185.129149
 30
0.0
 11
1323.385988
 21
185.129149
 31
0.0
  0
LINE
  5
168D
  8
0
 10
1083.988997
 20
169.092053
 30
0.0
 11
1323.385988
 21
169.092053
 31
0.0
  0
LINE
  5
168E
  8
0
 10
1083.988997
 20
160.887399
 30
0.0
 11
1323.385988
 21
160.887399
 31
0.0
  0
LINE
  5
168F
  8
0
 10
1083.988997
 20
143.840232
 30
0.0
 11
1323.385988
 21
143.840232
 31
0.0
  0
LINE
  5
1690
  8
0
 10
1083.988997
 20
135.635578
 30
0.0
 11
1327.488315
 21
135.635578
 31
0.0
  0
LINE
  5
1691
  8
0
 10
1057.915329
 20
56.099097
 30
0.0
 11
1057.915329
 21
116.158108
 31
0.0
  0
LINE
  5
1692
  8
0
 10
1049.710675
 20
58.227059
 30
0.0
 11
1049.710675
 21
116.158108
 31
0.0
  0
LINE
  5
1693
  8
0
 10
971.629754
 20
69.273412
 30
0.0
 11
971.629754
 21
104.075903
 31
0.0
  0
LINE
  5
1694
  8
0
 10
768.290215
 20
69.273412
 30
0.0
 11
768.290215
 21
104.075903
 31
0.0
  0
ARC
  5
1695
  8
0
 10
870.10949
 20
-120.676274
 30
0.0
 40
200.221737
 50
71.567466
 51
108.432534
  0
LINE
  5
1696
  8
0
  6
DASHED2
 10
533.629754
 20
69.273412
 30
0.0
 11
533.629754
 21
104.075903
 31
0.0
  0
LINE
  5
1697
  8
0
 10
806.801824
 20
17.41947
 30
0.0
 11
933.417156
 21
17.41947
 31
0.0
  0
LINE
  5
1698
  8
0
  6
DASHED2
 10
495.417156
 20
17.41947
 30
0.0
 11
495.417156
 21
69.273412
 31
0.0
  0
LINE
  5
1699
  8
0
  6
DASHED2
 10
491.066846
 20
-0.000001
 30
0.0
 11
491.066846
 21
17.41947
 31
0.0
  0
LINE
  5
169A
  8
0
  6
DASHED2
 10
491.066846
 20
17.41947
 30
0.0
 11
495.417156
 21
17.41947
 31
0.0
  0
LINE
  5
169B
  8
0
  6
DASHED2
 10
495.118145
 20
69.273412
 30
0.0
 11
533.629754
 21
69.273412
 31
0.0
  0
LINE
  5
169C
  8
0
 10
806.801824
 20
17.41947
 30
0.0
 11
806.801824
 21
69.273412
 31
0.0
  0
LINE
  5
169D
  8
0
 10
806.801824
 20
69.273412
 30
0.0
 11
768.290215
 21
69.273412
 31
0.0
  0
LINE
  5
169E
  8
0
 10
933.417156
 20
47.894443
 30
0.0
 11
1049.710675
 21
47.894443
 31
0.0
  0
LINE
  5
169F
  8
0
 10
933.417156
 20
56.099097
 30
0.0
 11
1047.582713
 21
56.099097
 31
0.0
  0
LINE
  5
16A0
  8
0
 10
811.152134
 20
-0.000001
 30
0.0
 11
929.066846
 21
-0.000001
 31
0.0
  0
LINE
  5
16A1
  8
0
 62
     8
 10
853.661452
 20
-0.000001
 30
0.0
 11
853.661452
 21
17.41947
 31
0.0
  0
LINE
  5
16A2
  8
0
 62
     8
 10
838.19368
 20
-0.000001
 30
0.0
 11
838.19368
 21
17.41947
 31
0.0
  0
LINE
  5
16A3
  8
0
 62
     8
 10
822.725907
 20
-0.000001
 30
0.0
 11
822.725907
 21
17.41947
 31
0.0
  0
LINE
  5
16A4
  8
0
 10
811.152134
 20
-0.000001
 30
0.0
 11
811.152134
 21
17.41947
 31
0.0
  0
LINE
  5
16A5
  8
0
 62
     8
 10
915.532541
 20
-0.000001
 30
0.0
 11
915.532541
 21
17.41947
 31
0.0
  0
LINE
  5
16A6
  8
0
 62
     8
 10
884.596996
 20
-0.000001
 30
0.0
 11
884.596996
 21
17.41947
 31
0.0
  0
LINE
  5
16A7
  8
0
 62
     8
 10
869.129224
 20
-0.000001
 30
0.0
 11
869.129224
 21
17.41947
 31
0.0
  0
LINE
  5
16A8
  8
0
 62
     8
 10
900.064769
 20
-0.000001
 30
0.0
 11
900.064769
 21
17.41947
 31
0.0
  0
LINE
  5
16A9
  8
0
 10
933.417156
 20
17.41947
 30
0.0
 11
933.417156
 21
69.273412
 31
0.0
  0
LINE
  5
16AA
  8
0
 10
929.066846
 20
-0.000001
 30
0.0
 11
929.066846
 21
17.41947
 31
0.0
  0
LINE
  5
16AB
  8
0
 10
933.118145
 20
69.273412
 30
0.0
 11
971.629754
 21
69.273412
 31
0.0
  0
ARC
  5
16AC
  8
0
 10
1047.582713
 20
58.227059
 30
0.0
 40
2.127962
 50
270.0
 51
0.0
  0
ARC
  5
16AD
  8
0
 10
1049.710675
 20
56.099097
 30
0.0
 40
8.204654
 50
270.0
 51
0.0
  0
LINE
  5
16AE
  8
0
 10
734.48158
 20
328.600731
 30
0.0
 11
826.913968
 21
328.600731
 31
0.0
  0
ARC
  5
16AF
  8
0
 10
870.10949
 20
294.025589
 30
0.0
 40
200.221737
 50
251.567466
 51
288.432534
  0
LINE
  5
16B0
  8
0
 62
     1
 10
734.48158
 20
226.324666
 30
0.0
 11
1017.611484
 21
226.324666
 31
0.0
  0
LINE
  5
16B1
  8
0
 10
713.906876
 20
124.81341
 30
0.0
 11
1017.611484
 21
124.81341
 31
0.0
  0
LINE
  5
16B2
  8
0
 62
     8
 10
586.074082
 20
284.187638
 30
0.0
 11
586.074082
 21
327.903195
 31
0.0
  0
LINE
  5
16B3
  8
0
 62
     8
 10
570.440739
 20
284.187638
 30
0.0
 11
570.440739
 21
327.903195
 31
0.0
  0
LINE
  5
16B4
  8
0
 62
     8
 10
517.804632
 20
284.187638
 30
0.0
 11
517.804632
 21
327.903195
 31
0.0
  0
LINE
  5
16B5
  8
0
 62
     8
 10
506.810296
 20
284.187638
 30
0.0
 11
506.810296
 21
327.903195
 31
0.0
  0
LINE
  5
16B6
  8
0
 62
     8
 10
543.813062
 20
284.187638
 30
0.0
 11
543.813062
 21
327.903195
 31
0.0
  0
LINE
  5
16B7
  8
0
 62
     8
 10
559.446404
 20
284.187638
 30
0.0
 11
559.446404
 21
327.903195
 31
0.0
  0
LINE
  5
16B8
  8
0
 62
     8
 10
533.437974
 20
284.187638
 30
0.0
 11
533.437974
 21
327.903195
 31
0.0
  0
LINE
  5
16B9
  8
0
 62
     8
 10
491.176954
 20
284.187638
 30
0.0
 11
491.176954
 21
327.903195
 31
0.0
  0
LINE
  5
16BA
  8
0
 10
594.536819
 20
218.053855
 30
0.0
 11
594.536819
 21
337.991396
 31
0.0
  0
LINE
  5
16BB
  8
0
 10
446.415955
 20
193.393794
 30
0.0
 11
446.415955
 21
337.991396
 31
0.0
  0
LINE
  5
16BC
  8
0
 10
469.980635
 20
218.053855
 30
0.0
 11
469.980635
 21
337.991396
 31
0.0
  0
LINE
  5
16BD
  8
0
 10
481.762976
 20
218.053855
 30
0.0
 11
481.762976
 21
337.991396
 31
0.0
  0
LINE
  5
16BE
  8
0
  6
DASHED2
 10
495.417156
 20
124.81341
 30
0.0
 11
654.313764
 21
124.81341
 31
0.0
  0
LINE
  5
16BF
  8
0
 10
437.999999
 20
193.393794
 30
0.0
 11
734.48158
 21
193.393794
 31
0.0
  0
LINE
  5
16C0
  8
0
  6
DASHED2
 10
495.417156
 20
104.075903
 30
0.0
 11
495.417156
 21
124.81341
 31
0.0
  0
LINE
  5
16C1
  8
0
  6
DASHED2
 10
495.118145
 20
104.075903
 30
0.0
 11
533.629754
 21
104.075903
 31
0.0
  0
LINE
  5
16C2
  8
0
 10
481.762976
 20
218.053855
 30
0.0
 11
594.536819
 21
218.053855
 31
0.0
  0
LINE
  5
16C3
  8
0
 10
446.415955
 20
218.053855
 30
0.0
 11
469.980635
 21
218.053855
 31
0.0
  0
LINE
  5
16C4
  8
0
 62
     8
 10
533.437974
 20
224.779326
 30
0.0
 11
533.437974
 21
246.637105
 31
0.0
  0
LINE
  5
16C5
  8
0
 62
     8
 10
506.810296
 20
224.779326
 30
0.0
 11
506.810296
 21
246.637105
 31
0.0
  0
LINE
  5
16C6
  8
0
 62
     8
 10
498.183193
 20
224.779326
 30
0.0
 11
498.183193
 21
246.637105
 31
0.0
  0
LINE
  5
16C7
  8
0
 62
     8
 10
524.810871
 20
224.779326
 30
0.0
 11
524.810871
 21
246.637105
 31
0.0
  0
LINE
  5
16C8
  8
0
 62
     8
 10
498.183193
 20
224.779326
 30
0.0
 11
506.810296
 21
224.779326
 31
0.0
  0
LINE
  5
16C9
  8
0
 62
     8
 10
498.183193
 20
246.637105
 30
0.0
 11
506.810296
 21
246.637105
 31
0.0
  0
LINE
  5
16CA
  8
0
 62
     8
 10
524.810871
 20
224.779326
 30
0.0
 11
533.437974
 21
224.779326
 31
0.0
  0
LINE
  5
16CB
  8
0
 62
     8
 10
524.810871
 20
246.637105
 30
0.0
 11
533.437974
 21
246.637105
 31
0.0
  0
LINE
  5
16CC
  8
0
 62
     8
 10
586.074082
 20
224.779326
 30
0.0
 11
586.074082
 21
246.637105
 31
0.0
  0
LINE
  5
16CD
  8
0
 62
     8
 10
577.446978
 20
224.779326
 30
0.0
 11
577.446978
 21
246.637105
 31
0.0
  0
LINE
  5
16CE
  8
0
 62
     8
 10
577.446978
 20
224.779326
 30
0.0
 11
586.074082
 21
224.779326
 31
0.0
  0
LINE
  5
16CF
  8
0
 62
     8
 10
577.446978
 20
246.637105
 30
0.0
 11
586.074082
 21
246.637105
 31
0.0
  0
LINE
  5
16D0
  8
0
 62
     8
 10
550.8193
 20
224.779326
 30
0.0
 11
550.8193
 21
246.637105
 31
0.0
  0
LINE
  5
16D1
  8
0
 62
     8
 10
559.446404
 20
224.779326
 30
0.0
 11
559.446404
 21
246.637105
 31
0.0
  0
LINE
  5
16D2
  8
0
 62
     8
 10
550.8193
 20
224.779326
 30
0.0
 11
559.446404
 21
224.779326
 31
0.0
  0
LINE
  5
16D3
  8
0
 62
     8
 10
550.8193
 20
246.637105
 30
0.0
 11
559.446404
 21
246.637105
 31
0.0
  0
LINE
  5
16D4
  8
0
 62
     8
 10
517.804632
 20
284.187638
 30
0.0
 11
533.437974
 21
284.187638
 31
0.0
  0
LINE
  5
16D5
  8
0
 62
     8
 10
491.176954
 20
284.187638
 30
0.0
 11
506.810296
 21
284.187638
 31
0.0
  0
LINE
  5
16D6
  8
0
 62
     8
 10
570.440739
 20
284.187638
 30
0.0
 11
586.074082
 21
284.187638
 31
0.0
  0
LINE
  5
16D7
  8
0
 62
     8
 10
543.813062
 20
284.187638
 30
0.0
 11
559.446404
 21
284.187638
 31
0.0
  0
LINE
  5
16D8
  8
0
 10
713.906876
 20
193.393794
 30
0.0
 11
713.906876
 21
124.81341
 31
0.0
  0
LINE
  5
16D9
  8
0
 10
806.801824
 20
104.075903
 30
0.0
 11
806.801824
 21
124.81341
 31
0.0
  0
LINE
  5
16DA
  8
0
 10
806.801824
 20
104.075903
 30
0.0
 11
768.290215
 21
104.075903
 31
0.0
  0
LINE
  5
16DB
  8
0
 10
481.762976
 20
337.991396
 30
0.0
 11
594.536819
 21
337.991396
 31
0.0
  0
LINE
  5
16DC
  8
0
 10
446.415955
 20
337.991396
 30
0.0
 11
469.980635
 21
337.991396
 31
0.0
  0
LINE
  5
16DD
  8
0
 62
     8
 10
517.804632
 20
327.903195
 30
0.0
 11
533.437974
 21
327.903195
 31
0.0
  0
LINE
  5
16DE
  8
0
 62
     8
 10
491.176954
 20
327.903195
 30
0.0
 11
506.810296
 21
327.903195
 31
0.0
  0
LINE
  5
16DF
  8
0
 62
     8
 10
570.440739
 20
327.903195
 30
0.0
 11
586.074082
 21
327.903195
 31
0.0
  0
LINE
  5
16E0
  8
0
 62
     8
 10
543.813062
 20
327.903195
 30
0.0
 11
559.446404
 21
327.903195
 31
0.0
  0
LINE
  5
16E1
  8
0
 10
868.259042
 20
359.243011
 30
0.0
 11
868.259042
 21
307.94982
 31
0.0
  0
LINE
  5
16E2
  8
0
 10
823.968243
 20
330.072052
 30
0.0
 11
868.259042
 21
307.94982
 31
0.0
  0
LINE
  5
16E3
  8
0
 10
1017.611484
 20
319.861787
 30
0.0
 11
1017.611484
 21
124.81341
 31
0.0
  0
LINE
  5
16E4
  8
0
 10
1023.668265
 20
264.868781
 30
0.0
 11
1083.988997
 21
264.868781
 31
0.0
  0
LINE
  5
16E5
  8
0
 10
1023.668265
 20
301.620686
 30
0.0
 11
1083.988997
 21
301.620686
 31
0.0
  0
LINE
  5
16E6
  8
0
 10
1023.668265
 20
215.298557
 30
0.0
 11
1083.988997
 21
215.298557
 31
0.0
  0
LINE
  5
16E7
  8
0
 10
1023.668265
 20
202.480237
 30
0.0
 11
1083.988997
 21
202.480237
 31
0.0
  0
LINE
  5
16E8
  8
0
 10
1023.668265
 20
252.050461
 30
0.0
 11
1083.988997
 21
252.050461
 31
0.0
  0
LINE
  5
16E9
  8
0
 10
1023.668265
 20
165.728332
 30
0.0
 11
1083.988997
 21
165.728332
 31
0.0
  0
LINE
  5
16EA
  8
0
 10
1023.668265
 20
152.910012
 30
0.0
 11
1083.988997
 21
152.910012
 31
0.0
  0
LINE
  5
16EB
  8
0
 10
1023.668265
 20
116.158108
 30
0.0
 11
1083.988997
 21
116.158108
 31
0.0
  0
LINE
  5
16EC
  8
0
 10
1023.668265
 20
202.480237
 30
0.0
 11
1023.668265
 21
165.728332
 31
0.0
  0
LINE
  5
16ED
  8
0
 10
1023.668265
 20
152.910012
 30
0.0
 11
1023.668265
 21
116.158108
 31
0.0
  0
LINE
  5
16EE
  8
0
 10
933.417156
 20
104.075903
 30
0.0
 11
933.417156
 21
124.81341
 31
0.0
  0
LINE
  5
16EF
  8
0
 10
933.118145
 20
104.075903
 30
0.0
 11
971.629754
 21
104.075903
 31
0.0
  0
LINE
  5
16F0
  8
0
 10
1023.668265
 20
252.050461
 30
0.0
 11
1023.668265
 21
215.298557
 31
0.0
  0
LINE
  5
16F1
  8
0
 10
1023.668265
 20
301.620686
 30
0.0
 11
1023.668265
 21
264.868781
 31
0.0
  0
LINE
  5
16F2
  8
0
 10
1083.988997
 20
202.480237
 30
0.0
 11
1083.988997
 21
165.728332
 31
0.0
  0
LINE
  5
16F3
  8
0
 10
1083.988997
 20
152.910012
 30
0.0
 11
1083.988997
 21
116.158108
 31
0.0
  0
LINE
  5
16F4
  8
0
 10
1083.988997
 20
252.050461
 30
0.0
 11
1083.988997
 21
215.298557
 31
0.0
  0
LINE
  5
16F5
  8
0
 10
1083.988997
 20
301.620686
 30
0.0
 11
1083.988997
 21
264.868781
 31
0.0
  0
LINE
  5
16F6
  8
0
 10
916.273221
 20
383.039537
 30
0.0
 11
970.570273
 21
383.039537
 31
0.0
  0
LINE
  5
16F7
  8
0
 10
916.273221
 20
364.278141
 30
0.0
 11
970.570273
 21
364.278141
 31
0.0
  0
LINE
  5
16F8
  8
0
 10
916.273221
 20
364.278141
 30
0.0
 11
916.273221
 21
383.039537
 31
0.0
  0
LINE
  5
16F9
  8
0
 10
823.968243
 20
337.120779
 30
0.0
 11
868.259042
 21
359.243011
 31
0.0
  0
LINE
  5
16FA
  8
0
 10
823.968243
 20
337.120779
 30
0.0
 11
823.968243
 21
330.072052
 31
0.0
  0
LINE
  5
16FB
  8
0
 10
970.570273
 20
364.278141
 30
0.0
 11
970.570273
 21
383.039537
 31
0.0
  0
LINE
  5
16FC
  8
0
 10
916.273221
 20
491.28278
 30
0.0
 11
970.570273
 21
491.28278
 31
0.0
  0
LINE
  5
16FD
  8
0
 10
916.273221
 20
472.521384
 30
0.0
 11
970.570273
 21
472.521384
 31
0.0
  0
LINE
  5
16FE
  8
0
 10
916.273221
 20
472.521384
 30
0.0
 11
916.273221
 21
491.28278
 31
0.0
  0
LINE
  5
16FF
  8
0
 10
970.570273
 20
472.521384
 30
0.0
 11
970.570273
 21
491.28278
 31
0.0
  0
LINE
  5
1700
  8
0
 10
1437.999999
 20
280.280461
 30
0.0
 11
1881.999999
 21
280.280461
 31
0.0
  0
LINE
  5
1701
  8
0
 62
     8
 10
1386.725196
 20
265.559299
 30
0.0
 11
1386.725196
 21
419.286144
 31
0.0
  0
LINE
  5
1702
  8
0
 62
     8
 10
1418.045194
 20
265.559299
 30
0.0
 11
1418.045194
 21
419.286144
 31
0.0
  0
LINE
  5
1703
  8
0
 10
1333.22563
 20
303.420574
 30
0.0
 11
1333.22563
 21
384.221855
 31
0.0
  0
LINE
  5
1704
  8
0
 10
1336.427715
 20
164.989726
 30
0.0
 11
1336.427715
 21
319.861787
 31
0.0
  0
LINE
  5
1705
  8
0
 10
1344.632369
 20
164.989726
 30
0.0
 11
1344.632369
 21
319.861787
 31
0.0
  0
LINE
  5
1706
  8
0
 10
1348.702283
 20
189.231476
 30
0.0
 11
1348.702283
 21
319.861787
 31
0.0
  0
LINE
  5
1707
  8
0
 10
1356.906937
 20
189.231476
 30
0.0
 11
1356.906937
 21
319.861787
 31
0.0
  0
LINE
  5
1708
  8
0
 10
1307.778764
 20
303.420574
 30
0.0
 11
1307.778764
 21
384.221855
 31
0.0
  0
LINE
  5
1709
  8
0
 10
1323.385988
 20
139.737905
 30
0.0
 11
1323.385988
 21
303.420574
 31
0.0
  0
LINE
  5
170A
  8
0
 10
1331.590642
 20
139.737905
 30
0.0
 11
1331.590642
 21
303.420574
 31
0.0
  0
LINE
  5
170B
  8
0
 10
1344.632369
 20
193.333803
 30
0.0
 11
1348.702283
 21
193.333803
 31
0.0
  0
LINE
  5
170C
  8
0
 10
1344.632369
 20
185.129149
 30
0.0
 11
1352.80461
 21
185.129149
 31
0.0
  0
ARC
  5
170D
  8
0
 10
1327.488315
 20
139.737905
 30
0.0
 40
4.102327
 50
180.0
 51
0.0
  0
ARC
  5
170E
  8
0
 10
1340.530042
 20
164.989726
 30
0.0
 40
4.102327
 50
180.0
 51
0.0
  0
LINE
  5
170F
  8
0
 10
1331.590642
 20
160.887399
 30
0.0
 11
1340.530042
 21
160.887399
 31
0.0
  0
LINE
  5
1710
  8
0
 10
1331.590642
 20
169.092053
 30
0.0
 11
1336.427715
 21
169.092053
 31
0.0
  0
LINE
  5
1711
  8
0
 10
1331.590642
 20
193.333803
 30
0.0
 11
1336.427715
 21
193.333803
 31
0.0
  0
LINE
  5
1712
  8
0
 10
1331.590642
 20
185.129149
 30
0.0
 11
1336.427715
 21
185.129149
 31
0.0
  0
ARC
  5
1713
  8
0
 10
1352.80461
 20
189.231476
 30
0.0
 40
4.102327
 50
180.0
 51
0.0
  0
LINE
  5
1714
  8
0
 10
1307.778764
 20
303.420574
 30
0.0
 11
1333.22563
 21
303.420574
 31
0.0
  0
LINE
  5
1715
  8
0
 10
1363.059905
 20
265.559299
 30
0.0
 11
1437.999999
 21
265.559299
 31
0.0
  0
LINE
  5
1716
  8
0
 10
1427.678478
 20
419.286144
 30
0.0
 11
1427.678478
 21
438.047541
 31
0.0
  0
LINE
  5
1717
  8
0
 10
1373.381426
 20
419.286144
 30
0.0
 11
1373.381426
 21
438.047541
 31
0.0
  0
LINE
  5
1718
  8
0
 10
1333.22563
 20
319.861787
 30
0.0
 11
1363.059905
 21
319.861787
 31
0.0
  0
LINE
  5
1719
  8
0
 10
1333.22563
 20
347.331044
 30
0.0
 11
1363.059905
 21
347.331044
 31
0.0
  0
LINE
  5
171A
  8
0
 10
1373.381426
 20
419.286144
 30
0.0
 11
1427.678478
 21
419.286144
 31
0.0
  0
LINE
  5
171B
  8
0
 10
1373.381426
 20
438.047541
 30
0.0
 11
1427.678478
 21
438.047541
 31
0.0
  0
LINE
  5
171C
  8
0
 10
772.026865
 20
859.999999
 30
0.0
 11
959.491495
 21
859.999999
 31
0.0
  0
LINE
  5
171D
  8
0
 10
734.067647
 20
753.117035
 30
0.0
 11
997.450713
 21
753.117035
 31
0.0
  0
ARC
  5
171E
  8
0
 10
1152.365664
 20
664.741581
 30
0.0
 40
427.531813
 50
152.824932
 51
168.070332
  0
ARC
  5
171F
  8
0
  6
DASHED2
 10
141.152697
 20
664.741581
 30
0.0
 40
427.531813
 50
11.929668
 51
27.175068
  0
LINE
  5
1720
  8
0
 10
437.999999
 20
606.606205
 30
0.0
 11
734.48158
 21
606.606205
 31
0.0
  0
LINE
  5
1721
  8
0
  6
DASHED2
 10
559.450713
 20
655.677235
 30
0.0
 11
559.450713
 21
753.117035
 31
0.0
  0
LINE
  5
1722
  8
0
 10
742.047869
 20
740.338456
 30
0.0
 11
762.995959
 21
753.117035
 31
0.0
  0
ARC
  5
1723
  8
0
 10
579.152697
 20
664.741581
 30
0.0
 40
427.531813
 50
11.929668
 51
27.175068
  0
LINE
  5
1724
  8
0
 10
989.470491
 20
740.338456
 30
0.0
 11
968.522402
 21
753.117035
 31
0.0
  0
LINE
  5
1725
  8
0
 10
1437.999999
 20
575.280461
 30
0.0
 11
1881.999999
 21
575.280461
 31
0.0
  0
LINE
  5
1726
  8
0
 10
1363.059905
 20
590.001622
 30
0.0
 11
1437.999999
 21
590.001622
 31
0.0
  0
ENDBLK
  5
1728
  8
0
  0
BLOCK
  8
0
  2
A$C46672182
 70
     0
 10
0.0
 20
0.0
 30
0.0
  3
A$C46672182
  1

  0
LINE
  5
172C
  8
0
  6
DASHED2
 10
275.906876
 20
0.000001
 30
0.0
 11
646.744355
 21
0.000001
 31
0.0
  0
POLYLINE
  5
172D
  8
0
  6
DASHED2
 66
     1
 10
0.0
 20
0.0
 30
0.0
  0
VERTEX
  5
184B
  8
0
  6
DASHED2
 10
296.48158
 20
676.458104
 30
0.0
  0
VERTEX
  5
184C
  8
0
  6
DASHED2
 10
310.593057
 20
667.353897
 30
0.0
 42
0.105602
  0
VERTEX
  5
184D
  8
0
  6
DASHED2
 10
462.737349
 20
609.644148
 30
0.0
 42
0.105602
  0
SEQEND
  5
184E
  8
0
  6
DASHED2
  0
LINE
  5
172E
  8
0
  6
DASHED2
 10
175.337797
 20
742.605729
 30
0.0
 11
-0.000001
 21
421.489377
 31
0.0
  0
POLYLINE
  5
172F
  8
0
  6
DASHED2
 66
     1
 10
0.0
 20
0.0
 30
0.0
  0
VERTEX
  5
184F
  8
0
  6
DASHED2
 10
156.016806
 20
336.300182
 30
0.0
 42
0.242223
  0
VERTEX
  5
1850
  8
0
  6
DASHED2
 10
275.906876
 20
137.600796
 30
0.0
  0
SEQEND
  5
1851
  8
0
  6
DASHED2
  0
LINE
  5
1730
  8
0
  6
DASHED2
 10
275.906876
 20
137.600796
 30
0.0
 11
275.906876
 21
0.000001
 31
0.0
  0
LINE
  5
1731
  8
0
  6
DASHED2
 10
156.016806
 20
336.300182
 30
0.0
 11
-0.000001
 21
421.489377
 31
0.0
  0
LINE
  5
1732
  8
0
  6
DASHED2
 10
296.48158
 20
676.458104
 30
0.0
 11
175.337797
 21
742.605729
 31
0.0
  0
LINE
  5
1733
  8
0
 10
1437.999999
 20
333.778839
 30
0.0
 11
1437.999999
 21
658.221163
 31
0.0
  0
LINE
  5
1734
  8
0
 10
1363.059905
 20
333.778839
 30
0.0
 11
1363.059905
 21
658.221163
 31
0.0
  0
LINE
  5
1735
  8
0
 62
     8
 10
1386.725196
 20
333.778839
 30
0.0
 11
1386.725196
 21
658.221163
 31
0.0
  0
LINE
  5
1736
  8
0
 62
     8
 10
1418.045194
 20
333.778839
 30
0.0
 11
1418.045194
 21
658.221163
 31
0.0
  0
LINE
  5
1737
  8
0
 62
     8
 10
1531.118397
 20
348.500001
 30
0.0
 11
1531.118397
 21
643.500001
 31
0.0
  0
LINE
  5
1738
  8
0
 10
1881.999999
 20
348.500001
 30
0.0
 11
1881.999999
 21
643.500001
 31
0.0
  0
LINE
  5
1739
  8
0
 10
613.337797
 20
742.605729
 30
0.0
 11
437.999999
 21
421.489377
 31
0.0
  0
LINE
  5
173A
  8
0
 10
734.48158
 20
676.458104
 30
0.0
 11
559.143781
 21
355.341752
 31
0.0
  0
POLYLINE
  5
173B
  8
0
 66
     1
 10
0.0
 20
0.0
 30
0.0
  0
VERTEX
  5
1852
  8
0
 10
857.806599
 20
607.000001
 30
0.0
  0
VERTEX
  5
1853
  8
0
 10
847.008018
 20
607.000001
 30
0.0
 42
0.755869
  0
VERTEX
  5
1854
  8
0
 10
713.906876
 20
137.600796
 30
0.0
  0
SEQEND
  5
1855
  8
0
  0
LINE
  5
173C
  8
0
 10
1067.856707
 20
252.72316
 30
0.0
 11
1348.702283
 21
252.72316
 31
0.0
  0
LINE
  5
173D
  8
0
 10
1067.856707
 20
260.927814
 30
0.0
 11
1346.574321
 21
260.927814
 31
0.0
  0
LINE
  5
173E
  8
0
 10
1040.677468
 20
396.820271
 30
0.0
 11
1363.059905
 21
396.820271
 31
0.0
  0
LINE
  5
173F
  8
0
 10
838.995411
 20
247.065438
 30
0.0
 11
807.739495
 21
265.799367
 31
0.0
  0
LINE
  5
1740
  8
0
 10
833.793106
 20
214.52728
 30
0.0
 11
792.016539
 21
239.566995
 31
0.0
  0
ARC
  5
1741
  8
0
 62
     1
 10
865.75918
 20
261.558179
 30
0.0
 40
167.629157
 50
19.607346
 51
205.057608
  0
ARC
  5
1742
  8
0
 10
865.75918
 20
261.558179
 30
0.0
 40
151.852304
 50
0.0
 51
180.0
  0
LINE
  5
1743
  8
0
 10
713.906876
 20
0.000001
 30
0.0
 11
1017.611484
 21
0.000001
 31
0.0
  0
LINE
  5
1744
  8
0
 62
     1
 10
713.906876
 20
82.863962
 30
0.0
 11
1017.611484
 21
82.863962
 31
0.0
  0
LINE
  5
1745
  8
0
 10
713.906876
 20
261.558179
 30
0.0
 11
713.906876
 21
0.000001
 31
0.0
  0
LINE
  5
1746
  8
0
 10
559.143781
 20
355.341752
 30
0.0
 11
437.999999
 21
421.489377
 31
0.0
  0
ARC
  5
1747
  8
0
 10
799.878017
 20
252.683181
 30
0.0
 40
15.291735
 50
59.062698
 51
239.062698
  0
POLYLINE
  5
1748
  8
0
 66
     1
 10
0.0
 20
0.0
 30
0.0
  0
VERTEX
  5
1856
  8
0
 10
1039.308575
 20
211.880916
 30
0.0
 42
0.025861
  0
VERTEX
  5
1857
  8
0
 10
1045.565913
 20
229.763606
 30
0.0
 42
0.025861
  0
SEQEND
  5
1858
  8
0
  0
LINE
  5
1749
  8
0
 10
1045.565913
 20
234.930955
 30
0.0
 11
1045.565913
 21
211.880916
 31
0.0
  0
ARC
  5
174A
  8
0
 62
     1
 10
865.75918
 20
261.558179
 30
0.0
 40
167.629157
 50
342.761363
 51
3.845946
  0
LINE
  5
174B
  8
0
 10
1049.710675
 20
214.008878
 30
0.0
 11
1049.710675
 21
257.226103
 31
0.0
  0
LINE
  5
174C
  8
0
 10
1057.915329
 20
211.880916
 30
0.0
 11
1057.915329
 21
257.226103
 31
0.0
  0
LINE
  5
174D
  8
0
 10
1062.09135
 20
234.930955
 30
0.0
 11
1062.09135
 21
151.342266
 31
0.0
  0
LINE
  5
174E
  8
0
 10
1017.611484
 20
261.558179
 30
0.0
 11
1017.611484
 21
211.880916
 31
0.0
  0
LINE
  5
174F
  8
0
 10
907.841617
 20
220.590747
 30
0.0
 11
907.841617
 21
184.487773
 31
0.0
  0
LINE
  5
1750
  8
0
 10
897.725254
 20
214.52728
 30
0.0
 11
939.501821
 21
239.566995
 31
0.0
  0
LINE
  5
1751
  8
0
 10
823.676744
 20
220.590747
 30
0.0
 11
823.676744
 21
184.487773
 31
0.0
  0
CIRCLE
  5
1752
  8
0
 62
     8
 10
865.75918
 20
226.101401
 30
0.0
 40
33.996914
  0
LINE
  5
1753
  8
0
 10
1017.611484
 20
90.627539
 30
0.0
 11
1056.859388
 21
90.627539
 31
0.0
  0
LINE
  5
1754
  8
0
 10
1017.611484
 20
99.035573
 30
0.0
 11
1056.859388
 21
99.035573
 31
0.0
  0
LINE
  5
1755
  8
0
 10
907.841617
 20
203.676262
 30
0.0
 11
1049.710675
 21
203.676262
 31
0.0
  0
LINE
  5
1756
  8
0
 10
907.841617
 20
211.880916
 30
0.0
 11
1047.582713
 21
211.880916
 31
0.0
  0
POLYLINE
  5
1757
  8
0
 66
     1
 10
0.0
 20
0.0
 30
0.0
  0
VERTEX
  5
1859
  8
0
 10
1017.611484
 20
173.08115
 30
0.0
 42
0.048608
  0
VERTEX
  5
185A
  8
0
 10
1035.71578
 20
203.676262
 30
0.0
 42
0.048608
  0
SEQEND
  5
185B
  8
0
  0
LINE
  5
1758
  8
0
 10
1017.611484
 20
203.676262
 30
0.0
 11
1017.611484
 21
0.000001
 31
0.0
  0
LINE
  5
1759
  8
0
 10
854.460998
 20
184.487773
 30
0.0
 11
854.460998
 21
133.430422
 31
0.0
  0
LINE
  5
175A
  8
0
 10
877.057363
 20
184.487773
 30
0.0
 11
877.057363
 21
133.430422
 31
0.0
  0
LINE
  5
175B
  8
0
 10
854.460998
 20
133.430422
 30
0.0
 11
877.057363
 21
133.430422
 31
0.0
  0
LINE
  5
175C
  8
0
 10
823.676744
 20
184.487773
 30
0.0
 11
907.841617
 21
184.487773
 31
0.0
  0
ARC
  5
175D
  8
0
 62
     1
 10
865.75918
 20
261.558179
 30
0.0
 40
167.629157
 50
334.942392
 51
339.800047
  0
LINE
  5
175E
  8
0
 10
1050.797874
 20
151.342266
 30
0.0
 11
1050.797874
 21
99.035573
 31
0.0
  0
LINE
  5
175F
  8
0
 10
1056.859388
 20
151.342266
 30
0.0
 11
1056.859388
 21
90.627539
 31
0.0
  0
LINE
  5
1760
  8
0
 10
1045.565913
 20
203.676262
 30
0.0
 11
1045.565913
 21
151.342266
 31
0.0
  0
LINE
  5
1761
  8
0
 10
1045.565913
 20
151.342266
 30
0.0
 11
1062.09135
 21
151.342266
 31
0.0
  0
ARC
  5
1762
  8
0
 10
1047.582713
 20
214.008878
 30
0.0
 40
2.127962
 50
270.0
 51
0.0
  0
ARC
  5
1763
  8
0
 10
1049.710675
 20
211.880916
 30
0.0
 40
8.204654
 50
270.0
 51
0.0
  0
LINE
  5
1764
  8
0
 10
1023.668265
 20
327.454001
 30
0.0
 11
1083.988997
 21
327.454001
 31
0.0
  0
POLYLINE
  5
1765
  8
0
 66
     1
 10
0.0
 20
0.0
 30
0.0
  0
VERTEX
  5
185C
  8
0
 10
1047.03874
 20
327.454001
 30
0.0
 42
0.070187
  0
VERTEX
  5
185D
  8
0
 10
1027.341934
 20
374.714829
 30
0.0
 42
-0.576083
  0
VERTEX
  5
185E
  8
0
 10
1040.677468
 20
396.820271
 30
0.0
  0
SEQEND
  5
185F
  8
0
  0
LINE
  5
1766
  8
0
 10
1023.668265
 20
272.80174
 30
0.0
 11
1083.988997
 21
272.80174
 31
0.0
  0
LINE
  5
1767
  8
0
 10
890.372185
 20
332.459177
 30
0.0
 11
890.372185
 21
310.555837
 31
0.0
  0
LINE
  5
1768
  8
0
 10
903.396617
 20
310.555837
 30
0.0
 11
903.396617
 21
332.459177
 31
0.0
  0
LINE
  5
1769
  8
0
 10
871.788851
 20
310.555837
 30
0.0
 11
871.788851
 21
332.459177
 31
0.0
  0
LINE
  5
176A
  8
0
 10
858.76442
 20
332.459177
 30
0.0
 11
858.76442
 21
310.555837
 31
0.0
  0
LINE
  5
176B
  8
0
 10
841.146175
 20
332.459177
 30
0.0
 11
841.146175
 21
310.555837
 31
0.0
  0
LINE
  5
176C
  8
0
 10
828.121744
 20
310.555837
 30
0.0
 11
828.121744
 21
332.459177
 31
0.0
  0
LINE
  5
176D
  8
0
 10
892.522949
 20
247.065438
 30
0.0
 11
923.778866
 21
265.799367
 31
0.0
  0
LINE
  5
176E
  8
0
 10
907.841617
 20
310.555837
 30
0.0
 11
907.841617
 21
256.247022
 31
0.0
  0
LINE
  5
176F
  8
0
 10
823.676744
 20
310.555837
 30
0.0
 11
823.676744
 21
256.247022
 31
0.0
  0
LINE
  5
1770
  8
0
 10
823.676744
 20
310.555837
 30
0.0
 11
907.841617
 21
310.555837
 31
0.0
  0
ARC
  5
1771
  8
0
 10
931.640344
 20
252.683181
 30
0.0
 40
15.291735
 50
300.937302
 51
120.937302
  0
LINE
  5
1772
  8
0
 10
1023.668265
 20
327.454001
 30
0.0
 11
1023.668265
 21
272.80174
 31
0.0
  0
LINE
  5
1773
  8
0
 10
871.788851
 20
332.459177
 30
0.0
 11
858.76442
 21
332.459177
 31
0.0
  0
LINE
  5
1774
  8
0
 10
828.121744
 20
332.459177
 30
0.0
 11
841.146175
 21
332.459177
 31
0.0
  0
LINE
  5
1775
  8
0
 10
903.396617
 20
332.459177
 30
0.0
 11
890.372185
 21
332.459177
 31
0.0
  0
LINE
  5
1776
  8
0
 10
1039.800556
 20
272.80174
 30
0.0
 11
1039.800556
 21
234.930955
 31
0.0
  0
LINE
  5
1777
  8
0
 10
1067.856707
 20
272.80174
 30
0.0
 11
1067.856707
 21
234.930955
 31
0.0
  0
ARC
  5
1778
  8
0
 10
1053.813002
 20
257.226103
 30
0.0
 40
4.102327
 50
0.0
 51
180.0
  0
LINE
  5
1779
  8
0
 10
1057.915329
 20
234.930955
 30
0.0
 11
1067.856707
 21
234.930955
 31
0.0
  0
LINE
  5
177A
  8
0
 10
1039.800556
 20
234.930955
 30
0.0
 11
1049.710675
 21
234.930955
 31
0.0
  0
LINE
  5
177B
  8
0
 10
1083.988997
 20
327.454001
 30
0.0
 11
1083.988997
 21
272.80174
 31
0.0
  0
LINE
  5
177C
  8
0
 10
1437.999999
 20
348.500001
 30
0.0
 11
1881.999999
 21
348.500001
 31
0.0
  0
LINE
  5
177D
  8
0
 10
1356.906937
 20
260.927814
 30
0.0
 11
1356.906937
 21
390.3534
 31
0.0
  0
LINE
  5
177E
  8
0
 10
1348.702283
 20
263.055776
 30
0.0
 11
1348.702283
 21
390.3534
 31
0.0
  0
LINE
  5
177F
  8
0
 10
1336.427715
 20
263.055776
 30
0.0
 11
1336.427715
 21
390.3534
 31
0.0
  0
LINE
  5
1780
  8
0
 10
1344.632369
 20
260.927814
 30
0.0
 11
1344.632369
 21
390.3534
 31
0.0
  0
LINE
  5
1781
  8
0
 10
1331.590642
 20
260.927814
 30
0.0
 11
1331.590642
 21
390.3534
 31
0.0
  0
LINE
  5
1782
  8
0
 10
1323.385988
 20
263.055776
 30
0.0
 11
1323.385988
 21
390.3534
 31
0.0
  0
ARC
  5
1783
  8
0
 10
1346.574321
 20
263.055776
 30
0.0
 40
2.127962
 50
270.0
 51
0.0
  0
ARC
  5
1784
  8
0
 10
1348.702283
 20
260.927814
 30
0.0
 40
8.204654
 50
270.0
 51
0.0
  0
ARC
  5
1785
  8
0
 10
1327.488315
 20
390.3534
 30
0.0
 40
4.102327
 50
0.0
 51
180.0
  0
ARC
  5
1786
  8
0
 10
1340.530042
 20
390.3534
 30
0.0
 40
4.102327
 50
0.0
 51
180.0
  0
LINE
  5
1787
  8
0
 10
1363.059905
 20
333.778839
 30
0.0
 11
1437.999999
 21
333.778839
 31
0.0
  0
ARC
  5
1788
  8
0
 10
1352.80461
 20
390.3534
 30
0.0
 40
4.102327
 50
0.0
 51
180.0
  0
LINE
  5
1789
  8
0
 10
868.259042
 20
600.308788
 30
0.0
 11
1307.778764
 21
600.308788
 31
0.0
  0
LINE
  5
178A
  8
0
 10
868.259042
 20
572.839532
 30
0.0
 11
1307.778764
 21
572.839532
 31
0.0
  0
LINE
  5
178B
  8
0
 10
921.803717
 20
607.000001
 30
0.0
 11
1307.778764
 21
607.000001
 31
0.0
  0
POLYLINE
  5
178C
  8
0
 62
     8
 66
     1
 10
0.0
 20
0.0
 30
0.0
  0
VERTEX
  5
1860
  8
0
 62
     8
 10
730.755724
 20
670.683045
 30
0.0
  0
VERTEX
  5
1861
  8
0
 62
     8
 10
744.867202
 20
661.578838
 30
0.0
 42
0.078503
  0
VERTEX
  5
1862
  8
0
 62
     8
 10
865.141166
 20
610.663448
 30
0.0
 42
0.078503
  0
SEQEND
  5
1863
  8
0
 62
     8
  0
POLYLINE
  5
178D
  8
0
 66
     1
 10
0.0
 20
0.0
 30
0.0
  0
VERTEX
  5
1864
  8
0
 10
734.48158
 20
676.458104
 30
0.0
  0
VERTEX
  5
1865
  8
0
 10
748.593057
 20
667.353897
 30
0.0
 42
0.119403
  0
VERTEX
  5
1866
  8
0
 10
921.803717
 20
607.000001
 30
0.0
 42
0.477567
  0
SEQEND
  5
1867
  8
0
  0
LINE
  5
178E
  8
0
  6
DASHED2
 10
462.737349
 20
609.644148
 30
0.0
 11
501.737349
 21
609.644148
 31
0.0
  0
POLYLINE
  5
178F
  8
0
 62
     8
 66
     1
 10
0.0
 20
0.0
 30
0.0
 70
     1
  0
VERTEX
  5
1868
  8
0
 62
     8
 10
754.755403
 20
458.627085
 30
0.0
  0
VERTEX
  5
1869
  8
0
 62
     8
 10
763.715156
 20
474.145831
 30
0.0
  0
VERTEX
  5
186A
  8
0
 62
     8
 10
754.755403
 20
489.664578
 30
0.0
  0
VERTEX
  5
186B
  8
0
 62
     8
 10
736.835898
 20
489.664578
 30
0.0
  0
VERTEX
  5
186C
  8
0
 62
     8
 10
727.876146
 20
474.145831
 30
0.0
  0
VERTEX
  5
186D
  8
0
 62
     8
 10
736.835898
 20
458.627085
 30
0.0
  0
SEQEND
  5
186E
  8
0
 62
     8
  0
LINE
  5
1790
  8
0
 10
734.48158
 20
676.458104
 30
0.0
 11
613.337797
 21
742.605729
 31
0.0
  0
CIRCLE
  5
1791
  8
0
 62
     8
 10
936.654196
 20
520.702071
 30
0.0
 40
24.412136
  0
POLYLINE
  5
1792
  8
0
 66
     1
 10
0.0
 20
0.0
 30
0.0
  0
VERTEX
  5
186F
  8
0
 10
868.259042
 20
609.900666
 30
0.0
 42
0.035401
  0
VERTEX
  5
1870
  8
0
 10
926.637852
 20
600.160063
 30
0.0
  0
SEQEND
  5
1871
  8
0
  0
CIRCLE
  5
1793
  8
0
 10
943.421747
 20
634.148527
 30
0.0
 40
27.148526
  0
LINE
  5
1794
  8
0
 10
823.968243
 20
590.098523
 30
0.0
 11
868.259042
 21
612.220755
 31
0.0
  0
LINE
  5
1795
  8
0
 10
823.968243
 20
583.049797
 30
0.0
 11
868.259042
 21
560.927564
 31
0.0
  0
LINE
  5
1796
  8
0
 10
847.008018
 20
607.000001
 30
0.0
 11
857.806599
 21
607.000001
 31
0.0
  0
LINE
  5
1797
  8
0
 10
823.968243
 20
590.098523
 30
0.0
 11
823.968243
 21
583.049797
 31
0.0
  0
LINE
  5
1798
  8
0
 10
868.259042
 20
607.000001
 30
0.0
 11
881.216119
 21
607.000001
 31
0.0
  0
LINE
  5
1799
  8
0
 10
868.259042
 20
612.220755
 30
0.0
 11
868.259042
 21
560.927564
 31
0.0
  0
CIRCLE
  5
179A
  8
0
 10
943.421747
 20
634.148527
 30
0.0
 40
18.925279
  0
LINE
  5
179B
  8
0
 10
1437.999999
 20
643.500001
 30
0.0
 11
1881.999999
 21
643.500001
 31
0.0
  0
CIRCLE
  5
179C
  8
0
 10
1400.529952
 20
685.369689
 30
0.0
 40
18.925279
  0
CIRCLE
  5
179D
  8
0
 10
1400.529952
 20
685.369689
 30
0.0
 40
27.148526
  0
LINE
  5
179E
  8
0
 10
1333.22563
 20
551.261433
 30
0.0
 11
1333.22563
 21
618.903691
 31
0.0
  0
LINE
  5
179F
  8
0
 10
1307.778764
 20
551.261433
 30
0.0
 11
1307.778764
 21
618.903691
 31
0.0
  0
LINE
  5
17A0
  8
0
 10
1333.22563
 20
607.000001
 30
0.0
 11
1363.059905
 21
607.000001
 31
0.0
  0
LINE
  5
17A1
  8
0
 10
1333.22563
 20
600.308788
 30
0.0
 11
1363.059905
 21
600.308788
 31
0.0
  0
LINE
  5
17A2
  8
0
 10
1333.22563
 20
572.839532
 30
0.0
 11
1363.059905
 21
572.839532
 31
0.0
  0
LINE
  5
17A3
  8
0
 10
1307.778764
 20
618.903691
 30
0.0
 11
1333.22563
 21
618.903691
 31
0.0
  0
LINE
  5
17A4
  8
0
 10
1363.059905
 20
658.221163
 30
0.0
 11
1437.999999
 21
658.221163
 31
0.0
  0
ENDBLK
  5
17A6
  8
0
  0
ENDSEC
  0
SECTION
  2
ENTITIES
  0
TEXT
  8
0
  40
30
  5
1873
  62
5
  72
0
  71
0
 10
1416.29
 20
-790.677
 30
0.000000
  1
3478921
  0
TEXT
  8
0
  40
30
  5
1874
  62
5
  72
0
  71
0
 10
2336.92
 20
-790.677
 30
0.000000
  1
P 300 T/G t.c.
  0
TEXT
  8
0
  40
30
  5
1875
  62
5
  72
0
  71
0
 10
2972.25
 20
-790.677
 30
0.000000
  1
1:1
  0
INSERT
  5
1502
  8
0
  2
A$C2406729D
 10
1659.81752
 20
-605.128941
 30
0.0
  0
LINE
  5
164D
  8
CONTORNO_PAGINA
 62
   150
 10
1147.716965
 20
1943.550655
 30
0.0
 11
3143.516965
 21
1943.550655
 31
0.0
  0
LINE
  5
164E
  8
CONTORNO_PAGINA
 62
     5
 10
1177.716965
 20
1913.550655
 30
0.0
 11
3113.516965
 21
1913.550655
 31
0.0
  0
LINE
  5
164F
  8
CONTORNO_PAGINA
 62
   150
 10
1147.716965
 20
-827.396794
 30
0.0
 11
1147.716965
 21
1943.550655
 31
0.0
  0
LINE
  5
1650
  8
CONTORNO_PAGINA
 62
     5
 10
1177.716965
 20
-797.396794
 30
0.0
 11
1177.716965
 21
1913.550655
 31
0.0
  0
LINE
  5
1651
  8
CONTORNO_PAGINA
 62
   150
 10
3143.516965
 20
-827.396794
 30
0.0
 11
3143.516965
 21
1943.550655
 31
0.0
  0
LINE
  5
1652
  8
CONTORNO_PAGINA
 62
     5
 10
3113.516965
 20
-797.396794
 30
0.0
 11
3113.516965
 21
1913.550655
 31
0.0
  0
LINE
  5
1653
  8
LAYER1
 62
   150
 10
1177.716965
 20
-685.375168
 30
0.0
 11
3113.516965
 21
-685.375168
 31
0.0
  0
LINE
  5
1654
  8
LAYER1
 62
     4
 10
1177.716965
 20
-630.082438
 30
0.0
 11
3113.516965
 21
-630.082438
 31
0.0
  0
TEXT
  8
0
  40
25
  5
1876
  62
5
  72
0
  71
0
 10
1752.87
 20
-675.290
 30
0.000000
  1
Denominazione commerciale
  7
SIMPLEX_INCLINATO
  0
LINE
  5
1656
  8
LAYER1
 62
     4
 10
1735.849892
 20
-797.396794
 30
0.0
 11
1735.849892
 21
-630.082438
 31
0.0
  0
TEXT
  8
0
  40
25
  5
1877
  62
5
  72
0
  71
0
 10
1194.74
 20
-675.290
 30
0.000000
  1
Codice n.
  7
SIMPLEX_INCLINATO
  0
LINE
  5
1658
  8
LAYER1
 62
     4
 10
2828.706969
 20
-797.396794
 30
0.0
 11
2828.706969
 21
-630.082438
 31
0.0
  0
TEXT
  8
0
  40
25
  5
1878
  62
5
  72
0
  71
0
 10
2845.73
 20
-675.290
 30
0.000000
  1
scala
  7
SIMPLEX_INCLINATO
  0
LINE
  5
165A
  8
CONTORNO_PAGINA
 62
   150
 10
1147.716965
 20
-827.396794
 30
0.0
 11
3143.516965
 21
-827.396794
 31
0.0
  0
LINE
  5
165B
  8
CONTORNO_PAGINA
 62
     5
 10
1177.716965
 20
-797.396794
 30
0.0
 11
3113.516965
 21
-797.396794
 31
0.0
  0
INSERT
  5
1729
  8
0
  2
A$C19764107
 10
1203.072359
 20
1025.231733
 30
0.0
  0
INSERT
  5
17A7
  8
0
  2
A$C46672182
 10
1203.072359
 20
199.925764
 30
0.0
  0
ENDSEC
  0
EOF
