  0
SECTION
  2
HEADER
  9
$ACADVER
  1
AC1009
  9
$INSBASE
 10
-4191.617541
 20
2081.771728
 30
0.0
  9
$EXTMIN
 10
0.0
 20
0.0
 30
0.0
  9
$EXTMAX
 10
3709.946276
 20
2586.448951
 30
0.0
  9
$LIMMIN
 10
0.0
 20
0.0
  9
$LIMMAX
 10
12.0
 20
9.0
  9
$ORTHOMODE
 70
     1
  9
$REGENMODE
 70
     1
  9
$FILLMODE
 70
     1
  9
$QTEXTMODE
 70
     0
  9
$MIRRTEXT
 70
     1
  9
$DRAGMODE
 70
     2
  9
$LTSCALE
 40
5.0
  9
$OSMODE
 70
   167
  9
$ATTMODE
 70
     1
  9
$TEXTSIZE
 40
0.2
  9
$TRACEWID
 40
0.05
  9
$TEXTSTYLE
  7
STANDARD
  9
$CLAYER
  8
0
  9
$CELTYPE
  6
BYLAYER
  9
$CECOLOR
 62
   256
  9
$DIMSCALE
 40
1.0
  9
$DIMASZ
 40
0.18
  9
$DIMEXO
 40
0.0625
  9
$DIMDLI
 40
0.38
  9
$DIMRND
 40
0.0
  9
$DIMDLE
 40
0.0
  9
$DIMEXE
 40
0.18
  9
$DIMTP
 40
0.0
  9
$DIMTM
 40
0.0
  9
$DIMTXT
 40
0.18
  9
$DIMCEN
 40
0.09
  9
$DIMTSZ
 40
0.0
  9
$DIMTOL
 70
     0
  9
$DIMLIM
 70
     0
  9
$DIMTIH
 70
     1
  9
$DIMTOH
 70
     1
  9
$DIMSE1
 70
     0
  9
$DIMSE2
 70
     0
  9
$DIMTAD
 70
     0
  9
$DIMZIN
 70
     0
  9
$DIMBLK
  1

  9
$DIMASO
 70
     1
  9
$DIMSHO
 70
     1
  9
$DIMPOST
  1

  9
$DIMAPOST
  1

  9
$DIMALT
 70
     0
  9
$DIMALTD
 70
     2
  9
$DIMALTF
 40
25.4
  9
$DIMLFAC
 40
1.0
  9
$DIMTOFL
 70
     0
  9
$DIMTVP
 40
0.0
  9
$DIMTIX
 70
     0
  9
$DIMSOXD
 70
     0
  9
$DIMSAH
 70
     0
  9
$DIMBLK1
  1

  9
$DIMBLK2
  1

  9
$DIMSTYLE
  2
STANDARD
  9
$DIMCLRD
 70
     0
  9
$DIMCLRE
 70
     0
  9
$DIMCLRT
 70
     0
  9
$DIMTFAC
 40
1.0
  9
$DIMGAP
 40
0.09
  9
$LUNITS
 70
     2
  9
$LUPREC
 70
     4
  9
$SKETCHINC
 40
0.1
  9
$FILLETRAD
 40
17.960167
  9
$AUNITS
 70
     0
  9
$AUPREC
 70
     0
  9
$MENU
  1
.
  9
$ELEVATION
 40
0.0
  9
$PELEVATION
 40
0.0
  9
$THICKNESS
 40
0.0
  9
$LIMCHECK
 70
     0
  9
$BLIPMODE
 70
     0
  9
$CHAMFERA
 40
0.0
  9
$CHAMFERB
 40
0.0
  9
$SKPOLY
 70
     1
  9
$TDCREATE
 40
2451199.890431
  9
$TDUPDATE
 40
2451956.703709
  9
$TDINDWG
 40
0.274267
  9
$TDUSRTIMER
 40
0.274267
  9
$USRTIMER
 70
     1
  9
$ANGBASE
 50
0.0
  9
$ANGDIR
 70
     0
  9
$PDMODE
 70
     0
  9
$PDSIZE
 40
0.0
  9
$PLINEWID
 40
0.0
  9
$COORDS
 70
     1
  9
$SPLFRAME
 70
     0
  9
$SPLINETYPE
 70
     6
  9
$SPLINESEGS
 70
     8
  9
$ATTDIA
 70
     0
  9
$ATTREQ
 70
     1
  9
$HANDLING
 70
     1
  9
$HANDSEED
  5
210
  9
$SURFTAB1
 70
     6
  9
$SURFTAB2
 70
     6
  9
$SURFTYPE
 70
     6
  9
$SURFU
 70
     6
  9
$SURFV
 70
     6
  9
$UCSNAME
  2

  9
$UCSORG
 10
0.0
 20
0.0
 30
0.0
  9
$UCSXDIR
 10
1.0
 20
0.0
 30
0.0
  9
$UCSYDIR
 10
0.0
 20
1.0
 30
0.0
  9
$PUCSNAME
  2

  9
$PUCSORG
 10
0.0
 20
0.0
 30
0.0
  9
$PUCSXDIR
 10
1.0
 20
0.0
 30
0.0
  9
$PUCSYDIR
 10
0.0
 20
1.0
 30
0.0
  9
$USERI1
 70
     0
  9
$USERI2
 70
     0
  9
$USERI3
 70
     0
  9
$USERI4
 70
     0
  9
$USERI5
 70
     0
  9
$USERR1
 40
0.0
  9
$USERR2
 40
0.0
  9
$USERR3
 40
0.0
  9
$USERR4
 40
0.0
  9
$USERR5
 40
0.0
  9
$WORLDVIEW
 70
     1
  9
$SHADEDGE
 70
     3
  9
$SHADEDIF
 70
    70
  9
$TILEMODE
 70
     1
  9
$MAXACTVP
 70
    48
  9
$PLIMCHECK
 70
     0
  9
$PEXTMIN
 10
1.000000E+020
 20
1.000000E+020
 30
1.000000E+020
  9
$PEXTMAX
 10
-1.000000E+020
 20
-1.000000E+020
 30
-1.000000E+020
  9
$PLIMMIN
 10
0.0
 20
0.0
  9
$PLIMMAX
 10
12.0
 20
9.0
  9
$UNITMODE
 70
     0
  9
$VISRETAIN
 70
     1
  9
$PLINEGEN
 70
     0
  9
$PSLTSCALE
 70
     1
  0
ENDSEC
  0
SECTION
  2
TABLES
  0
TABLE
  2
VPORT
 70
     3
  0
VPORT
  2
*ACTIVE
 70
     0
 10
0.0
 20
0.0
 11
1.0
 21
1.0
 12
1854.973138
 22
1293.224475
 13
0.0
 23
0.0
 14
0.5
 24
0.5
 15
0.5
 25
0.5
 16
0.0
 26
0.0
 36
1.0
 17
0.0
 27
0.0
 37
0.0
 40
2616.699815
 41
1.882813
 42
50.0
 43
0.0
 44
0.0
 50
0.0
 51
0.0
 71
     0
 72
   100
 73
     1
 74
     0
 75
     1
 76
     0
 77
     0
 78
     0
  0
ENDTAB
  0
TABLE
  2
LTYPE
 70
     1
  0
LTYPE
  2
CONTINUOUS
 70
     0
  3
Solid line
 72
    65
 73
     0
 40
0.0
  0
ENDTAB
  0
TABLE
  2
LAYER
 70
     3
  0
LAYER
  2
0
 70
     0
 62
     7
  6
CONTINUOUS
  0
LAYER
  2
CONTORNO_PAGINA
 70
     0
 62
     7
  6
CONTINUOUS
  0
LAYER
  2
LAYER1
 70
     0
 62
     7
  6
CONTINUOUS
  0
ENDTAB
  0
TABLE
  2
STYLE
 70
     2
  0
STYLE
  2
STANDARD
 70
     0
 40
0.0
 41
1.0
 50
0.0
 71
     0
 42
0.2
  3
txt
  4

  0
STYLE
  2
SIMPLEX_INCLINATO
 70
     0
 40
2.0
 41
1.0
 50
15.0
 71
     0
 42
89.952478
  3
simplex.shx
  4

  0
ENDTAB
  0
TABLE
  2
VIEW
 70
     0
  0
ENDTAB
  0
TABLE
  2
UCS
 70
     0
  0
ENDTAB
  0
TABLE
  2
APPID
 70
     1
  0
APPID
  2
ACAD
 70
     0
  0
ENDTAB
  0
TABLE
  2
DIMSTYLE
 70
     1
  0
DIMSTYLE
  2
STANDARD
 70
     0
  3

  4

  5

  6

  7

 40
1.0
 41
0.18
 42
0.0625
 43
0.38
 44
0.18
 45
0.0
 46
0.0
 47
0.0
 48
0.0
140
0.18
141
0.09
142
0.0
143
25.4
144
1.0
145
0.0
146
1.0
147
0.09
 71
     0
 72
     0
 73
     1
 74
     1
 75
     0
 76
     0
 77
     0
 78
     0
170
     0
171
     2
172
     0
173
     0
174
     0
175
     0
176
     0
177
     0
178
     0
  0
ENDTAB
  0
ENDSEC
  0
SECTION
  2
BLOCKS
  0
BLOCK
  8
0
  2
$MODEL_SPACE
 70
     0
 10
0.0
 20
0.0
 30
0.0
  3
$MODEL_SPACE
  1

  0
ENDBLK
  5
6
  8
0
  0
BLOCK
 67
     1
  8
0
  2
$PAPER_SPACE
 70
     0
 10
0.0
 20
0.0
 30
0.0
  3
$PAPER_SPACE
  1

  0
ENDBLK
  5
9
 67
     1
  8
0
  0
BLOCK
  8
0
  2
A$C4D2D64D7
 70
     0
 10
0.0
 20
0.0
 30
0.0
  3
A$C4D2D64D7
  1

  0
LINE
  5
DA
  8
0
 10
1069.999999
 20
693.000003
 30
0.0
 11
1545.999999
 21
693.000003
 31
0.0
  0
LINE
  5
DB
  8
0
 10
1069.999999
 20
357.000003
 30
0.0
 11
1545.999999
 21
357.000003
 31
0.0
  0
LINE
  5
DC
  8
0
 10
210.405358
 20
813.834715
 30
0.0
 11
-0.000001
 21
428.495092
 31
0.0
  0
POLYLINE
  5
DD
  8
0
 66
     1
 10
0.0
 20
0.0
 30
0.0
  0
VERTEX
  5
1E1
  8
0
 10
503.76792
 20
651.107841
 30
0.0
  0
VERTEX
  5
1E2
  8
0
 10
490.809623
 20
651.107841
 30
0.0
 42
0.755869
  0
VERTEX
  5
1E3
  8
0
 10
331.088253
 20
87.828795
 30
0.0
  0
SEQEND
  5
1E4
  8
0
  0
LINE
  5
DE
  8
0
 10
355.777897
 20
734.457564
 30
0.0
 11
145.372539
 21
349.117942
 31
0.0
  0
LINE
  5
DF
  8
0
 10
995.059906
 20
322.778841
 30
0.0
 11
995.059906
 21
727.221165
 31
0.0
  0
LINE
  5
E0
  8
0
 10
1069.999999
 20
322.778841
 30
0.0
 11
1069.999999
 21
727.221165
 31
0.0
  0
LINE
  5
E1
  8
0
 62
     8
 10
1018.725197
 20
322.778841
 30
0.0
 11
1018.725197
 21
727.221165
 31
0.0
  0
LINE
  5
E2
  8
0
 62
     8
 10
1050.045195
 20
322.778841
 30
0.0
 11
1050.045195
 21
727.221165
 31
0.0
  0
LINE
  5
E3
  8
0
 62
     8
 10
1163.118398
 20
357.000003
 30
0.0
 11
1163.118398
 21
693.000003
 31
0.0
  0
CIRCLE
  5
E4
  8
0
 62
     8
 10
513.311018
 20
236.577654
 30
0.0
 40
48.955556
  0
ARC
  5
E5
  8
0
 62
     1
 10
513.311018
 20
236.577654
 30
0.0
 40
201.154988
 50
19.607346
 51
205.057608
  0
LINE
  5
E6
  8
0
 10
462.812094
 20
176.654029
 30
0.0
 11
563.809941
 21
176.654029
 31
0.0
  0
LINE
  5
E7
  8
0
 62
     1
 10
331.088253
 20
50.035542
 30
0.0
 11
695.533783
 21
50.035542
 31
0.0
  0
LINE
  5
E8
  8
0
 10
331.088253
 20
0.000003
 30
0.0
 11
695.533783
 21
0.000003
 31
0.0
  0
LINE
  5
E9
  8
0
 10
462.812094
 20
306.360494
 30
0.0
 11
563.809941
 21
306.360494
 31
0.0
  0
ARC
  5
EA
  8
0
 10
513.311018
 20
236.577654
 30
0.0
 40
182.222765
 50
0.0
 51
180.0
  0
LINE
  5
EB
  8
0
 10
558.475941
 20
316.463088
 30
0.0
 11
542.846623
 21
316.463088
 31
0.0
  0
LINE
  5
EC
  8
0
 10
145.372539
 20
349.117942
 30
0.0
 11
-0.000001
 21
428.495092
 31
0.0
  0
LINE
  5
ED
  8
0
 10
331.088253
 20
236.577654
 30
0.0
 11
331.088253
 21
0.000003
 31
0.0
  0
LINE
  5
EE
  8
0
 10
466.64455
 20
221.782813
 30
0.0
 11
448.782832
 21
232.488632
 31
0.0
  0
CIRCLE
  5
EF
  8
0
 62
     8
 10
513.311018
 20
129.689556
 30
0.0
 40
10.408477
  0
CIRCLE
  5
F0
  8
0
 10
513.311018
 20
129.689556
 30
0.0
 40
13.557819
  0
LINE
  5
F1
  8
0
 10
462.812094
 20
224.079882
 30
0.0
 11
462.812094
 21
176.654029
 31
0.0
  0
LINE
  5
F2
  8
0
 10
502.425498
 20
176.654029
 30
0.0
 11
502.425498
 21
145.84584
 31
0.0
  0
LINE
  5
F3
  8
0
 10
524.196537
 20
176.654029
 30
0.0
 11
524.196537
 21
145.84584
 31
0.0
  0
LINE
  5
F4
  8
0
 10
526.868836
 20
145.84584
 30
0.0
 11
499.753199
 21
145.84584
 31
0.0
  0
LINE
  5
F5
  8
0
 10
499.753199
 20
145.84584
 30
0.0
 11
499.753199
 21
129.689556
 31
0.0
  0
LINE
  5
F6
  8
0
 10
526.868836
 20
145.84584
 30
0.0
 11
526.868836
 21
129.689556
 31
0.0
  0
LINE
  5
F7
  8
0
 10
468.146094
 20
316.463088
 30
0.0
 11
483.775412
 21
316.463088
 31
0.0
  0
LINE
  5
F8
  8
0
 10
462.812094
 20
306.360494
 30
0.0
 11
462.812094
 21
265.993387
 31
0.0
  0
ARC
  5
F9
  8
0
 10
458.216605
 20
248.228055
 30
0.0
 40
18.350082
 50
59.062698
 51
239.062698
  0
LINE
  5
FA
  8
0
 10
471.3301
 20
261.761956
 30
0.0
 11
467.650379
 21
263.967478
 31
0.0
  0
LINE
  5
FB
  8
0
 10
468.146094
 20
306.360494
 30
0.0
 11
468.146094
 21
316.463088
 31
0.0
  0
LINE
  5
FC
  8
0
 10
520.546622
 20
316.463088
 30
0.0
 11
504.917305
 21
316.463088
 31
0.0
  0
LINE
  5
FD
  8
0
 10
483.775412
 20
316.463088
 30
0.0
 11
483.775412
 21
306.360494
 31
0.0
  0
LINE
  5
FE
  8
0
 10
504.917305
 20
316.463088
 30
0.0
 11
504.917305
 21
306.360494
 31
0.0
  0
LINE
  5
FF
  8
0
 10
542.846623
 20
316.463088
 30
0.0
 11
542.846623
 21
306.360494
 31
0.0
  0
LINE
  5
100
  8
0
 10
520.546622
 20
306.360494
 30
0.0
 11
520.546622
 21
316.463088
 31
0.0
  0
LINE
  5
101
  8
0
 10
995.059906
 20
322.778841
 30
0.0
 11
1069.999999
 21
322.778841
 31
0.0
  0
LINE
  5
102
  8
0
 10
695.533783
 20
185.098701
 30
0.0
 11
695.533783
 21
0.000003
 31
0.0
  0
LINE
  5
103
  8
0
 10
723.212963
 20
398.892165
 30
0.0
 11
995.059906
 21
398.892165
 31
0.0
  0
LINE
  5
104
  8
0
 10
755.828049
 20
225.975632
 30
0.0
 11
977.830759
 21
225.975632
 31
0.0
  0
LINE
  5
105
  8
0
 10
755.828049
 20
235.821217
 30
0.0
 11
975.277205
 21
235.821217
 31
0.0
  0
LINE
  5
106
  8
0
 10
755.828049
 20
250.069928
 30
0.0
 11
755.828049
 21
204.624986
 31
0.0
  0
LINE
  5
107
  8
0
 10
722.160668
 20
250.069928
 30
0.0
 11
722.160668
 21
204.624986
 31
0.0
  0
LINE
  5
108
  8
0
 10
695.533783
 20
236.577654
 30
0.0
 11
695.533783
 21
194.944286
 31
0.0
  0
ARC
  5
109
  8
0
 62
     1
 10
513.311018
 20
236.577654
 30
0.0
 40
201.154988
 50
348.055061
 51
3.845946
  0
LINE
  5
10A
  8
0
 10
734.052811
 20
197.49784
 30
0.0
 11
734.052811
 21
231.379164
 31
0.0
  0
LINE
  5
10B
  8
0
 10
743.898396
 20
194.944286
 30
0.0
 11
743.898396
 21
231.379164
 31
0.0
  0
LINE
  5
10C
  8
0
 10
559.977485
 20
221.782813
 30
0.0
 11
577.839203
 21
232.488632
 31
0.0
  0
LINE
  5
10D
  8
0
 10
563.809941
 20
194.944286
 30
0.0
 11
731.499257
 21
194.944286
 31
0.0
  0
LINE
  5
10E
  8
0
 10
563.809941
 20
185.098701
 30
0.0
 11
734.052811
 21
185.098701
 31
0.0
  0
LINE
  5
10F
  8
0
 10
563.809941
 20
224.079882
 30
0.0
 11
563.809941
 21
176.654029
 31
0.0
  0
LINE
  5
110
  8
0
 10
729.079096
 20
185.098701
 30
0.0
 11
729.079096
 21
104.318559
 31
0.0
  0
LINE
  5
111
  8
0
 10
748.909621
 20
204.624986
 30
0.0
 11
748.909621
 21
104.318559
 31
0.0
  0
LINE
  5
112
  8
0
 10
695.533783
 20
41.550528
 30
0.0
 11
738.994359
 21
41.550528
 31
0.0
  0
LINE
  5
113
  8
0
 10
695.533783
 20
34.276711
 30
0.0
 11
738.994359
 21
34.276711
 31
0.0
  0
LINE
  5
114
  8
0
 10
735.35745
 20
104.318559
 30
0.0
 11
735.35745
 21
41.550528
 31
0.0
  0
LINE
  5
115
  8
0
 10
742.631267
 20
104.318559
 30
0.0
 11
742.631267
 21
37.91362
 31
0.0
  0
ARC
  5
116
  8
0
 10
738.994359
 20
37.91362
 30
0.0
 40
3.636908
 50
270.0
 51
90.0
  0
LINE
  5
117
  8
0
 10
729.079096
 20
104.318559
 30
0.0
 11
748.909621
 21
104.318559
 31
0.0
  0
LINE
  5
118
  8
0
 10
722.160668
 20
204.624986
 30
0.0
 11
734.052811
 21
204.624986
 31
0.0
  0
POLYLINE
  5
119
  8
0
 66
     1
 10
0.0
 20
0.0
 30
0.0
  0
VERTEX
  5
1E5
  8
0
 10
728.028713
 20
194.944286
 30
0.0
 42
0.004132
  0
VERTEX
  5
1E6
  8
0
 10
729.079096
 20
198.424167
 30
0.0
  0
SEQEND
  5
1E7
  8
0
  0
ARC
  5
11A
  8
0
 62
     1
 10
513.311018
 20
236.577654
 30
0.0
 40
201.154988
 50
334.942392
 51
345.17208
  0
POLYLINE
  5
11B
  8
0
 66
     1
 10
0.0
 20
0.0
 30
0.0
  0
VERTEX
  5
1E8
  8
0
 10
695.533783
 20
130.405219
 30
0.0
 42
0.070819
  0
VERTEX
  5
1E9
  8
0
 10
724.71088
 20
185.098701
 30
0.0
  0
SEQEND
  5
1EA
  8
0
  0
LINE
  5
11C
  8
0
 10
743.898396
 20
204.624986
 30
0.0
 11
755.828049
 21
204.624986
 31
0.0
  0
ARC
  5
11D
  8
0
 10
734.052811
 20
194.944286
 30
0.0
 40
9.845585
 50
270.0
 51
0.0
  0
ARC
  5
11E
  8
0
 10
731.499257
 20
197.49784
 30
0.0
 40
2.553554
 50
270.0
 51
0.0
  0
LINE
  5
11F
  8
0
 10
729.079096
 20
204.624986
 30
0.0
 11
729.079096
 21
194.944286
 31
0.0
  0
LINE
  5
120
  8
0
 10
563.809941
 20
306.360494
 30
0.0
 11
563.809941
 21
265.993387
 31
0.0
  0
ARC
  5
121
  8
0
 10
568.40543
 20
248.228055
 30
0.0
 40
18.350082
 50
300.937302
 51
120.937302
  0
LINE
  5
122
  8
0
 10
555.291935
 20
261.761956
 30
0.0
 11
558.971656
 21
263.967478
 31
0.0
  0
LINE
  5
123
  8
0
 10
558.475941
 20
306.360494
 30
0.0
 11
558.475941
 21
316.463088
 31
0.0
  0
POLYLINE
  5
124
  8
0
 66
     1
 10
0.0
 20
0.0
 30
0.0
  0
VERTEX
  5
1EB
  8
0
 10
730.846489
 20
315.652641
 30
0.0
 42
0.070187
  0
VERTEX
  5
1EC
  8
0
 10
707.210322
 20
372.365635
 30
0.0
 42
-0.576083
  0
VERTEX
  5
1ED
  8
0
 10
723.212963
 20
398.892165
 30
0.0
  0
SEQEND
  5
1EE
  8
0
  0
LINE
  5
125
  8
0
 10
702.801919
 20
315.652641
 30
0.0
 11
775.186798
 21
315.652641
 31
0.0
  0
LINE
  5
126
  8
0
 10
702.801919
 20
250.069928
 30
0.0
 11
775.186798
 21
250.069928
 31
0.0
  0
LINE
  5
127
  8
0
 10
702.801919
 20
315.652641
 30
0.0
 11
702.801919
 21
250.069928
 31
0.0
  0
LINE
  5
128
  8
0
 10
775.186798
 20
315.652641
 30
0.0
 11
775.186798
 21
250.069928
 31
0.0
  0
ARC
  5
129
  8
0
 10
738.975603
 20
231.379164
 30
0.0
 40
4.922792
 50
0.0
 51
180.0
  0
ARC
  5
12A
  8
0
 10
977.830759
 20
235.821217
 30
0.0
 40
9.845585
 50
270.0
 51
0.0
  0
LINE
  5
12B
  8
0
 10
972.946863
 20
235.821217
 30
0.0
 11
972.946863
 21
391.13192
 31
0.0
  0
LINE
  5
12C
  8
0
 10
977.830759
 20
238.374771
 30
0.0
 11
977.830759
 21
391.13192
 31
0.0
  0
LINE
  5
12D
  8
0
 10
947.451206
 20
238.374771
 30
0.0
 11
947.451206
 21
391.13192
 31
0.0
  0
LINE
  5
12E
  8
0
 10
957.296791
 20
235.821217
 30
0.0
 11
957.296791
 21
391.13192
 31
0.0
  0
LINE
  5
12F
  8
0
 10
963.101278
 20
238.374771
 30
0.0
 11
963.101278
 21
391.13192
 31
0.0
  0
LINE
  5
130
  8
0
 10
987.676344
 20
235.821217
 30
0.0
 11
987.676344
 21
391.13192
 31
0.0
  0
ARC
  5
131
  8
0
 10
975.277205
 20
238.374771
 30
0.0
 40
2.553554
 50
270.0
 51
0.0
  0
ARC
  5
132
  8
0
 10
968.024071
 20
391.13192
 30
0.0
 40
4.922792
 50
0.0
 51
180.0
  0
ARC
  5
133
  8
0
 10
952.373998
 20
391.13192
 30
0.0
 40
4.922792
 50
0.0
 51
180.0
  0
ARC
  5
134
  8
0
 10
982.753552
 20
391.13192
 30
0.0
 40
4.922792
 50
0.0
 51
180.0
  0
LINE
  5
135
  8
0
 10
487.692191
 20
610.115278
 30
0.0
 11
928.722536
 21
610.115278
 31
0.0
  0
LINE
  5
136
  8
0
 10
487.692191
 20
643.078385
 30
0.0
 11
928.722536
 21
643.078385
 31
0.0
  0
POLYLINE
  5
137
  8
0
 66
     1
 10
0.0
 20
0.0
 30
0.0
  0
VERTEX
  5
1EF
  8
0
 10
355.777897
 20
734.457564
 30
0.0
  0
VERTEX
  5
1F0
  8
0
 10
372.71167
 20
723.532516
 30
0.0
 42
0.119403
  0
VERTEX
  5
1F1
  8
0
 10
580.564461
 20
651.107841
 30
0.0
  0
SEQEND
  5
1F2
  8
0
  0
POLYLINE
  5
138
  8
0
 66
     1
 10
0.0
 20
0.0
 30
0.0
  0
VERTEX
  5
1F3
  8
0
 10
516.310851
 20
654.588638
 30
0.0
 42
0.035401
  0
VERTEX
  5
1F4
  8
0
 10
586.365424
 20
642.899916
 30
0.0
  0
SEQEND
  5
1F5
  8
0
  0
LINE
  5
139
  8
0
 10
355.777897
 20
734.457564
 30
0.0
 11
210.405358
 21
813.834715
 31
0.0
  0
POLYLINE
  5
13A
  8
0
 62
     8
 66
     1
 10
0.0
 20
0.0
 30
0.0
  0
VERTEX
  5
1F6
  8
0
 62
     8
 10
351.30687
 20
727.527494
 30
0.0
  0
VERTEX
  5
1F7
  8
0
 62
     8
 10
368.240643
 20
716.602445
 30
0.0
 42
0.078503
  0
VERTEX
  5
1F8
  8
0
 62
     8
 10
512.5694
 20
655.503977
 30
0.0
  0
SEQEND
  5
1F9
  8
0
 62
     8
  0
POLYLINE
  5
13B
  8
0
 66
     1
 10
0.0
 20
0.0
 30
0.0
 70
     1
  0
VERTEX
  5
1FA
  8
0
 10
380.106485
 20
473.060341
 30
0.0
  0
VERTEX
  5
1FB
  8
0
 10
390.858188
 20
491.682837
 30
0.0
  0
VERTEX
  5
1FC
  8
0
 10
380.106485
 20
510.305333
 30
0.0
  0
VERTEX
  5
1FD
  8
0
 10
358.603079
 20
510.305333
 30
0.0
  0
VERTEX
  5
1FE
  8
0
 10
347.851376
 20
491.682837
 30
0.0
  0
VERTEX
  5
1FF
  8
0
 10
358.603079
 20
473.060341
 30
0.0
  0
SEQEND
  5
200
  8
0
  0
POLYLINE
  5
13C
  8
0
 62
     8
 66
     1
 10
0.0
 20
0.0
 30
0.0
 70
     1
  0
VERTEX
  5
201
  8
0
 62
     8
 10
377.219734
 20
478.060341
 30
0.0
  0
VERTEX
  5
202
  8
0
 62
     8
 10
385.084685
 20
491.682837
 30
0.0
  0
VERTEX
  5
203
  8
0
 62
     8
 10
377.219734
 20
505.305333
 30
0.0
  0
VERTEX
  5
204
  8
0
 62
     8
 10
361.48983
 20
505.305333
 30
0.0
  0
VERTEX
  5
205
  8
0
 62
     8
 10
353.624879
 20
491.682837
 30
0.0
  0
VERTEX
  5
206
  8
0
 62
     8
 10
361.48983
 20
478.060341
 30
0.0
  0
SEQEND
  5
207
  8
0
 62
     8
  0
LINE
  5
13D
  8
0
 10
463.161892
 20
622.367596
 30
0.0
 11
487.692191
 21
610.115278
 31
0.0
  0
LINE
  5
13E
  8
0
 10
463.161892
 20
630.826067
 30
0.0
 11
487.692191
 21
643.078385
 31
0.0
  0
LINE
  5
13F
  8
0
 10
463.161892
 20
630.826067
 30
0.0
 11
463.161892
 21
622.367596
 31
0.0
  0
LINE
  5
140
  8
0
 10
490.809623
 20
651.107841
 30
0.0
 11
503.76792
 21
651.107841
 31
0.0
  0
CIRCLE
  5
141
  8
0
 10
1032.529952
 20
754.369691
 30
0.0
 40
27.148526
  0
CIRCLE
  5
142
  8
0
 10
1032.529952
 20
754.369691
 30
0.0
 40
18.925279
  0
LINE
  5
143
  8
0
 10
995.059906
 20
727.221165
 30
0.0
 11
1069.999999
 21
727.221165
 31
0.0
  0
LINE
  5
144
  8
0
 10
580.564461
 20
651.107841
 30
0.0
 11
928.722536
 21
651.107841
 31
0.0
  0
CIRCLE
  5
145
  8
0
 10
606.506097
 20
683.686072
 30
0.0
 40
32.578231
  0
CIRCLE
  5
146
  8
0
 10
598.385036
 20
547.550324
 30
0.0
 40
29.294563
  0
CIRCLE
  5
147
  8
0
 62
     8
 10
598.385036
 20
547.550324
 30
0.0
 40
24.294563
  0
CIRCLE
  5
148
  8
0
 10
606.506097
 20
683.686072
 30
0.0
 40
22.710334
  0
LINE
  5
149
  8
0
 10
928.722536
 20
584.22156
 30
0.0
 11
928.722536
 21
665.392268
 31
0.0
  0
LINE
  5
14A
  8
0
 10
959.258776
 20
584.22156
 30
0.0
 11
959.258776
 21
665.392268
 31
0.0
  0
LINE
  5
14B
  8
0
 10
959.258776
 20
643.078385
 30
0.0
 11
995.059906
 21
643.078385
 31
0.0
  0
LINE
  5
14C
  8
0
 10
959.258776
 20
651.107841
 30
0.0
 11
995.059906
 21
651.107841
 31
0.0
  0
LINE
  5
14D
  8
0
 10
959.258776
 20
610.115278
 30
0.0
 11
995.059906
 21
610.115278
 31
0.0
  0
LINE
  5
14E
  8
0
 10
928.722536
 20
665.392268
 30
0.0
 11
959.258776
 21
665.392268
 31
0.0
  0
LINE
  5
14F
  8
0
 10
1545.999999
 20
357.000003
 30
0.0
 11
1545.999999
 21
693.000003
 31
0.0
  0
ENDBLK
  5
151
  8
0
  0
BLOCK
  8
0
  2
A$C0ACC3EC1
 70
     0
 10
0.0
 20
0.0
 30
0.0
  3
A$C0ACC3EC1
  1

  0
LINE
  5
1F
  8
0
 10
1069.999999
 20
273.999999
 30
0.0
 11
1545.999999
 21
273.999999
 31
0.0
  0
LINE
  5
20
  8
0
 10
1069.999999
 20
609.999999
 30
0.0
 11
1545.999999
 21
609.999999
 31
0.0
  0
LINE
  5
21
  8
0
 10
456.711956
 20
16.722691
 30
0.0
 11
578.262674
 21
16.722691
 31
0.0
  0
LINE
  5
22
  8
0
 10
460.888253
 20
-0.000001
 30
0.0
 11
574.086377
 21
-0.000001
 31
0.0
  0
LINE
  5
23
  8
0
 10
331.088253
 20
116.847377
 30
0.0
 11
695.533783
 21
116.847377
 31
0.0
  0
ARC
  5
24
  8
0
 10
517.487315
 20
270.190158
 30
0.0
 40
192.212867
 50
251.567466
 51
288.432534
  0
ARC
  5
25
  8
0
 10
517.487315
 20
-127.923631
 30
0.0
 40
192.212867
 50
71.567466
 51
108.432534
  0
LINE
  5
26
  8
0
 10
487.692191
 20
305.405429
 30
0.0
 11
928.722536
 21
305.405429
 31
0.0
  0
LINE
  5
27
  8
0
 10
487.692191
 20
338.368537
 30
0.0
 11
928.722536
 21
338.368537
 31
0.0
  0
LINE
  5
28
  8
0
 62
     1
 10
355.777897
 20
193.160883
 30
0.0
 11
695.533783
 21
193.160883
 31
0.0
  0
LINE
  5
29
  8
0
 10
374.171873
 20
591.355302
 30
0.0
 11
656.450162
 21
591.355302
 31
0.0
  0
LINE
  5
2A
  8
0
 10
434.249248
 20
949.999999
 30
0.0
 11
592.372787
 21
949.999999
 31
0.0
  0
LINE
  5
2B
  8
0
 10
394.548159
 20
854.003111
 30
0.0
 11
632.073876
 21
854.003111
 31
0.0
  0
LINE
  5
2C
  8
0
 62
     8
 10
406.607586
 20
881.358852
 30
0.0
 11
620.014449
 21
881.358852
 31
0.0
  0
LINE
  5
2D
  8
0
 10
414.658325
 20
854.003111
 30
0.0
 11
611.96371
 21
854.003111
 31
0.0
  0
LINE
  5
2E
  8
0
 10
487.692191
 20
545.631461
 30
0.0
 11
928.722536
 21
545.631461
 31
0.0
  0
LINE
  5
2F
  8
0
 10
487.692191
 20
578.594569
 30
0.0
 11
928.722536
 21
578.594569
 31
0.0
  0
LINE
  5
30
  8
0
 62
     8
 10
451.048149
 20
607.693384
 30
0.0
 11
451.048149
 21
838.665028
 31
0.0
  0
LINE
  5
31
  8
0
 62
     8
 10
432.853237
 20
607.693384
 30
0.0
 11
432.853237
 21
838.665028
 31
0.0
  0
LINE
  5
32
  8
0
 62
     8
 10
487.437974
 20
607.693384
 30
0.0
 11
487.437974
 21
838.665028
 31
0.0
  0
LINE
  5
33
  8
0
 62
     8
 10
469.243062
 20
607.693384
 30
0.0
 11
469.243062
 21
838.665028
 31
0.0
  0
LINE
  5
34
  8
0
 10
394.548159
 20
616.122738
 30
0.0
 11
394.548159
 21
841.735674
 31
0.0
  0
LINE
  5
35
  8
0
 62
     8
 10
414.658325
 20
591.355302
 30
0.0
 11
414.658325
 21
854.003111
 31
0.0
  0
LINE
  5
36
  8
0
 62
     8
 10
542.022711
 20
607.693384
 30
0.0
 11
542.022711
 21
838.665028
 31
0.0
  0
LINE
  5
37
  8
0
 62
     8
 10
523.827799
 20
607.693384
 30
0.0
 11
523.827799
 21
838.665028
 31
0.0
  0
LINE
  5
38
  8
0
 62
     8
 10
505.632887
 20
607.693384
 30
0.0
 11
505.632887
 21
838.665028
 31
0.0
  0
LINE
  5
39
  8
0
 10
-0.000001
 20
682.835284
 30
0.0
 11
355.777897
 21
682.835284
 31
0.0
  0
LINE
  5
3A
  8
0
 10
-0.000001
 20
186.980391
 30
0.0
 11
355.777897
 21
186.980391
 31
0.0
  0
LINE
  5
3B
  8
0
 10
52.515572
 20
216.572464
 30
0.0
 11
187.844184
 21
216.572464
 31
0.0
  0
LINE
  5
3C
  8
0
 10
52.515572
 20
360.497514
 30
0.0
 11
187.844184
 21
360.497514
 31
0.0
  0
LINE
  5
3D
  8
0
 10
-0.000001
 20
186.980391
 30
0.0
 11
-0.000001
 21
682.835284
 31
0.0
  0
LINE
  5
3E
  8
0
 10
10.099147
 20
186.980391
 30
0.0
 11
10.099147
 21
360.497514
 31
0.0
  0
LINE
  5
3F
  8
0
 10
38.376764
 20
216.572464
 30
0.0
 11
38.376764
 21
360.497514
 31
0.0
  0
LINE
  5
40
  8
0
 10
52.515572
 20
216.572464
 30
0.0
 11
52.515572
 21
360.497514
 31
0.0
  0
LINE
  5
41
  8
0
 10
10.099147
 20
216.572464
 30
0.0
 11
38.376764
 21
216.572464
 31
0.0
  0
LINE
  5
42
  8
0
 10
10.099147
 20
360.497514
 30
0.0
 11
38.376764
 21
360.497514
 31
0.0
  0
LINE
  5
43
  8
0
 10
419.927642
 20
568.107837
 30
0.0
 11
419.927642
 21
315.892161
 31
0.0
  0
LINE
  5
44
  8
0
 10
355.777897
 20
186.980391
 30
0.0
 11
355.777897
 21
682.835284
 31
0.0
  0
LINE
  5
45
  8
0
 62
     1
 10
210.405358
 20
186.980391
 30
0.0
 11
210.405358
 21
682.835284
 31
0.0
  0
LINE
  5
46
  8
0
 62
     8
 10
158.928888
 20
348.391673
 30
0.0
 11
177.688899
 21
348.391673
 31
0.0
  0
LINE
  5
47
  8
0
 62
     8
 10
158.928888
 20
295.933004
 30
0.0
 11
177.688899
 21
295.933004
 31
0.0
  0
LINE
  5
48
  8
0
 62
     8
 10
167.336375
 20
250.872364
 30
0.0
 11
177.688899
 21
250.872364
 31
0.0
  0
LINE
  5
49
  8
0
 62
     8
 10
167.336375
 20
224.64303
 30
0.0
 11
177.688899
 21
224.64303
 31
0.0
  0
LINE
  5
4A
  8
0
 62
     8
 10
104.173046
 20
250.872364
 30
0.0
 11
114.52557
 21
250.872364
 31
0.0
  0
LINE
  5
4B
  8
0
 62
     8
 10
104.173046
 20
224.64303
 30
0.0
 11
114.52557
 21
224.64303
 31
0.0
  0
LINE
  5
4C
  8
0
 62
     8
 10
104.173046
 20
224.64303
 30
0.0
 11
104.173046
 21
250.872364
 31
0.0
  0
LINE
  5
4D
  8
0
 62
     8
 10
82.572357
 20
224.64303
 30
0.0
 11
82.572357
 21
250.872364
 31
0.0
  0
LINE
  5
4E
  8
0
 62
     8
 10
72.219833
 20
224.64303
 30
0.0
 11
72.219833
 21
250.872364
 31
0.0
  0
LINE
  5
4F
  8
0
 62
     8
 10
72.219833
 20
224.64303
 30
0.0
 11
82.572357
 21
224.64303
 31
0.0
  0
LINE
  5
50
  8
0
 62
     8
 10
72.219833
 20
250.872364
 30
0.0
 11
82.572357
 21
250.872364
 31
0.0
  0
LINE
  5
51
  8
0
 62
     8
 10
167.336375
 20
224.64303
 30
0.0
 11
167.336375
 21
250.872364
 31
0.0
  0
LINE
  5
52
  8
0
 62
     8
 10
145.735686
 20
224.64303
 30
0.0
 11
145.735686
 21
250.872364
 31
0.0
  0
LINE
  5
53
  8
0
 62
     8
 10
135.383162
 20
224.64303
 30
0.0
 11
135.383162
 21
250.872364
 31
0.0
  0
LINE
  5
54
  8
0
 62
     8
 10
114.52557
 20
224.64303
 30
0.0
 11
114.52557
 21
250.872364
 31
0.0
  0
LINE
  5
55
  8
0
 62
     8
 10
135.383162
 20
224.64303
 30
0.0
 11
145.735686
 21
224.64303
 31
0.0
  0
LINE
  5
56
  8
0
 62
     8
 10
135.383162
 20
250.872364
 30
0.0
 11
145.735686
 21
250.872364
 31
0.0
  0
LINE
  5
57
  8
0
 62
     8
 10
95.765559
 20
348.391673
 30
0.0
 11
114.52557
 21
348.391673
 31
0.0
  0
LINE
  5
58
  8
0
 62
     8
 10
95.765559
 20
295.933004
 30
0.0
 11
114.52557
 21
295.933004
 31
0.0
  0
LINE
  5
59
  8
0
 62
     8
 10
95.765559
 20
295.933004
 30
0.0
 11
95.765559
 21
348.391673
 31
0.0
  0
LINE
  5
5A
  8
0
 62
     8
 10
82.572357
 20
295.933004
 30
0.0
 11
82.572357
 21
348.391673
 31
0.0
  0
LINE
  5
5B
  8
0
 62
     8
 10
63.812346
 20
295.933004
 30
0.0
 11
63.812346
 21
348.391673
 31
0.0
  0
LINE
  5
5C
  8
0
 62
     8
 10
63.812346
 20
295.933004
 30
0.0
 11
82.572357
 21
295.933004
 31
0.0
  0
LINE
  5
5D
  8
0
 62
     8
 10
63.812346
 20
348.391673
 30
0.0
 11
82.572357
 21
348.391673
 31
0.0
  0
LINE
  5
5E
  8
0
 62
     8
 10
114.52557
 20
295.933004
 30
0.0
 11
114.52557
 21
348.391673
 31
0.0
  0
LINE
  5
5F
  8
0
 62
     8
 10
158.928888
 20
295.933004
 30
0.0
 11
158.928888
 21
348.391673
 31
0.0
  0
LINE
  5
60
  8
0
 62
     8
 10
126.975675
 20
295.933004
 30
0.0
 11
126.975675
 21
348.391673
 31
0.0
  0
LINE
  5
61
  8
0
 62
     8
 10
145.735686
 20
295.933004
 30
0.0
 11
145.735686
 21
348.391673
 31
0.0
  0
LINE
  5
62
  8
0
 62
     8
 10
126.975675
 20
295.933004
 30
0.0
 11
145.735686
 21
295.933004
 31
0.0
  0
LINE
  5
63
  8
0
 62
     8
 10
126.975675
 20
348.391673
 30
0.0
 11
145.735686
 21
348.391673
 31
0.0
  0
LINE
  5
64
  8
0
 10
187.844184
 20
216.572464
 30
0.0
 11
187.844184
 21
360.497514
 31
0.0
  0
LINE
  5
65
  8
0
 62
     8
 10
177.688899
 20
224.64303
 30
0.0
 11
177.688899
 21
250.872364
 31
0.0
  0
LINE
  5
66
  8
0
 62
     8
 10
177.688899
 20
295.933004
 30
0.0
 11
177.688899
 21
348.391673
 31
0.0
  0
LINE
  5
67
  8
0
 10
331.088253
 20
186.980391
 30
0.0
 11
331.088253
 21
116.847377
 31
0.0
  0
LINE
  5
68
  8
0
 10
429.740811
 20
54.428068
 30
0.0
 11
429.740811
 21
87.838459
 31
0.0
  0
LINE
  5
69
  8
0
 62
     8
 10
471.999075
 20
-0.000001
 30
0.0
 11
471.999075
 21
16.722691
 31
0.0
  0
LINE
  5
6A
  8
0
 10
460.888253
 20
-0.000001
 30
0.0
 11
460.888253
 21
16.722691
 31
0.0
  0
LINE
  5
6B
  8
0
 10
456.711956
 20
54.428068
 30
0.0
 11
429.740811
 21
54.428068
 31
0.0
  0
LINE
  5
6C
  8
0
 10
456.711956
 20
16.722691
 30
0.0
 11
456.711956
 21
54.428068
 31
0.0
  0
LINE
  5
6D
  8
0
 62
     8
 10
486.848137
 20
-0.000001
 30
0.0
 11
486.848137
 21
16.722691
 31
0.0
  0
LINE
  5
6E
  8
0
 62
     8
 10
531.395321
 20
-0.000001
 30
0.0
 11
531.395321
 21
16.722691
 31
0.0
  0
LINE
  5
6F
  8
0
 62
     8
 10
501.697198
 20
-0.000001
 30
0.0
 11
501.697198
 21
16.722691
 31
0.0
  0
LINE
  5
70
  8
0
 62
     8
 10
516.54626
 20
-0.000001
 30
0.0
 11
516.54626
 21
16.722691
 31
0.0
  0
LINE
  5
71
  8
0
 10
456.711956
 20
87.838459
 30
0.0
 11
429.740811
 21
87.838459
 31
0.0
  0
LINE
  5
72
  8
0
 10
456.711956
 20
87.838459
 30
0.0
 11
456.711956
 21
116.847377
 31
0.0
  0
LINE
  5
73
  8
0
 10
355.777897
 20
315.892161
 30
0.0
 11
466.696763
 21
315.892161
 31
0.0
  0
LINE
  5
74
  8
0
 10
463.161892
 20
317.657747
 30
0.0
 11
487.692191
 21
305.405429
 31
0.0
  0
LINE
  5
75
  8
0
 10
463.161892
 20
326.116219
 30
0.0
 11
487.692191
 21
338.368537
 31
0.0
  0
LINE
  5
76
  8
0
 10
463.161892
 20
326.116219
 30
0.0
 11
463.161892
 21
317.657747
 31
0.0
  0
LINE
  5
77
  8
0
 10
394.548159
 20
616.122738
 30
0.0
 11
414.658325
 21
591.355302
 31
0.0
  0
LINE
  5
78
  8
0
 10
355.777897
 20
568.107837
 30
0.0
 11
466.696763
 21
568.107837
 31
0.0
  0
LINE
  5
79
  8
0
 10
374.171873
 20
591.355302
 30
0.0
 11
374.171873
 21
568.107837
 31
0.0
  0
LINE
  5
7A
  8
0
 10
463.161892
 20
566.342251
 30
0.0
 11
487.692191
 21
578.594569
 31
0.0
  0
LINE
  5
7B
  8
0
 10
463.161892
 20
557.883779
 30
0.0
 11
487.692191
 21
545.631461
 31
0.0
  0
LINE
  5
7C
  8
0
 10
463.161892
 20
557.883779
 30
0.0
 11
463.161892
 21
566.342251
 31
0.0
  0
ARC
  5
7D
  8
0
 10
434.249248
 20
933.999999
 30
0.0
 40
16.0
 50
90.0
 51
154.235548
  0
ARC
  5
7E
  8
0
 10
740.253854
 20
769.805196
 30
0.0
 40
363.2593
 50
151.891039
 51
161.70466
  0
LINE
  5
7F
  8
0
 10
394.548159
 20
854.003111
 30
0.0
 11
394.548159
 21
878.815179
 31
0.0
  0
LINE
  5
80
  8
0
 10
394.548159
 20
841.735674
 30
0.0
 11
414.658325
 21
854.003111
 31
0.0
  0
ARC
  5
81
  8
0
 10
410.548159
 20
878.815179
 30
0.0
 40
16.0
 50
161.70466
 51
180.0
  0
LINE
  5
82
  8
0
 62
     8
 10
578.412536
 20
607.693384
 30
0.0
 11
578.412536
 21
838.665028
 31
0.0
  0
LINE
  5
83
  8
0
 62
     8
 10
560.217624
 20
607.693384
 30
0.0
 11
560.217624
 21
838.665028
 31
0.0
  0
LINE
  5
84
  8
0
 62
     8
 10
596.607449
 20
607.693384
 30
0.0
 11
596.607449
 21
838.665028
 31
0.0
  0
LINE
  5
85
  8
0
 10
632.073876
 20
616.122738
 30
0.0
 11
632.073876
 21
841.735674
 31
0.0
  0
LINE
  5
86
  8
0
 62
     8
 10
611.96371
 20
591.355302
 30
0.0
 11
611.96371
 21
854.003111
 31
0.0
  0
LINE
  5
87
  8
0
 10
995.059906
 20
239.778837
 30
0.0
 11
1069.999999
 21
239.778837
 31
0.0
  0
LINE
  5
88
  8
0
 10
1005.381427
 20
433.505683
 30
0.0
 11
1059.678478
 21
433.505683
 31
0.0
  0
LINE
  5
89
  8
0
 10
1005.381427
 20
452.267079
 30
0.0
 11
1059.678478
 21
452.267079
 31
0.0
  0
LINE
  5
8A
  8
0
 10
995.059906
 20
644.221161
 30
0.0
 11
1069.999999
 21
644.221161
 31
0.0
  0
LINE
  5
8B
  8
0
 10
995.059906
 20
239.778837
 30
0.0
 11
995.059906
 21
644.221161
 31
0.0
  0
LINE
  5
8C
  8
0
 62
     8
 10
1018.725197
 20
239.778837
 30
0.0
 11
1018.725197
 21
433.505683
 31
0.0
  0
LINE
  5
8D
  8
0
 10
775.186798
 20
209.071848
 30
0.0
 11
947.451206
 21
209.071848
 31
0.0
  0
LINE
  5
8E
  8
0
 10
775.186798
 20
199.226263
 30
0.0
 11
947.451206
 21
199.226263
 31
0.0
  0
LINE
  5
8F
  8
0
 10
775.186798
 20
179.981748
 30
0.0
 11
947.451206
 21
179.981748
 31
0.0
  0
LINE
  5
90
  8
0
 10
775.186798
 20
170.136163
 30
0.0
 11
947.451206
 21
170.136163
 31
0.0
  0
LINE
  5
91
  8
0
 10
775.186798
 20
149.679563
 30
0.0
 11
947.451206
 21
149.679563
 31
0.0
  0
LINE
  5
92
  8
0
 10
775.186798
 20
139.833978
 30
0.0
 11
952.373998
 21
139.833978
 31
0.0
  0
LINE
  5
93
  8
0
 10
695.533783
 20
305.405429
 30
0.0
 11
695.533783
 21
116.847377
 31
0.0
  0
LINE
  5
94
  8
0
 10
702.801919
 20
247.563299
 30
0.0
 11
702.801919
 21
116.461014
 31
0.0
  0
LINE
  5
95
  8
0
 10
775.186798
 20
247.563299
 30
0.0
 11
775.186798
 21
116.461014
 31
0.0
  0
LINE
  5
96
  8
0
 10
578.262674
 20
37.363698
 30
0.0
 11
731.499257
 21
37.363698
 31
0.0
  0
LINE
  5
97
  8
0
 10
578.262674
 20
27.518113
 30
0.0
 11
734.052811
 21
27.518113
 31
0.0
  0
LINE
  5
98
  8
0
 10
604.946769
 20
54.428068
 30
0.0
 11
604.946769
 21
87.838459
 31
0.0
  0
LINE
  5
99
  8
0
 10
574.086377
 20
-0.000001
 30
0.0
 11
574.086377
 21
16.722691
 31
0.0
  0
LINE
  5
9A
  8
0
 62
     8
 10
561.093444
 20
-0.000001
 30
0.0
 11
561.093444
 21
16.722691
 31
0.0
  0
LINE
  5
9B
  8
0
 62
     8
 10
546.244382
 20
-0.000001
 30
0.0
 11
546.244382
 21
16.722691
 31
0.0
  0
LINE
  5
9C
  8
0
 10
578.262674
 20
16.722691
 30
0.0
 11
578.262674
 21
54.428068
 31
0.0
  0
LINE
  5
9D
  8
0
 10
577.975624
 20
54.428068
 30
0.0
 11
604.946769
 21
54.428068
 31
0.0
  0
LINE
  5
9E
  8
0
 10
578.262674
 20
87.838459
 30
0.0
 11
578.262674
 21
116.847377
 31
0.0
  0
LINE
  5
9F
  8
0
 10
577.975624
 20
87.838459
 30
0.0
 11
604.946769
 21
87.838459
 31
0.0
  0
LINE
  5
A0
  8
0
 10
734.052811
 20
39.917252
 30
0.0
 11
734.052811
 21
116.461014
 31
0.0
  0
LINE
  5
A1
  8
0
 10
743.898396
 20
37.363698
 30
0.0
 11
743.898396
 21
116.461014
 31
0.0
  0
ARC
  5
A2
  8
0
 10
734.052811
 20
37.363698
 30
0.0
 40
9.845585
 50
270.0
 51
0.0
  0
ARC
  5
A3
  8
0
 10
731.499257
 20
39.917252
 30
0.0
 40
2.553554
 50
270.0
 51
0.0
  0
LINE
  5
A4
  8
0
 10
702.801919
 20
116.461014
 30
0.0
 11
775.186798
 21
116.461014
 31
0.0
  0
LINE
  5
A5
  8
0
 10
573.927866
 20
358.705054
 30
0.0
 11
639.084328
 21
358.705054
 31
0.0
  0
LINE
  5
A6
  8
0
 10
573.927866
 20
381.218729
 30
0.0
 11
639.084328
 21
381.218729
 31
0.0
  0
LINE
  5
A7
  8
0
 10
573.927866
 20
358.705054
 30
0.0
 11
573.927866
 21
381.218729
 31
0.0
  0
LINE
  5
A8
  8
0
 10
639.084328
 20
358.705054
 30
0.0
 11
639.084328
 21
381.218729
 31
0.0
  0
LINE
  5
A9
  8
0
 10
702.801919
 20
247.563299
 30
0.0
 11
775.186798
 21
247.563299
 31
0.0
  0
ARC
  5
AA
  8
0
 10
968.024071
 20
175.058956
 30
0.0
 40
4.922792
 50
180.0
 51
0.0
  0
LINE
  5
AB
  8
0
 10
957.296791
 20
144.756771
 30
0.0
 11
957.296791
 21
285.675973
 31
0.0
  0
LINE
  5
AC
  8
0
 10
947.451206
 20
144.756771
 30
0.0
 11
947.451206
 21
285.675973
 31
0.0
  0
LINE
  5
AD
  8
0
 10
957.296791
 20
170.136163
 30
0.0
 11
968.024071
 21
170.136163
 31
0.0
  0
ARC
  5
AE
  8
0
 10
952.373998
 20
144.756771
 30
0.0
 40
4.922792
 50
180.0
 51
0.0
  0
LINE
  5
AF
  8
0
 10
977.830759
 20
204.149056
 30
0.0
 11
977.830759
 21
305.405429
 31
0.0
  0
LINE
  5
B0
  8
0
 10
972.946863
 20
175.058956
 30
0.0
 11
972.946863
 21
305.405429
 31
0.0
  0
LINE
  5
B1
  8
0
 10
963.101278
 20
175.058956
 30
0.0
 11
963.101278
 21
305.405429
 31
0.0
  0
LINE
  5
B2
  8
0
 10
987.676344
 20
204.149056
 30
0.0
 11
987.676344
 21
305.405429
 31
0.0
  0
LINE
  5
B3
  8
0
 10
972.946863
 20
209.071848
 30
0.0
 11
977.830759
 21
209.071848
 31
0.0
  0
LINE
  5
B4
  8
0
 10
972.946863
 20
199.226263
 30
0.0
 11
982.753552
 21
199.226263
 31
0.0
  0
LINE
  5
B5
  8
0
 10
957.296791
 20
199.226263
 30
0.0
 11
963.101278
 21
199.226263
 31
0.0
  0
LINE
  5
B6
  8
0
 10
957.296791
 20
209.071848
 30
0.0
 11
963.101278
 21
209.071848
 31
0.0
  0
LINE
  5
B7
  8
0
 10
957.296791
 20
179.981748
 30
0.0
 11
963.101278
 21
179.981748
 31
0.0
  0
ARC
  5
B8
  8
0
 10
982.753552
 20
204.149056
 30
0.0
 40
4.922792
 50
180.0
 51
0.0
  0
LINE
  5
B9
  8
0
 10
959.258776
 20
338.368537
 30
0.0
 11
995.059906
 21
338.368537
 31
0.0
  0
LINE
  5
BA
  8
0
 10
959.258776
 20
305.405429
 30
0.0
 11
995.059906
 21
305.405429
 31
0.0
  0
LINE
  5
BB
  8
0
 10
959.258776
 20
285.675973
 30
0.0
 11
959.258776
 21
382.63751
 31
0.0
  0
LINE
  5
BC
  8
0
 10
928.722536
 20
285.675973
 30
0.0
 11
928.722536
 21
382.63751
 31
0.0
  0
LINE
  5
BD
  8
0
 10
928.722536
 20
285.675973
 30
0.0
 11
959.258776
 21
285.675973
 31
0.0
  0
LINE
  5
BE
  8
0
 10
632.073876
 20
616.122738
 30
0.0
 11
611.96371
 21
591.355302
 31
0.0
  0
LINE
  5
BF
  8
0
 10
639.084328
 20
488.596945
 30
0.0
 11
639.084328
 21
511.110621
 31
0.0
  0
LINE
  5
C0
  8
0
 10
573.927866
 20
488.596945
 30
0.0
 11
573.927866
 21
511.110621
 31
0.0
  0
LINE
  5
C1
  8
0
 10
573.927866
 20
488.596945
 30
0.0
 11
639.084328
 21
488.596945
 31
0.0
  0
LINE
  5
C2
  8
0
 10
573.927866
 20
511.110621
 30
0.0
 11
639.084328
 21
511.110621
 31
0.0
  0
LINE
  5
C3
  8
0
 10
656.450162
 20
591.355302
 30
0.0
 11
656.450162
 21
578.594569
 31
0.0
  0
LINE
  5
C4
  8
0
 62
     8
 10
1018.725197
 20
452.267079
 30
0.0
 11
1018.725197
 21
644.221161
 31
0.0
  0
LINE
  5
C5
  8
0
 10
1005.381427
 20
433.505683
 30
0.0
 11
1005.381427
 21
452.267079
 31
0.0
  0
LINE
  5
C6
  8
0
 10
959.258776
 20
578.594569
 30
0.0
 11
995.059906
 21
578.594569
 31
0.0
  0
LINE
  5
C7
  8
0
 10
959.258776
 20
545.631461
 30
0.0
 11
995.059906
 21
545.631461
 31
0.0
  0
LINE
  5
C8
  8
0
 10
928.722536
 20
598.324025
 30
0.0
 11
928.722536
 21
501.362488
 31
0.0
  0
LINE
  5
C9
  8
0
 10
959.258776
 20
598.324025
 30
0.0
 11
959.258776
 21
501.362488
 31
0.0
  0
LINE
  5
CA
  8
0
 10
928.722536
 20
598.324025
 30
0.0
 11
959.258776
 21
598.324025
 31
0.0
  0
LINE
  5
CB
  8
0
 62
     8
 10
1163.118398
 20
273.999999
 30
0.0
 11
1163.118398
 21
609.999999
 31
0.0
  0
LINE
  5
CC
  8
0
 10
1069.999999
 20
239.778837
 30
0.0
 11
1069.999999
 21
644.221161
 31
0.0
  0
LINE
  5
CD
  8
0
 62
     8
 10
1050.045195
 20
239.778837
 30
0.0
 11
1050.045195
 21
433.505683
 31
0.0
  0
LINE
  5
CE
  8
0
 62
     8
 10
1050.045195
 20
452.267079
 30
0.0
 11
1050.045195
 21
644.221161
 31
0.0
  0
LINE
  5
CF
  8
0
 10
1059.678478
 20
433.505683
 30
0.0
 11
1059.678478
 21
452.267079
 31
0.0
  0
ARC
  5
D0
  8
0
 10
286.368181
 20
769.805196
 30
0.0
 40
363.2593
 50
18.29534
 51
28.108961
  0
LINE
  5
D1
  8
0
 10
632.073876
 20
854.003111
 30
0.0
 11
632.073876
 21
878.815179
 31
0.0
  0
LINE
  5
D2
  8
0
 10
632.073876
 20
841.735674
 30
0.0
 11
611.96371
 21
854.003111
 31
0.0
  0
ARC
  5
D3
  8
0
 10
616.073876
 20
878.815179
 30
0.0
 40
16.0
 50
0.0
 51
18.29534
  0
ARC
  5
D4
  8
0
 10
592.372787
 20
933.999999
 30
0.0
 40
16.0
 50
25.764452
 51
90.0
  0
LINE
  5
D5
  8
0
 10
1545.999999
 20
273.999999
 30
0.0
 11
1545.999999
 21
609.999999
 31
0.0
  0
ENDBLK
  5
D7
  8
0
  0
BLOCK
  8
0
  2
A$C2B511E84
 70
     0
 10
0.0
 20
0.0
 30
0.0
  3
A$C2B511E84
  1

  0
LINE
  5
15B
  8
0
 10
755.927444
 20
370.670142
 30
0.0
 11
755.927444
 21
792.282515
 31
0.0
  0
LINE
  5
15C
  8
0
 10
260.072551
 20
370.670142
 30
0.0
 11
260.072551
 21
792.282515
 31
0.0
  0
ARC
  5
15D
  8
0
 10
507.999998
 20
165.234765
 30
0.0
 40
130.470118
 50
180.0
 51
0.0
  0
LINE
  5
15E
  8
0
 10
734.375244
 20
349.117942
 30
0.0
 11
281.624751
 21
349.117942
 31
0.0
  0
LINE
  5
15F
  8
0
 62
     1
 10
755.927444
 20
428.495092
 30
0.0
 11
260.072551
 21
428.495092
 31
0.0
  0
LINE
  5
160
  8
0
 10
266.4755
 20
355.340513
 30
0.0
 11
108.264322
 21
355.340513
 31
0.0
  0
LINE
  5
161
  8
0
 10
326.400119
 20
117.814796
 30
0.0
 11
108.264322
 21
117.814796
 31
0.0
  0
LINE
  5
162
  8
0
 62
     8
 10
351.167556
 20
137.924962
 30
0.0
 11
95.996886
 21
137.924962
 31
0.0
  0
LINE
  5
163
  8
0
 62
     8
 10
334.829473
 20
192.509699
 30
0.0
 11
111.334968
 21
192.509699
 31
0.0
  0
LINE
  5
164
  8
0
 62
     8
 10
334.829473
 20
156.119874
 30
0.0
 11
111.334968
 21
156.119874
 31
0.0
  0
LINE
  5
165
  8
0
 62
     8
 10
334.829473
 20
174.314786
 30
0.0
 11
111.334968
 21
174.314786
 31
0.0
  0
LINE
  5
166
  8
0
 62
     8
 10
334.829473
 20
210.704611
 30
0.0
 11
111.334968
 21
210.704611
 31
0.0
  0
LINE
  5
167
  8
0
 62
     8
 10
334.829473
 20
319.874086
 30
0.0
 11
111.334968
 21
319.874086
 31
0.0
  0
LINE
  5
168
  8
0
 62
     8
 10
334.829473
 20
228.899524
 30
0.0
 11
111.334968
 21
228.899524
 31
0.0
  0
LINE
  5
169
  8
0
 62
     8
 10
334.829473
 20
247.094436
 30
0.0
 11
111.334968
 21
247.094436
 31
0.0
  0
LINE
  5
16A
  8
0
 62
     8
 10
334.829473
 20
265.289348
 30
0.0
 11
111.334968
 21
265.289348
 31
0.0
  0
LINE
  5
16B
  8
0
 62
     8
 10
334.829473
 20
283.484261
 30
0.0
 11
111.334968
 21
283.484261
 31
0.0
  0
LINE
  5
16C
  8
0
 62
     8
 10
334.829473
 20
301.679173
 30
0.0
 11
111.334968
 21
301.679173
 31
0.0
  0
LINE
  5
16D
  8
0
 62
     8
 10
351.167556
 20
335.230347
 30
0.0
 11
95.996886
 21
335.230347
 31
0.0
  0
LINE
  5
16E
  8
0
 10
95.996886
 20
117.814796
 30
0.0
 11
95.996886
 21
355.340513
 31
0.0
  0
LINE
  5
16F
  8
0
 10
95.996886
 20
137.924962
 30
0.0
 11
95.996886
 21
335.230347
 31
0.0
  0
LINE
  5
170
  8
0
 10
-0.000002
 20
157.515885
 30
0.0
 11
-0.000002
 21
315.639424
 31
0.0
  0
LINE
  5
171
  8
0
 62
     8
 10
68.641145
 20
129.874223
 30
0.0
 11
68.641145
 21
343.281086
 31
0.0
  0
LINE
  5
172
  8
0
 10
108.264322
 20
117.814796
 30
0.0
 11
95.996886
 21
137.924962
 31
0.0
  0
ARC
  5
173
  8
0
 10
180.1948
 20
463.520491
 30
0.0
 40
363.2593
 50
241.891039
 51
251.70466
  0
LINE
  5
174
  8
0
 10
95.996886
 20
117.814796
 30
0.0
 11
71.184817
 21
117.814796
 31
0.0
  0
ARC
  5
175
  8
0
 10
71.184817
 20
133.814796
 30
0.0
 40
16.0
 50
251.70466
 51
270.0
  0
ARC
  5
176
  8
0
 10
15.999998
 20
157.515885
 30
0.0
 40
16.0
 50
180.0
 51
244.235548
  0
LINE
  5
177
  8
0
 10
108.264322
 20
355.340513
 30
0.0
 11
95.996886
 21
335.230347
 31
0.0
  0
ARC
  5
178
  8
0
 10
180.1948
 20
9.634818
 30
0.0
 40
363.2593
 50
108.29534
 51
118.108961
  0
ARC
  5
179
  8
0
 10
15.999998
 20
315.639424
 30
0.0
 40
16.0
 50
115.764452
 51
180.0
  0
LINE
  5
17A
  8
0
 10
95.996886
 20
355.340513
 30
0.0
 11
71.184817
 21
355.340513
 31
0.0
  0
ARC
  5
17B
  8
0
 10
71.184817
 20
339.340513
 30
0.0
 40
16.0
 50
90.0
 51
108.29534
  0
LINE
  5
17C
  8
0
 10
351.167556
 20
106.204806
 30
0.0
 11
351.167556
 21
349.117942
 31
0.0
  0
LINE
  5
17D
  8
0
 10
377.52988
 20
106.204806
 30
0.0
 11
377.52988
 21
349.117942
 31
0.0
  0
LINE
  5
17E
  8
0
 10
326.400119
 20
117.814796
 30
0.0
 11
351.167556
 21
137.924962
 31
0.0
  0
LINE
  5
17F
  8
0
 10
377.52988
 20
106.204806
 30
0.0
 11
351.167556
 21
106.204806
 31
0.0
  0
LINE
  5
180
  8
0
 10
334.063763
 20
349.117942
 30
0.0
 11
351.167556
 21
335.230347
 31
0.0
  0
ARC
  5
181
  8
0
 10
281.624751
 20
370.670142
 30
0.0
 40
21.5522
 50
180.0
 51
270.0
  0
LINE
  5
182
  8
0
 10
838.223904
 20
0.000003
 30
0.0
 11
838.223904
 21
132.340955
 31
0.0
  0
LINE
  5
183
  8
0
 10
638.470115
 20
0.000003
 30
0.0
 11
638.470115
 21
349.117942
 31
0.0
  0
LINE
  5
184
  8
0
 10
638.470115
 20
0.000003
 30
0.0
 11
838.223904
 21
0.000003
 31
0.0
  0
LINE
  5
185
  8
0
 10
933.277306
 20
179.978593
 30
0.0
 11
933.277306
 21
321.93939
 31
0.0
  0
LINE
  5
186
  8
0
 62
     8
 10
863.229292
 20
253.42231
 30
0.0
 11
863.229292
 21
179.978593
 31
0.0
  0
LINE
  5
187
  8
0
 62
     8
 10
882.298662
 20
253.42231
 30
0.0
 11
882.298662
 21
179.978593
 31
0.0
  0
LINE
  5
188
  8
0
 10
849.663859
 20
179.978593
 30
0.0
 11
849.663859
 21
301.529311
 31
0.0
  0
LINE
  5
189
  8
0
 10
949.999998
 20
179.978593
 30
0.0
 11
949.999998
 21
293.176716
 31
0.0
  0
LINE
  5
18A
  8
0
 10
838.223904
 20
132.340955
 30
0.0
 11
746.89517
 21
353.127372
 31
0.0
  0
LINE
  5
18B
  8
0
 10
949.999998
 20
179.978593
 30
0.0
 11
818.518502
 21
179.978593
 31
0.0
  0
LINE
  5
18C
  8
0
 62
     8
 10
949.999998
 20
220.787538
 30
0.0
 11
933.277306
 21
220.787538
 31
0.0
  0
LINE
  5
18D
  8
0
 62
     8
 10
949.999998
 20
205.938476
 30
0.0
 11
933.277306
 21
205.938476
 31
0.0
  0
LINE
  5
18E
  8
0
 62
     8
 10
949.999998
 20
191.089415
 30
0.0
 11
933.277306
 21
191.089415
 31
0.0
  0
LINE
  5
18F
  8
0
 10
852.607812
 20
301.529311
 30
0.0
 11
768.238809
 21
301.529311
 31
0.0
  0
ARC
  5
190
  8
0
 10
734.375244
 20
370.670142
 30
0.0
 40
21.5522
 50
270.0
 51
0.0
  0
LINE
  5
191
  8
0
 10
933.277306
 20
301.529311
 30
0.0
 11
880.976839
 21
301.529311
 31
0.0
  0
LINE
  5
192
  8
0
 10
868.185885
 20
321.93939
 30
0.0
 11
933.277306
 21
321.93939
 31
0.0
  0
LINE
  5
193
  8
0
 62
     8
 10
877.47627
 20
317.041259
 30
0.0
 11
933.277306
 21
317.041259
 31
0.0
  0
CIRCLE
  5
194
  8
0
 10
866.792325
 20
292.705302
 30
0.0
 40
11.518179
  0
CIRCLE
  5
195
  8
0
 10
866.792325
 20
292.705302
 30
0.0
 40
16.705196
  0
LINE
  5
196
  8
0
 62
     8
 10
869.519551
 20
276.224228
 30
0.0
 11
869.519551
 21
253.42231
 31
0.0
  0
LINE
  5
197
  8
0
 62
     8
 10
869.519551
 20
253.42231
 30
0.0
 11
863.229292
 21
253.42231
 31
0.0
  0
LINE
  5
198
  8
0
 62
     8
 10
876.008404
 20
278.77234
 30
0.0
 11
876.008404
 21
253.42231
 31
0.0
  0
LINE
  5
199
  8
0
 62
     8
 10
876.008404
 20
253.42231
 30
0.0
 11
882.298662
 21
253.42231
 31
0.0
  0
LINE
  5
19A
  8
0
 10
868.185885
 20
309.352271
 30
0.0
 11
868.185885
 21
321.93939
 31
0.0
  0
LINE
  5
19B
  8
0
 62
     8
 10
877.47627
 20
305.547299
 30
0.0
 11
877.47627
 21
317.041259
 31
0.0
  0
LINE
  5
19C
  8
0
 62
     8
 10
949.999998
 20
280.183783
 30
0.0
 11
933.277306
 21
280.183783
 31
0.0
  0
LINE
  5
19D
  8
0
 62
     8
 10
949.999998
 20
265.334722
 30
0.0
 11
933.277306
 21
265.334722
 31
0.0
  0
LINE
  5
19E
  8
0
 62
     8
 10
949.999998
 20
250.48566
 30
0.0
 11
933.277306
 21
250.48566
 31
0.0
  0
LINE
  5
19F
  8
0
 62
     8
 10
949.999998
 20
235.636599
 30
0.0
 11
933.277306
 21
235.636599
 31
0.0
  0
LINE
  5
1A0
  8
0
 10
949.999998
 20
293.176716
 30
0.0
 11
933.277306
 21
293.176716
 31
0.0
  0
LINE
  5
1A1
  8
0
 10
734.375244
 20
813.834715
 30
0.0
 11
281.624751
 21
813.834715
 31
0.0
  0
ARC
  5
1A2
  8
0
 10
281.624751
 20
792.282515
 30
0.0
 40
21.5522
 50
90.0
 51
180.0
  0
LINE
  5
1A3
  8
0
 62
     8
 10
718.264805
 20
690.195829
 30
0.0
 11
692.035471
 21
690.195829
 31
0.0
  0
LINE
  5
1A4
  8
0
 62
     8
 10
718.264805
 20
711.694819
 30
0.0
 11
692.035471
 21
711.694819
 31
0.0
  0
LINE
  5
1A5
  8
0
 62
     8
 10
718.264805
 20
769.473349
 30
0.0
 11
692.035471
 21
769.473349
 31
0.0
  0
LINE
  5
1A6
  8
0
 62
     8
 10
718.264805
 20
747.97436
 30
0.0
 11
692.035471
 21
747.97436
 31
0.0
  0
LINE
  5
1A7
  8
0
 10
726.335371
 20
788.284957
 30
0.0
 11
582.410321
 21
788.284957
 31
0.0
  0
LINE
  5
1A8
  8
0
 10
726.335371
 20
503.423369
 30
0.0
 11
582.410321
 21
503.423369
 31
0.0
  0
LINE
  5
1A9
  8
0
 10
726.335371
 20
446.98853
 30
0.0
 11
582.410321
 21
446.98853
 31
0.0
  0
LINE
  5
1AA
  8
0
 62
     8
 10
718.264805
 20
652.572597
 30
0.0
 11
692.035471
 21
652.572597
 31
0.0
  0
LINE
  5
1AB
  8
0
 62
     8
 10
718.264805
 20
594.794067
 30
0.0
 11
692.035471
 21
594.794067
 31
0.0
  0
LINE
  5
1AC
  8
0
 62
     8
 10
718.264805
 20
573.295078
 30
0.0
 11
692.035471
 21
573.295078
 31
0.0
  0
LINE
  5
1AD
  8
0
 62
     8
 10
718.264805
 20
631.073608
 30
0.0
 11
692.035471
 21
631.073608
 31
0.0
  0
LINE
  5
1AE
  8
0
 10
726.335371
 20
534.328163
 30
0.0
 11
582.410321
 21
534.328163
 31
0.0
  0
LINE
  5
1AF
  8
0
 10
582.410321
 20
534.328163
 30
0.0
 11
582.410321
 21
788.284957
 31
0.0
  0
LINE
  5
1B0
  8
0
 10
582.410321
 20
446.98853
 30
0.0
 11
582.410321
 21
503.423369
 31
0.0
  0
LINE
  5
1B1
  8
0
 62
     8
 10
594.516162
 20
551.796088
 30
0.0
 11
594.516162
 21
594.794067
 31
0.0
  0
LINE
  5
1B2
  8
0
 62
     8
 10
646.974831
 20
551.796088
 30
0.0
 11
646.974831
 21
594.794067
 31
0.0
  0
LINE
  5
1B3
  8
0
 62
     8
 10
646.974831
 20
551.796088
 30
0.0
 11
594.516162
 21
551.796088
 31
0.0
  0
LINE
  5
1B4
  8
0
 62
     8
 10
646.974831
 20
594.794067
 30
0.0
 11
594.516162
 21
594.794067
 31
0.0
  0
LINE
  5
1B5
  8
0
 62
     8
 10
646.974831
 20
609.574618
 30
0.0
 11
594.516162
 21
609.574618
 31
0.0
  0
LINE
  5
1B6
  8
0
 62
     8
 10
646.974831
 20
652.572597
 30
0.0
 11
594.516162
 21
652.572597
 31
0.0
  0
LINE
  5
1B7
  8
0
 62
     8
 10
594.516162
 20
609.574618
 30
0.0
 11
594.516162
 21
652.572597
 31
0.0
  0
LINE
  5
1B8
  8
0
 62
     8
 10
646.974831
 20
609.574618
 30
0.0
 11
646.974831
 21
652.572597
 31
0.0
  0
LINE
  5
1B9
  8
0
 62
     8
 10
692.035471
 20
573.295078
 30
0.0
 11
692.035471
 21
594.794067
 31
0.0
  0
LINE
  5
1BA
  8
0
 62
     8
 10
692.035471
 20
631.073608
 30
0.0
 11
692.035471
 21
652.572597
 31
0.0
  0
LINE
  5
1BB
  8
0
 62
     8
 10
646.974831
 20
726.47537
 30
0.0
 11
646.974831
 21
769.473349
 31
0.0
  0
LINE
  5
1BC
  8
0
 62
     8
 10
594.516162
 20
726.47537
 30
0.0
 11
594.516162
 21
769.473349
 31
0.0
  0
LINE
  5
1BD
  8
0
 62
     8
 10
692.035471
 20
747.97436
 30
0.0
 11
692.035471
 21
769.473349
 31
0.0
  0
LINE
  5
1BE
  8
0
 62
     8
 10
646.974831
 20
711.694819
 30
0.0
 11
594.516162
 21
711.694819
 31
0.0
  0
LINE
  5
1BF
  8
0
 62
     8
 10
646.974831
 20
668.69684
 30
0.0
 11
594.516162
 21
668.69684
 31
0.0
  0
LINE
  5
1C0
  8
0
 62
     8
 10
594.516162
 20
668.69684
 30
0.0
 11
594.516162
 21
711.694819
 31
0.0
  0
LINE
  5
1C1
  8
0
 62
     8
 10
646.974831
 20
668.69684
 30
0.0
 11
646.974831
 21
711.694819
 31
0.0
  0
LINE
  5
1C2
  8
0
 62
     8
 10
646.974831
 20
726.47537
 30
0.0
 11
594.516162
 21
726.47537
 31
0.0
  0
LINE
  5
1C3
  8
0
 62
     8
 10
692.035471
 20
690.195829
 30
0.0
 11
692.035471
 21
711.694819
 31
0.0
  0
LINE
  5
1C4
  8
0
 62
     8
 10
646.974831
 20
769.473349
 30
0.0
 11
594.516162
 21
769.473349
 31
0.0
  0
LINE
  5
1C5
  8
0
 10
726.335371
 20
534.328163
 30
0.0
 11
726.335371
 21
788.284957
 31
0.0
  0
LINE
  5
1C6
  8
0
 10
726.335371
 20
446.98853
 30
0.0
 11
726.335371
 21
503.423369
 31
0.0
  0
LINE
  5
1C7
  8
0
 62
     8
 10
718.264805
 20
573.295078
 30
0.0
 11
718.264805
 21
594.794067
 31
0.0
  0
LINE
  5
1C8
  8
0
 62
     8
 10
718.264805
 20
631.073608
 30
0.0
 11
718.264805
 21
652.572597
 31
0.0
  0
LINE
  5
1C9
  8
0
 62
     8
 10
718.264805
 20
747.97436
 30
0.0
 11
718.264805
 21
769.473349
 31
0.0
  0
LINE
  5
1CA
  8
0
 62
     8
 10
718.264805
 20
690.195829
 30
0.0
 11
718.264805
 21
711.694819
 31
0.0
  0
ARC
  5
1CB
  8
0
 10
734.375244
 20
792.282515
 30
0.0
 40
21.5522
 50
0.0
 51
90.0
  0
ENDBLK
  5
1CD
  8
0
  0
ENDSEC
  0
SECTION
  2
ENTITIES
  0
INSERT
  5
1D
  8
0
  2
A$C0ACC3EC1
 10
307.117541
 20
252.728273
 30
0.0
  0
INSERT
  5
D8
  8
0
  2
A$C4D2D64D7
 10
307.117541
 20
1496.035479
 30
0.0
  0
LINE
  5
152
  8
CONTORNO_PAGINA
 62
     5
 10
30.0
 20
30.0
 30
0.0
 11
3679.946276
 21
30.0
 31
0.0
  0
LINE
  5
154
  8
CONTORNO_PAGINA
 62
   150
 10
0.0
 20
0.0
 30
0.0
 11
3709.946276
 21
0.0
 31
0.0
  0
LINE
  5
155
  8
CONTORNO_PAGINA
 62
     5
 10
30.0
 20
2556.448951
 30
0.0
 11
3679.946276
 21
2556.448951
 31
0.0
  0
LINE
  5
156
  8
CONTORNO_PAGINA
 62
   150
 10
0.0
 20
2586.448951
 30
0.0
 11
3709.946276
 21
2586.448951
 31
0.0
  0
LINE
  5
157
  8
CONTORNO_PAGINA
 62
   150
 10
0.0
 20
0.0
 30
0.0
 11
0.0
 21
2586.448951
 31
0.0
  0
LINE
  5
158
  8
CONTORNO_PAGINA
 62
     5
 10
30.0
 20
30.0
 30
0.0
 11
30.0
 21
2556.448951
 31
0.0
  0
INSERT
  5
159
  8
0
  2
A$C2B511E84
 10
2345.320087
 20
1496.035479
 30
0.0
  0
LINE
  5
1CE
  8
CONTORNO_PAGINA
 62
     5
 10
3679.946276
 20
30.0
 30
0.0
 11
3679.946276
 21
2556.448951
 31
0.0
  0
LINE
  5
1CF
  8
CONTORNO_PAGINA
 62
   150
 10
3709.946276
 20
0.0
 30
0.0
 11
3709.946276
 21
2586.448951
 31
0.0
  0
LINE
  5
1D0
  8
LAYER1
 62
     4
 10
1854.973138
 20
197.314356
 30
0.0
 11
3679.946276
 21
197.314356
 31
0.0
  0
LINE
  5
1D2
  8
LAYER1
 62
   150
 10
1854.973138
 20
142.021627
 30
0.0
 11
3679.946276
 21
142.021627
 31
0.0
  0
TEXT
  8
0
  40
25
  5
209
  62
5
  72
0
  71
0
 10
2430.13
 20
152.107
 30
0.000000
  1
Denominazione commerciale
  7
SIMPLEX_INCLINATO
  0
TEXT
  8
0
  40
30
  5
20A
  62
5
  72
0
  71
0
 10
1939.30
 20
3.47508
 30
0.000000
  1
3479373 - 220V
  0
TEXT
  8
0
  40
30
  5
20B
  62
5
  72
0
  71
0
 10
1939.30
 20
-35.5249
 30
0.000000
  1
3479375 - 380V
  0
TEXT
  8
0
  40
25
  5
20C
  62
5
  72
0
  71
0
 10
1871.99
 20
152.107
 30
0.000000
  1
Codice n.
  7
SIMPLEX_INCLINATO
  0
LINE
  5
1D7
  8
LAYER1
 62
     4
 10
1854.973138
 20
197.314356
 30
0.0
 11
1854.973138
 21
30.0
 31
0.0
  0
LINE
  5
1D8
  8
LAYER1
 62
     4
 10
2413.106065
 20
30.0
 30
0.0
 11
2413.106065
 21
197.314356
 31
0.0
  0
TEXT
  8
0
  40
30
  5
20D
  62
5
  72
0
  71
0
 10
2903.35
 20
21.6084
 30
0.000000
  1
P 450 T/G t.c.
  0
TEXT
  8
0
  40
30
  5
20E
  62
5
  72
0
  71
0
 10
3538.68
 20
36.7195
 30
0.000000
  1
1:1
  0
TEXT
  8
0
  40
25
  5
20F
  62
5
  72
0
  71
0
 10
3412.16
 20
152.107
 30
0.000000
  1
scala
  7
SIMPLEX_INCLINATO
  0
LINE
  5
1DC
  8
LAYER1
 62
     4
 10
3395.136281
 20
30.0
 30
0.0
 11
3395.136281
 21
197.314356
 31
0.0
  0
ENDSEC
  0
EOF
