  0
SECTION
  2
HEADER
  9
$ACADVER
  1
AC1009
  9
$INSBASE
 10
0.0
 20
0.0
 30
0.0
  9
$EXTMIN
 10
1085.02258
 20
-827.396794
 30
0.0
  9
$EXTMAX
 10
3080.82258
 20
1943.550655
 30
0.0
  9
$LIMMIN
 10
0.0
 20
0.0
  9
$LIMMAX
 10
12.0
 20
9.0
  9
$ORTHOMODE
 70
     0
  9
$REGENMODE
 70
     1
  9
$FILLMODE
 70
     1
  9
$QTEXTMODE
 70
     0
  9
$MIRRTEXT
 70
     1
  9
$DRAGMODE
 70
     2
  9
$LTSCALE
 40
5.0
  9
$OSMODE
 70
   167
  9
$ATTMODE
 70
     1
  9
$TEXTSIZE
 40
0.2
  9
$TRACEWID
 40
0.05
  9
$TEXTSTYLE
  7
STANDARD
  9
$CLAYER
  8
0
  9
$CELTYPE
  6
BYLAYER
  9
$CECOLOR
 62
   256
  9
$DIMSCALE
 40
1.0
  9
$DIMASZ
 40
0.18
  9
$DIMEXO
 40
0.0625
  9
$DIMDLI
 40
0.38
  9
$DIMRND
 40
0.0
  9
$DIMDLE
 40
0.0
  9
$DIMEXE
 40
0.18
  9
$DIMTP
 40
0.0
  9
$DIMTM
 40
0.0
  9
$DIMTXT
 40
0.18
  9
$DIMCEN
 40
0.09
  9
$DIMTSZ
 40
0.0
  9
$DIMTOL
 70
     0
  9
$DIMLIM
 70
     0
  9
$DIMTIH
 70
     1
  9
$DIMTOH
 70
     1
  9
$DIMSE1
 70
     0
  9
$DIMSE2
 70
     0
  9
$DIMTAD
 70
     0
  9
$DIMZIN
 70
     0
  9
$DIMBLK
  1

  9
$DIMASO
 70
     1
  9
$DIMSHO
 70
     1
  9
$DIMPOST
  1

  9
$DIMAPOST
  1

  9
$DIMALT
 70
     0
  9
$DIMALTD
 70
     2
  9
$DIMALTF
 40
25.4
  9
$DIMLFAC
 40
1.0
  9
$DIMTOFL
 70
     0
  9
$DIMTVP
 40
0.0
  9
$DIMTIX
 70
     0
  9
$DIMSOXD
 70
     0
  9
$DIMSAH
 70
     0
  9
$DIMBLK1
  1

  9
$DIMBLK2
  1

  9
$DIMSTYLE
  2
STANDARD
  9
$DIMCLRD
 70
     0
  9
$DIMCLRE
 70
     0
  9
$DIMCLRT
 70
     0
  9
$DIMTFAC
 40
1.0
  9
$DIMGAP
 40
0.09
  9
$LUNITS
 70
     2
  9
$LUPREC
 70
     4
  9
$SKETCHINC
 40
0.1
  9
$FILLETRAD
 40
17.960167
  9
$AUNITS
 70
     0
  9
$AUPREC
 70
     0
  9
$MENU
  1
.
  9
$ELEVATION
 40
0.0
  9
$PELEVATION
 40
0.0
  9
$THICKNESS
 40
0.0
  9
$LIMCHECK
 70
     0
  9
$BLIPMODE
 70
     0
  9
$CHAMFERA
 40
0.0
  9
$CHAMFERB
 40
0.0
  9
$SKPOLY
 70
     1
  9
$TDCREATE
 40
2451199.890431
  9
$TDUPDATE
 40
2451221.538173
  9
$TDINDWG
 40
0.214929
  9
$TDUSRTIMER
 40
0.214929
  9
$USRTIMER
 70
     1
  9
$ANGBASE
 50
0.0
  9
$ANGDIR
 70
     0
  9
$PDMODE
 70
     0
  9
$PDSIZE
 40
0.0
  9
$PLINEWID
 40
0.0
  9
$COORDS
 70
     1
  9
$SPLFRAME
 70
     0
  9
$SPLINETYPE
 70
     6
  9
$SPLINESEGS
 70
     8
  9
$ATTDIA
 70
     0
  9
$ATTREQ
 70
     1
  9
$HANDLING
 70
     1
  9
$HANDSEED
  5
1241
  9
$SURFTAB1
 70
     6
  9
$SURFTAB2
 70
     6
  9
$SURFTYPE
 70
     6
  9
$SURFU
 70
     6
  9
$SURFV
 70
     6
  9
$UCSNAME
  2

  9
$UCSORG
 10
0.0
 20
0.0
 30
0.0
  9
$UCSXDIR
 10
1.0
 20
0.0
 30
0.0
  9
$UCSYDIR
 10
0.0
 20
1.0
 30
0.0
  9
$PUCSNAME
  2

  9
$PUCSORG
 10
0.0
 20
0.0
 30
0.0
  9
$PUCSXDIR
 10
1.0
 20
0.0
 30
0.0
  9
$PUCSYDIR
 10
0.0
 20
1.0
 30
0.0
  9
$USERI1
 70
     0
  9
$USERI2
 70
     0
  9
$USERI3
 70
     0
  9
$USERI4
 70
     0
  9
$USERI5
 70
     0
  9
$USERR1
 40
0.0
  9
$USERR2
 40
0.0
  9
$USERR3
 40
0.0
  9
$USERR4
 40
0.0
  9
$USERR5
 40
0.0
  9
$WORLDVIEW
 70
     1
  9
$SHADEDGE
 70
     3
  9
$SHADEDIF
 70
    70
  9
$TILEMODE
 70
     1
  9
$MAXACTVP
 70
    48
  9
$PLIMCHECK
 70
     0
  9
$PEXTMIN
 10
1.000000E+020
 20
1.000000E+020
 30
1.000000E+020
  9
$PEXTMAX
 10
-1.000000E+020
 20
-1.000000E+020
 30
-1.000000E+020
  9
$PLIMMIN
 10
0.0
 20
0.0
  9
$PLIMMAX
 10
12.0
 20
9.0
  9
$UNITMODE
 70
     0
  9
$VISRETAIN
 70
     1
  9
$PLINEGEN
 70
     0
  9
$PSLTSCALE
 70
     1
  0
ENDSEC
  0
SECTION
  2
TABLES
  0
TABLE
  2
VPORT
 70
     3
  0
VPORT
  2
*ACTIVE
 70
     0
 10
0.0
 20
0.0
 11
1.0
 21
1.0
 12
2082.789733
 22
558.140938
 13
0.0
 23
0.0
 14
0.5
 24
0.5
 15
0.5
 25
0.5
 16
0.0
 26
0.0
 36
1.0
 17
0.0
 27
0.0
 37
0.0
 40
2812.815106
 41
1.756892
 42
50.0
 43
0.0
 44
0.0
 50
0.0
 51
0.0
 71
     0
 72
   100
 73
     1
 74
     0
 75
     0
 76
     0
 77
     0
 78
     0
  0
ENDTAB
  0
TABLE
  2
LTYPE
 70
     2
  0
LTYPE
  2
CONTINUOUS
 70
     0
  3
Solid line
 72
    65
 73
     0
 40
0.0
  0
LTYPE
  2
DASHED2
 70
     0
  3
Dashed (.5x) _ _ _ _ _ _ _ _ _ _ _ _ _ _ _ _ _
 72
    65
 73
     2
 40
9.525
 49
6.35
 49
-3.175
  0
ENDTAB
  0
TABLE
  2
LAYER
 70
     3
  0
LAYER
  2
0
 70
     0
 62
     7
  6
CONTINUOUS
  0
LAYER
  2
CONTORNO_PAGINA
 70
     0
 62
     7
  6
CONTINUOUS
  0
LAYER
  2
LAYER1
 70
     0
 62
     7
  6
CONTINUOUS
  0
ENDTAB
  0
TABLE
  2
STYLE
 70
     3
  0
STYLE
  2
STANDARD
 70
     0
 40
0.0
 41
1.0
 50
0.0
 71
     0
 42
0.2
  3
txt
  4

  0
STYLE
  2
SIMPLEX_INCLINATO
 70
     0
 40
2.0
 41
1.0
 50
15.0
 71
     0
 42
89.952478
  3
simplex.shx
  4

  0
ENDTAB
  0
TABLE
  2
VIEW
 70
     0
  0
ENDTAB
  0
TABLE
  2
UCS
 70
     0
  0
ENDTAB
  0
TABLE
  2
APPID
 70
     1
  0
APPID
  2
ACAD
 70
     0
  0
ENDTAB
  0
TABLE
  2
DIMSTYLE
 70
     1
  0
DIMSTYLE
  2
STANDARD
 70
     0
  3

  4

  5

  6

  7

 40
1.0
 41
0.18
 42
0.0625
 43
0.38
 44
0.18
 45
0.0
 46
0.0
 47
0.0
 48
0.0
140
0.18
141
0.09
142
0.0
143
25.4
144
1.0
145
0.0
146
1.0
147
0.09
 71
     0
 72
     0
 73
     1
 74
     1
 75
     0
 76
     0
 77
     0
 78
     0
170
     0
171
     2
172
     0
173
     0
174
     0
175
     0
176
     0
177
     0
178
     0
  0
ENDTAB
  0
ENDSEC
  0
SECTION
  2
BLOCKS
  0
BLOCK
  8
0
  2
$MODEL_SPACE
 70
     0
 10
0.0
 20
0.0
 30
0.0
  3
$MODEL_SPACE
  1

  0
ENDBLK
  5
1B
  8
0
  0
BLOCK
 67
     1
  8
0
  2
$PAPER_SPACE
 70
     0
 10
0.0
 20
0.0
 30
0.0
  3
$PAPER_SPACE
  1

  0
ENDBLK
  5
18
 67
     1
  8
0
  0
BLOCK
  8
0
  2
A$C4E4605BA
 70
     0
 10
0.0
 20
0.0
 30
0.0
  3
A$C4E4605BA
  1

  0
LINE
  5
E83
  8
0
 10
796.000003
 20
176.843843
 30
0.0
 11
646.486144
 21
176.843843
 31
0.0
  0
LINE
  5
E84
  8
0
 62
     8
 10
796.000003
 20
188.417617
 30
0.0
 11
778.580533
 21
188.417617
 31
0.0
  0
LINE
  5
E85
  8
0
 62
     8
 10
796.000003
 20
203.885389
 30
0.0
 11
778.580533
 21
203.885389
 31
0.0
  0
LINE
  5
E86
  8
0
 62
     8
 10
796.000003
 20
234.820933
 30
0.0
 11
778.580533
 21
234.820933
 31
0.0
  0
LINE
  5
E87
  8
0
 62
     8
 10
796.000003
 20
219.353161
 30
0.0
 11
778.580533
 21
219.353161
 31
0.0
  0
LINE
  5
E88
  8
0
 62
     8
 10
796.000003
 20
250.288706
 30
0.0
 11
778.580533
 21
250.288706
 31
0.0
  0
LINE
  5
E89
  8
0
 62
     8
 10
796.000003
 20
265.756478
 30
0.0
 11
778.580533
 21
265.756478
 31
0.0
  0
LINE
  5
E8A
  8
0
 62
     8
 10
796.000003
 20
281.22425
 30
0.0
 11
778.580533
 21
281.22425
 31
0.0
  0
LINE
  5
E8B
  8
0
 10
796.000003
 20
294.758556
 30
0.0
 11
778.580533
 21
294.758556
 31
0.0
  0
LINE
  5
E8C
  8
0
 10
106.882967
 20
108.056142
 30
0.0
 11
106.882967
 21
371.439208
 31
0.0
  0
LINE
  5
E8D
  8
0
 10
0.000003
 20
146.01536
 30
0.0
 11
0.000003
 21
333.47999
 31
0.0
  0
CIRCLE
  5
E8E
  8
0
 10
709.325345
 20
294.267499
 30
0.0
 40
11.998104
  0
CIRCLE
  5
E8F
  8
0
 10
709.325345
 20
294.267499
 30
0.0
 40
17.401245
  0
LINE
  5
E90
  8
0
 10
287.274905
 20
109.05367
 30
0.0
 11
287.274905
 21
326.34175
 31
0.0
  0
LINE
  5
E91
  8
0
 10
265.306302
 20
109.05367
 30
0.0
 11
265.306302
 21
326.34175
 31
0.0
  0
LINE
  5
E92
  8
0
 10
671.186592
 20
117.130726
 30
0.0
 11
584.646042
 21
326.34175
 31
0.0
  0
LINE
  5
E93
  8
0
 10
691.483192
 20
176.843843
 30
0.0
 11
691.483192
 21
303.459175
 31
0.0
  0
LINE
  5
E94
  8
0
 10
504.725101
 20
-0.000001
 30
0.0
 11
504.725101
 21
326.34175
 31
0.0
  0
LINE
  5
E95
  8
0
 10
778.580533
 20
176.843843
 30
0.0
 11
778.580533
 21
324.719674
 31
0.0
  0
ARC
  5
E96
  8
0
 10
396.000003
 20
144.542235
 30
0.0
 40
108.725098
 50
180.0
 51
0.0
  0
ARC
  5
E97
  8
0
 10
195.258422
 20
526.354158
 30
0.0
 40
427.531813
 50
242.824932
 51
258.070332
  0
LINE
  5
E98
  8
0
 10
265.306302
 20
116.036364
 30
0.0
 11
119.661547
 21
116.036364
 31
0.0
  0
LINE
  5
E99
  8
0
 62
     8
 10
265.306302
 20
136.984453
 30
0.0
 11
106.882967
 21
136.984453
 31
0.0
  0
LINE
  5
E9A
  8
0
 62
     8
 10
265.306302
 20
155.937487
 30
0.0
 11
122.860136
 21
155.937487
 31
0.0
  0
LINE
  5
E9B
  8
0
 62
     8
 10
265.306302
 20
174.890521
 30
0.0
 11
122.860136
 21
174.890521
 31
0.0
  0
LINE
  5
E9C
  8
0
 62
     8
 10
265.306302
 20
212.796588
 30
0.0
 11
122.860136
 21
212.796588
 31
0.0
  0
LINE
  5
E9D
  8
0
 62
     8
 10
265.306302
 20
231.749622
 30
0.0
 11
122.860136
 21
231.749622
 31
0.0
  0
LINE
  5
E9E
  8
0
 62
     8
 10
265.306302
 20
250.702656
 30
0.0
 11
122.860136
 21
250.702656
 31
0.0
  0
LINE
  5
E9F
  8
0
 62
     8
 10
265.306302
 20
193.843554
 30
0.0
 11
122.860136
 21
193.843554
 31
0.0
  0
LINE
  5
EA0
  8
0
 62
     8
 10
265.306302
 20
269.655689
 30
0.0
 11
122.860136
 21
269.655689
 31
0.0
  0
LINE
  5
EA1
  8
0
 62
     8
 10
265.306302
 20
288.608723
 30
0.0
 11
122.860136
 21
288.608723
 31
0.0
  0
LINE
  5
EA2
  8
0
 10
119.661547
 20
116.036364
 30
0.0
 11
106.882967
 21
136.984453
 31
0.0
  0
LINE
  5
EA3
  8
0
 10
287.274905
 20
109.05367
 30
0.0
 11
265.306302
 21
109.05367
 31
0.0
  0
LINE
  5
EA4
  8
0
 10
504.725101
 20
-0.000001
 30
0.0
 11
671.186592
 21
-0.000001
 31
0.0
  0
LINE
  5
EA5
  8
0
 10
671.186592
 20
-0.000001
 30
0.0
 11
671.186592
 21
117.130726
 31
0.0
  0
LINE
  5
EA6
  8
0
 62
     8
 10
725.477779
 20
253.347716
 30
0.0
 11
725.477779
 21
176.843843
 31
0.0
  0
LINE
  5
EA7
  8
0
 62
     8
 10
705.613852
 20
253.347716
 30
0.0
 11
705.613852
 21
176.843843
 31
0.0
  0
LINE
  5
EA8
  8
0
 62
     8
 10
718.925427
 20
253.347716
 30
0.0
 11
725.477779
 21
253.347716
 31
0.0
  0
LINE
  5
EA9
  8
0
 62
     8
 10
712.166204
 20
253.347716
 30
0.0
 11
705.613852
 21
253.347716
 31
0.0
  0
LINE
  5
EAA
  8
0
 62
     8
 10
718.925427
 20
279.753997
 30
0.0
 11
718.925427
 21
253.347716
 31
0.0
  0
LINE
  5
EAB
  8
0
 62
     8
 10
712.166204
 20
277.099714
 30
0.0
 11
712.166204
 21
253.347716
 31
0.0
  0
LINE
  5
EAC
  8
0
 10
584.646042
 20
713.605727
 30
0.0
 11
207.353964
 21
713.605727
 31
0.0
  0
LINE
  5
EAD
  8
0
 10
584.646042
 20
326.34175
 30
0.0
 11
207.353964
 21
326.34175
 31
0.0
  0
LINE
  5
EAE
  8
0
 62
     1
 10
602.606208
 20
392.489376
 30
0.0
 11
189.393798
 21
392.489376
 31
0.0
  0
ARC
  5
EAF
  8
0
 10
195.258422
 20
-46.858808
 30
0.0
 40
427.531813
 50
101.929668
 51
117.175068
  0
LINE
  5
EB0
  8
0
 10
189.393798
 20
344.301917
 30
0.0
 11
189.393798
 21
695.645561
 31
0.0
  0
LINE
  5
EB1
  8
0
 10
189.393798
 20
363.458986
 30
0.0
 11
119.661547
 21
363.458986
 31
0.0
  0
LINE
  5
EB2
  8
0
 62
     8
 10
204.866851
 20
326.514791
 30
0.0
 11
122.860136
 21
326.514791
 31
0.0
  0
LINE
  5
EB3
  8
0
 62
     8
 10
189.483323
 20
342.510897
 30
0.0
 11
106.882967
 21
342.510897
 31
0.0
  0
LINE
  5
EB4
  8
0
 62
     8
 10
265.306302
 20
307.561757
 30
0.0
 11
122.860136
 21
307.561757
 31
0.0
  0
LINE
  5
EB5
  8
0
 10
119.661547
 20
363.458986
 30
0.0
 11
106.882967
 21
342.510897
 31
0.0
  0
ARC
  5
EB6
  8
0
 10
207.353964
 20
344.301917
 30
0.0
 40
17.960167
 50
180.0
 51
270.0
  0
ARC
  5
EB7
  8
0
 10
207.353964
 20
695.645561
 30
0.0
 40
17.960167
 50
90.0
 51
180.0
  0
LINE
  5
EB8
  8
0
 10
577.946147
 20
454.929606
 30
0.0
 11
458.008606
 21
454.929606
 31
0.0
  0
LINE
  5
EB9
  8
0
 10
577.946147
 20
480.683601
 30
0.0
 11
458.008606
 21
480.683601
 31
0.0
  0
LINE
  5
EBA
  8
0
 10
577.946147
 20
407.900573
 30
0.0
 11
458.008606
 21
407.900573
 31
0.0
  0
LINE
  5
EBB
  8
0
 10
577.946147
 20
692.314263
 30
0.0
 11
458.008606
 21
692.314263
 31
0.0
  0
LINE
  5
EBC
  8
0
 62
     8
 10
511.812364
 20
495.240205
 30
0.0
 11
511.812364
 21
531.071854
 31
0.0
  0
LINE
  5
EBD
  8
0
 62
     8
 10
468.096807
 20
495.240205
 30
0.0
 11
468.096807
 21
531.071854
 31
0.0
  0
LINE
  5
EBE
  8
0
 10
458.008606
 20
480.683601
 30
0.0
 11
458.008606
 21
692.314263
 31
0.0
  0
LINE
  5
EBF
  8
0
 62
     8
 10
511.812364
 20
495.240205
 30
0.0
 11
468.096807
 21
495.240205
 31
0.0
  0
LINE
  5
EC0
  8
0
 10
458.008606
 20
407.900573
 30
0.0
 11
458.008606
 21
454.929606
 31
0.0
  0
LINE
  5
EC1
  8
0
 62
     8
 10
468.096807
 20
592.657498
 30
0.0
 11
468.096807
 21
628.489147
 31
0.0
  0
LINE
  5
EC2
  8
0
 62
     8
 10
511.812364
 20
592.657498
 30
0.0
 11
511.812364
 21
628.489147
 31
0.0
  0
LINE
  5
EC3
  8
0
 62
     8
 10
511.812364
 20
592.657498
 30
0.0
 11
468.096807
 21
592.657498
 31
0.0
  0
LINE
  5
EC4
  8
0
 62
     8
 10
511.812364
 20
579.22063
 30
0.0
 11
468.096807
 21
579.22063
 31
0.0
  0
LINE
  5
EC5
  8
0
 62
     8
 10
511.812364
 20
543.388981
 30
0.0
 11
468.096807
 21
543.388981
 31
0.0
  0
LINE
  5
EC6
  8
0
 62
     8
 10
511.812364
 20
531.071854
 30
0.0
 11
468.096807
 21
531.071854
 31
0.0
  0
LINE
  5
EC7
  8
0
 62
     8
 10
468.096807
 20
543.388981
 30
0.0
 11
468.096807
 21
579.22063
 31
0.0
  0
LINE
  5
EC8
  8
0
 62
     8
 10
511.812364
 20
543.388981
 30
0.0
 11
511.812364
 21
579.22063
 31
0.0
  0
LINE
  5
EC9
  8
0
 62
     8
 10
511.812364
 20
676.637923
 30
0.0
 11
468.096807
 21
676.637923
 31
0.0
  0
LINE
  5
ECA
  8
0
 62
     8
 10
511.812364
 20
628.489147
 30
0.0
 11
468.096807
 21
628.489147
 31
0.0
  0
LINE
  5
ECB
  8
0
 62
     8
 10
511.812364
 20
640.806274
 30
0.0
 11
468.096807
 21
640.806274
 31
0.0
  0
LINE
  5
ECC
  8
0
 62
     8
 10
468.096807
 20
640.806274
 30
0.0
 11
468.096807
 21
676.637923
 31
0.0
  0
LINE
  5
ECD
  8
0
 62
     8
 10
511.812364
 20
640.806274
 30
0.0
 11
511.812364
 21
676.637923
 31
0.0
  0
LINE
  5
ECE
  8
0
 10
602.606208
 20
344.301917
 30
0.0
 11
602.606208
 21
695.645561
 31
0.0
  0
LINE
  5
ECF
  8
0
 10
577.946147
 20
480.683601
 30
0.0
 11
577.946147
 21
692.314263
 31
0.0
  0
LINE
  5
ED0
  8
0
 10
694.54981
 20
303.459175
 30
0.0
 11
594.111464
 21
303.459175
 31
0.0
  0
ARC
  5
ED1
  8
0
 10
584.646042
 20
344.301917
 30
0.0
 40
17.960167
 50
270.0
 51
0.0
  0
LINE
  5
ED2
  8
0
 10
577.946147
 20
407.900573
 30
0.0
 11
577.946147
 21
454.929606
 31
0.0
  0
LINE
  5
ED3
  8
0
 10
710.776969
 20
324.719674
 30
0.0
 11
778.580533
 21
324.719674
 31
0.0
  0
LINE
  5
ED4
  8
0
 10
710.776969
 20
311.608091
 30
0.0
 11
710.776969
 21
324.719674
 31
0.0
  0
LINE
  5
ED5
  8
0
 62
     8
 10
720.454454
 20
319.617454
 30
0.0
 11
778.580533
 21
319.617454
 31
0.0
  0
LINE
  5
ED6
  8
0
 10
778.580533
 20
303.459175
 30
0.0
 11
724.10088
 21
303.459175
 31
0.0
  0
LINE
  5
ED7
  8
0
 62
     8
 10
720.454454
 20
307.64458
 30
0.0
 11
720.454454
 21
319.617454
 31
0.0
  0
LINE
  5
ED8
  8
0
 62
     8
 10
571.220676
 20
610.573323
 30
0.0
 11
571.220676
 21
628.489147
 31
0.0
  0
LINE
  5
ED9
  8
0
 62
     8
 10
549.362898
 20
610.573323
 30
0.0
 11
549.362898
 21
628.489147
 31
0.0
  0
LINE
  5
EDA
  8
0
 62
     8
 10
571.220676
 20
513.15603
 30
0.0
 11
549.362898
 21
513.15603
 31
0.0
  0
LINE
  5
EDB
  8
0
 62
     8
 10
571.220676
 20
531.071854
 30
0.0
 11
549.362898
 21
531.071854
 31
0.0
  0
LINE
  5
EDC
  8
0
 62
     8
 10
549.362898
 20
513.15603
 30
0.0
 11
549.362898
 21
531.071854
 31
0.0
  0
LINE
  5
EDD
  8
0
 62
     8
 10
571.220676
 20
513.15603
 30
0.0
 11
571.220676
 21
531.071854
 31
0.0
  0
LINE
  5
EDE
  8
0
 62
     8
 10
571.220676
 20
610.573323
 30
0.0
 11
549.362898
 21
610.573323
 31
0.0
  0
LINE
  5
EDF
  8
0
 62
     8
 10
571.220676
 20
561.304805
 30
0.0
 11
549.362898
 21
561.304805
 31
0.0
  0
LINE
  5
EE0
  8
0
 62
     8
 10
571.220676
 20
579.22063
 30
0.0
 11
549.362898
 21
579.22063
 31
0.0
  0
LINE
  5
EE1
  8
0
 62
     8
 10
549.362898
 20
561.304805
 30
0.0
 11
549.362898
 21
579.22063
 31
0.0
  0
LINE
  5
EE2
  8
0
 62
     8
 10
571.220676
 20
561.304805
 30
0.0
 11
571.220676
 21
579.22063
 31
0.0
  0
ARC
  5
EE3
  8
0
 10
584.646042
 20
695.645561
 30
0.0
 40
17.960167
 50
0.0
 51
90.0
  0
LINE
  5
EE4
  8
0
 62
     8
 10
571.220676
 20
658.722098
 30
0.0
 11
571.220676
 21
676.637923
 31
0.0
  0
LINE
  5
EE5
  8
0
 62
     8
 10
549.362898
 20
658.722098
 30
0.0
 11
549.362898
 21
676.637923
 31
0.0
  0
LINE
  5
EE6
  8
0
 62
     8
 10
571.220676
 20
658.722098
 30
0.0
 11
549.362898
 21
658.722098
 31
0.0
  0
LINE
  5
EE7
  8
0
 62
     8
 10
571.220676
 20
628.489147
 30
0.0
 11
549.362898
 21
628.489147
 31
0.0
  0
LINE
  5
EE8
  8
0
 62
     8
 10
571.220676
 20
676.637923
 30
0.0
 11
549.362898
 21
676.637923
 31
0.0
  0
LINE
  5
EE9
  8
0
 10
796.000003
 20
176.843843
 30
0.0
 11
796.000003
 21
294.758556
 31
0.0
  0
ENDBLK
  5
EEB
  8
0
  0
BLOCK
  8
0
  2
A$C379B76C2
 70
     0
 10
0.0
 20
0.0
 30
0.0
  3
A$C379B76C2
  1

  0
LINE
  5
103C
  8
0
 10
684.481581
 20
538.78046
 30
0.0
 11
1203.059905
 21
538.78046
 31
0.0
  0
LINE
  5
103D
  8
0
 10
1033.988998
 20
135.635577
 30
0.0
 11
1167.488316
 21
135.635577
 31
0.0
  0
LINE
  5
103E
  8
0
 10
1033.988998
 20
143.840231
 30
0.0
 11
1163.385989
 21
143.840231
 31
0.0
  0
LINE
  5
103F
  8
0
 10
1033.988998
 20
160.887398
 30
0.0
 11
1163.385989
 21
160.887398
 31
0.0
  0
LINE
  5
1040
  8
0
 10
1033.988998
 20
169.092052
 30
0.0
 11
1163.385989
 21
169.092052
 31
0.0
  0
LINE
  5
1041
  8
0
 10
1033.988998
 20
185.129148
 30
0.0
 11
1163.385989
 21
185.129148
 31
0.0
  0
LINE
  5
1042
  8
0
 10
1033.988998
 20
193.333802
 30
0.0
 11
1163.385989
 21
193.333802
 31
0.0
  0
LINE
  5
1043
  8
0
 10
818.259042
 20
319.861786
 30
0.0
 11
1147.778764
 21
319.861786
 31
0.0
  0
LINE
  5
1044
  8
0
 10
818.259042
 20
347.331043
 30
0.0
 11
1147.778764
 21
347.331043
 31
0.0
  0
LINE
  5
1045
  8
0
 10
387.999999
 20
193.393793
 30
0.0
 11
387.999999
 21
606.606203
 31
0.0
  0
LINE
  5
1046
  8
0
 10
684.481581
 20
193.393793
 30
0.0
 11
684.481581
 21
606.606203
 31
0.0
  0
LINE
  5
1047
  8
0
 62
     1
 10
563.337798
 20
193.393793
 30
0.0
 11
563.337798
 21
606.606203
 31
0.0
  0
LINE
  5
1048
  8
0
  6
DASHED2
 10
-0.000001
 20
193.393793
 30
0.0
 11
-0.000001
 21
606.606203
 31
0.0
  0
LINE
  5
1049
  8
0
  6
DASHED2
 10
373.152135
 20
-0.000002
 30
0.0
 11
491.066847
 21
-0.000002
 31
0.0
  0
LINE
  5
104A
  8
0
  6
DASHED2
 10
275.906877
 20
193.393793
 30
0.0
 11
275.906877
 21
124.813409
 31
0.0
  0
LINE
  5
104B
  8
0
  6
DASHED2
 10
368.801825
 20
17.419468
 30
0.0
 11
368.801825
 21
69.273411
 31
0.0
  0
LINE
  5
104C
  8
0
  6
DASHED2
 10
373.152135
 20
-0.000002
 30
0.0
 11
373.152135
 21
17.419468
 31
0.0
  0
LINE
  5
104D
  8
0
  6
DASHED2
 10
368.801825
 20
17.419468
 30
0.0
 11
373.152135
 21
17.419468
 31
0.0
  0
LINE
  5
104E
  8
0
  6
DASHED2
 10
275.906877
 20
124.813409
 30
0.0
 11
368.801825
 21
124.813409
 31
0.0
  0
LINE
  5
104F
  8
0
  6
DASHED2
 10
368.801825
 20
104.075902
 30
0.0
 11
368.801825
 21
124.813409
 31
0.0
  0
LINE
  5
1050
  8
0
  6
DASHED2
 10
330.290216
 20
69.273411
 30
0.0
 11
330.290216
 21
104.075902
 31
0.0
  0
LINE
  5
1051
  8
0
  6
DASHED2
 10
368.801825
 20
104.075902
 30
0.0
 11
330.290216
 21
104.075902
 31
0.0
  0
LINE
  5
1052
  8
0
  6
DASHED2
 10
368.801825
 20
69.273411
 30
0.0
 11
330.290216
 21
69.273411
 31
0.0
  0
LINE
  5
1053
  8
0
  6
DASHED2
 10
-0.000001
 20
193.393793
 30
0.0
 11
275.906877
 21
193.393793
 31
0.0
  0
LINE
  5
1054
  8
0
 10
756.801825
 20
104.075902
 30
0.0
 11
718.290216
 21
104.075902
 31
0.0
  0
LINE
  5
1055
  8
0
 10
756.801825
 20
69.273411
 30
0.0
 11
718.290216
 21
69.273411
 31
0.0
  0
LINE
  5
1056
  8
0
 10
684.481581
 20
328.600729
 30
0.0
 11
776.913969
 21
328.600729
 31
0.0
  0
LINE
  5
1057
  8
0
 10
663.906877
 20
124.813409
 30
0.0
 11
967.611485
 21
124.813409
 31
0.0
  0
LINE
  5
1058
  8
0
 62
     1
 10
684.481581
 20
226.324665
 30
0.0
 11
967.611485
 21
226.324665
 31
0.0
  0
LINE
  5
1059
  8
0
 10
663.906877
 20
193.393793
 30
0.0
 11
663.906877
 21
124.813409
 31
0.0
  0
LINE
  5
105A
  8
0
  6
DASHED2
 10
495.417157
 20
124.813409
 30
0.0
 11
620.662017
 21
124.813409
 31
0.0
  0
LINE
  5
105B
  8
0
  6
DASHED2
 10
495.417157
 20
17.419468
 30
0.0
 11
495.417157
 21
69.273411
 31
0.0
  0
LINE
  5
105C
  8
0
  6
DASHED2
 10
491.066847
 20
-0.000002
 30
0.0
 11
491.066847
 21
17.419468
 31
0.0
  0
LINE
  5
105D
  8
0
  6
DASHED2
 10
491.066847
 20
17.419468
 30
0.0
 11
495.417157
 21
17.419468
 31
0.0
  0
LINE
  5
105E
  8
0
  6
DASHED2
 10
495.417157
 20
104.075902
 30
0.0
 11
495.417157
 21
124.813409
 31
0.0
  0
LINE
  5
105F
  8
0
  6
DASHED2
 10
495.118146
 20
69.273411
 30
0.0
 11
533.629755
 21
69.273411
 31
0.0
  0
LINE
  5
1060
  8
0
  6
DASHED2
 10
495.118146
 20
104.075902
 30
0.0
 11
533.629755
 21
104.075902
 31
0.0
  0
LINE
  5
1061
  8
0
  6
DASHED2
 10
533.629755
 20
69.273411
 30
0.0
 11
533.629755
 21
104.075902
 31
0.0
  0
LINE
  5
1062
  8
0
 10
718.290216
 20
69.273411
 30
0.0
 11
718.290216
 21
104.075902
 31
0.0
  0
LINE
  5
1063
  8
0
 10
387.999999
 20
193.393793
 30
0.0
 11
684.481581
 21
193.393793
 31
0.0
  0
LINE
  5
1064
  8
0
 62
     8
 10
536.074082
 20
284.187637
 30
0.0
 11
536.074082
 21
327.903194
 31
0.0
  0
LINE
  5
1065
  8
0
 62
     8
 10
520.44074
 20
284.187637
 30
0.0
 11
520.44074
 21
327.903194
 31
0.0
  0
LINE
  5
1066
  8
0
 10
544.53682
 20
218.053854
 30
0.0
 11
544.53682
 21
337.991395
 31
0.0
  0
LINE
  5
1067
  8
0
 62
     8
 10
493.813062
 20
284.187637
 30
0.0
 11
493.813062
 21
327.903194
 31
0.0
  0
LINE
  5
1068
  8
0
 62
     8
 10
509.446405
 20
284.187637
 30
0.0
 11
509.446405
 21
327.903194
 31
0.0
  0
LINE
  5
1069
  8
0
 62
     8
 10
483.437975
 20
284.187637
 30
0.0
 11
483.437975
 21
327.903194
 31
0.0
  0
LINE
  5
106A
  8
0
 62
     8
 10
467.804633
 20
284.187637
 30
0.0
 11
467.804633
 21
327.903194
 31
0.0
  0
LINE
  5
106B
  8
0
 62
     8
 10
456.810297
 20
284.187637
 30
0.0
 11
456.810297
 21
327.903194
 31
0.0
  0
LINE
  5
106C
  8
0
 62
     8
 10
441.176955
 20
284.187637
 30
0.0
 11
441.176955
 21
327.903194
 31
0.0
  0
LINE
  5
106D
  8
0
 10
396.415955
 20
193.393793
 30
0.0
 11
396.415955
 21
337.991395
 31
0.0
  0
LINE
  5
106E
  8
0
 10
419.980636
 20
218.053854
 30
0.0
 11
419.980636
 21
337.991395
 31
0.0
  0
LINE
  5
106F
  8
0
 10
431.762976
 20
218.053854
 30
0.0
 11
431.762976
 21
337.991395
 31
0.0
  0
LINE
  5
1070
  8
0
 10
431.762976
 20
218.053854
 30
0.0
 11
544.53682
 21
218.053854
 31
0.0
  0
LINE
  5
1071
  8
0
 62
     8
 10
456.810297
 20
224.779325
 30
0.0
 11
456.810297
 21
246.637104
 31
0.0
  0
LINE
  5
1072
  8
0
 62
     8
 10
448.183194
 20
224.779325
 30
0.0
 11
448.183194
 21
246.637104
 31
0.0
  0
LINE
  5
1073
  8
0
 10
396.415955
 20
218.053854
 30
0.0
 11
419.980636
 21
218.053854
 31
0.0
  0
LINE
  5
1074
  8
0
 62
     8
 10
448.183194
 20
224.779325
 30
0.0
 11
456.810297
 21
224.779325
 31
0.0
  0
LINE
  5
1075
  8
0
 62
     8
 10
441.176955
 20
284.187637
 30
0.0
 11
456.810297
 21
284.187637
 31
0.0
  0
LINE
  5
1076
  8
0
 62
     8
 10
448.183194
 20
246.637104
 30
0.0
 11
456.810297
 21
246.637104
 31
0.0
  0
LINE
  5
1077
  8
0
 62
     8
 10
536.074082
 20
224.779325
 30
0.0
 11
536.074082
 21
246.637104
 31
0.0
  0
LINE
  5
1078
  8
0
 62
     8
 10
527.446979
 20
224.779325
 30
0.0
 11
527.446979
 21
246.637104
 31
0.0
  0
LINE
  5
1079
  8
0
 62
     8
 10
500.819301
 20
224.779325
 30
0.0
 11
500.819301
 21
246.637104
 31
0.0
  0
LINE
  5
107A
  8
0
 62
     8
 10
509.446405
 20
224.779325
 30
0.0
 11
509.446405
 21
246.637104
 31
0.0
  0
LINE
  5
107B
  8
0
 62
     8
 10
474.810871
 20
224.779325
 30
0.0
 11
474.810871
 21
246.637104
 31
0.0
  0
LINE
  5
107C
  8
0
 62
     8
 10
483.437975
 20
224.779325
 30
0.0
 11
483.437975
 21
246.637104
 31
0.0
  0
LINE
  5
107D
  8
0
 62
     8
 10
500.819301
 20
224.779325
 30
0.0
 11
509.446405
 21
224.779325
 31
0.0
  0
LINE
  5
107E
  8
0
 62
     8
 10
474.810871
 20
224.779325
 30
0.0
 11
483.437975
 21
224.779325
 31
0.0
  0
LINE
  5
107F
  8
0
 62
     8
 10
527.446979
 20
224.779325
 30
0.0
 11
536.074082
 21
224.779325
 31
0.0
  0
LINE
  5
1080
  8
0
 62
     8
 10
493.813062
 20
284.187637
 30
0.0
 11
509.446405
 21
284.187637
 31
0.0
  0
LINE
  5
1081
  8
0
 62
     8
 10
467.804633
 20
284.187637
 30
0.0
 11
483.437975
 21
284.187637
 31
0.0
  0
LINE
  5
1082
  8
0
 62
     8
 10
500.819301
 20
246.637104
 30
0.0
 11
509.446405
 21
246.637104
 31
0.0
  0
LINE
  5
1083
  8
0
 62
     8
 10
474.810871
 20
246.637104
 30
0.0
 11
483.437975
 21
246.637104
 31
0.0
  0
LINE
  5
1084
  8
0
 62
     8
 10
520.44074
 20
284.187637
 30
0.0
 11
536.074082
 21
284.187637
 31
0.0
  0
LINE
  5
1085
  8
0
 62
     8
 10
527.446979
 20
246.637104
 30
0.0
 11
536.074082
 21
246.637104
 31
0.0
  0
LINE
  5
1086
  8
0
 10
431.762976
 20
337.991395
 30
0.0
 11
544.53682
 21
337.991395
 31
0.0
  0
LINE
  5
1087
  8
0
 10
396.415955
 20
337.991395
 30
0.0
 11
419.980636
 21
337.991395
 31
0.0
  0
LINE
  5
1088
  8
0
 62
     8
 10
441.176955
 20
327.903194
 30
0.0
 11
456.810297
 21
327.903194
 31
0.0
  0
LINE
  5
1089
  8
0
 62
     8
 10
493.813062
 20
327.903194
 30
0.0
 11
509.446405
 21
327.903194
 31
0.0
  0
LINE
  5
108A
  8
0
 62
     8
 10
467.804633
 20
327.903194
 30
0.0
 11
483.437975
 21
327.903194
 31
0.0
  0
LINE
  5
108B
  8
0
 62
     8
 10
520.44074
 20
327.903194
 30
0.0
 11
536.074082
 21
327.903194
 31
0.0
  0
LINE
  5
108C
  8
0
 10
1033.988998
 20
202.480236
 30
0.0
 11
1033.988998
 21
165.728331
 31
0.0
  0
LINE
  5
108D
  8
0
 10
973.668266
 20
202.480236
 30
0.0
 11
973.668266
 21
165.728331
 31
0.0
  0
LINE
  5
108E
  8
0
 10
967.611485
 20
319.861786
 30
0.0
 11
967.611485
 21
124.813409
 31
0.0
  0
LINE
  5
108F
  8
0
 10
883.417157
 20
47.894442
 30
0.0
 11
999.710675
 21
47.894442
 31
0.0
  0
LINE
  5
1090
  8
0
 10
883.417157
 20
56.099096
 30
0.0
 11
997.582714
 21
56.099096
 31
0.0
  0
LINE
  5
1091
  8
0
 10
883.417157
 20
17.419468
 30
0.0
 11
883.417157
 21
69.273411
 31
0.0
  0
LINE
  5
1092
  8
0
 10
756.801825
 20
17.419468
 30
0.0
 11
756.801825
 21
69.273411
 31
0.0
  0
LINE
  5
1093
  8
0
 10
756.801825
 20
17.419468
 30
0.0
 11
883.417157
 21
17.419468
 31
0.0
  0
LINE
  5
1094
  8
0
 10
761.152135
 20
-0.000002
 30
0.0
 11
879.066847
 21
-0.000002
 31
0.0
  0
LINE
  5
1095
  8
0
 62
     8
 10
772.725908
 20
-0.000002
 30
0.0
 11
772.725908
 21
17.419468
 31
0.0
  0
LINE
  5
1096
  8
0
 10
761.152135
 20
-0.000002
 30
0.0
 11
761.152135
 21
17.419468
 31
0.0
  0
LINE
  5
1097
  8
0
 62
     8
 10
803.661452
 20
-0.000002
 30
0.0
 11
803.661452
 21
17.419468
 31
0.0
  0
LINE
  5
1098
  8
0
 62
     8
 10
788.19368
 20
-0.000002
 30
0.0
 11
788.19368
 21
17.419468
 31
0.0
  0
LINE
  5
1099
  8
0
 62
     8
 10
834.596997
 20
-0.000002
 30
0.0
 11
834.596997
 21
17.419468
 31
0.0
  0
LINE
  5
109A
  8
0
 62
     8
 10
819.129225
 20
-0.000002
 30
0.0
 11
819.129225
 21
17.419468
 31
0.0
  0
LINE
  5
109B
  8
0
 62
     8
 10
865.532542
 20
-0.000002
 30
0.0
 11
865.532542
 21
17.419468
 31
0.0
  0
LINE
  5
109C
  8
0
 62
     8
 10
850.064769
 20
-0.000002
 30
0.0
 11
850.064769
 21
17.419468
 31
0.0
  0
LINE
  5
109D
  8
0
 10
879.066847
 20
-0.000002
 30
0.0
 11
879.066847
 21
17.419468
 31
0.0
  0
ARC
  5
109E
  8
0
 10
820.109491
 20
294.025588
 30
0.0
 40
200.221737
 50
251.567466
 51
288.432534
  0
ARC
  5
109F
  8
0
 10
820.109491
 20
-120.676275
 30
0.0
 40
200.221737
 50
71.567466
 51
108.432534
  0
LINE
  5
10A0
  8
0
 10
756.801825
 20
104.075902
 30
0.0
 11
756.801825
 21
124.813409
 31
0.0
  0
LINE
  5
10A1
  8
0
 10
883.417157
 20
104.075902
 30
0.0
 11
883.417157
 21
124.813409
 31
0.0
  0
LINE
  5
10A2
  8
0
 10
883.118146
 20
69.273411
 30
0.0
 11
921.629755
 21
69.273411
 31
0.0
  0
LINE
  5
10A3
  8
0
 10
883.118146
 20
104.075902
 30
0.0
 11
921.629755
 21
104.075902
 31
0.0
  0
LINE
  5
10A4
  8
0
 10
921.629755
 20
69.273411
 30
0.0
 11
921.629755
 21
104.075902
 31
0.0
  0
LINE
  5
10A5
  8
0
 10
1007.915329
 20
56.099096
 30
0.0
 11
1007.915329
 21
116.158107
 31
0.0
  0
LINE
  5
10A6
  8
0
 10
999.710675
 20
58.227058
 30
0.0
 11
999.710675
 21
116.158107
 31
0.0
  0
ARC
  5
10A7
  8
0
 10
999.710675
 20
56.099096
 30
0.0
 40
8.204654
 50
270.0
 51
0.0
  0
ARC
  5
10A8
  8
0
 10
997.582714
 20
58.227058
 30
0.0
 40
2.127962
 50
270.0
 51
0.0
  0
LINE
  5
10A9
  8
0
 10
973.668266
 20
165.728331
 30
0.0
 11
1033.988998
 21
165.728331
 31
0.0
  0
LINE
  5
10AA
  8
0
 10
973.668266
 20
152.910011
 30
0.0
 11
1033.988998
 21
152.910011
 31
0.0
  0
LINE
  5
10AB
  8
0
 10
973.668266
 20
116.158107
 30
0.0
 11
1033.988998
 21
116.158107
 31
0.0
  0
LINE
  5
10AC
  8
0
 10
973.668266
 20
152.910011
 30
0.0
 11
973.668266
 21
116.158107
 31
0.0
  0
LINE
  5
10AD
  8
0
 10
1033.988998
 20
152.910011
 30
0.0
 11
1033.988998
 21
116.158107
 31
0.0
  0
LINE
  5
10AE
  8
0
 10
773.968243
 20
337.120778
 30
0.0
 11
818.259042
 21
359.24301
 31
0.0
  0
LINE
  5
10AF
  8
0
 10
818.259042
 20
359.24301
 30
0.0
 11
818.259042
 21
307.949819
 31
0.0
  0
LINE
  5
10B0
  8
0
 10
773.968243
 20
330.072051
 30
0.0
 11
818.259042
 21
307.949819
 31
0.0
  0
LINE
  5
10B1
  8
0
 10
773.968243
 20
337.120778
 30
0.0
 11
773.968243
 21
330.072051
 31
0.0
  0
LINE
  5
10B2
  8
0
 10
866.273221
 20
364.27814
 30
0.0
 11
920.570273
 21
364.27814
 31
0.0
  0
LINE
  5
10B3
  8
0
 10
866.273221
 20
383.039536
 30
0.0
 11
920.570273
 21
383.039536
 31
0.0
  0
LINE
  5
10B4
  8
0
 10
866.273221
 20
364.27814
 30
0.0
 11
866.273221
 21
383.039536
 31
0.0
  0
LINE
  5
10B5
  8
0
 10
920.570273
 20
364.27814
 30
0.0
 11
920.570273
 21
383.039536
 31
0.0
  0
LINE
  5
10B6
  8
0
 10
1033.988998
 20
301.620685
 30
0.0
 11
1033.988998
 21
264.86878
 31
0.0
  0
LINE
  5
10B7
  8
0
 10
973.668266
 20
301.620685
 30
0.0
 11
973.668266
 21
264.86878
 31
0.0
  0
LINE
  5
10B8
  8
0
 10
973.668266
 20
215.298556
 30
0.0
 11
1033.988998
 21
215.298556
 31
0.0
  0
LINE
  5
10B9
  8
0
 10
973.668266
 20
202.480236
 30
0.0
 11
1033.988998
 21
202.480236
 31
0.0
  0
LINE
  5
10BA
  8
0
 10
973.668266
 20
264.86878
 30
0.0
 11
1033.988998
 21
264.86878
 31
0.0
  0
LINE
  5
10BB
  8
0
 10
973.668266
 20
252.05046
 30
0.0
 11
1033.988998
 21
252.05046
 31
0.0
  0
LINE
  5
10BC
  8
0
 10
973.668266
 20
252.05046
 30
0.0
 11
973.668266
 21
215.298556
 31
0.0
  0
LINE
  5
10BD
  8
0
 10
1033.988998
 20
252.05046
 30
0.0
 11
1033.988998
 21
215.298556
 31
0.0
  0
LINE
  5
10BE
  8
0
 10
973.668266
 20
301.620685
 30
0.0
 11
1033.988998
 21
301.620685
 31
0.0
  0
LINE
  5
10BF
  8
0
  6
DASHED2
 10
334.026866
 20
795.999998
 30
0.0
 11
521.491496
 21
795.999998
 31
0.0
  0
LINE
  5
10C0
  8
0
  6
DASHED2
 10
296.067648
 20
606.606203
 30
0.0
 11
296.067648
 21
689.117034
 31
0.0
  0
LINE
  5
10C1
  8
0
  6
DASHED2
 10
-0.000001
 20
606.606203
 30
0.0
 11
296.067648
 21
606.606203
 31
0.0
  0
ARC
  5
10C2
  8
0
  6
DASHED2
 10
714.365664
 20
600.74158
 30
0.0
 40
427.531813
 50
152.824932
 51
168.070332
  0
LINE
  5
10C3
  8
0
 10
684.067648
 20
689.117034
 30
0.0
 11
947.450714
 21
689.117034
 31
0.0
  0
LINE
  5
10C4
  8
0
 10
722.026866
 20
795.999998
 30
0.0
 11
909.491496
 21
795.999998
 31
0.0
  0
LINE
  5
10C5
  8
0
 10
692.04787
 20
538.78046
 30
0.0
 11
692.04787
 21
676.338455
 31
0.0
  0
LINE
  5
10C6
  8
0
 62
     8
 10
731.948993
 20
538.78046
 30
0.0
 11
731.948993
 21
673.139865
 31
0.0
  0
LINE
  5
10C7
  8
0
 62
     8
 10
712.995959
 20
538.78046
 30
0.0
 11
712.995959
 21
689.117034
 31
0.0
  0
LINE
  5
10C8
  8
0
 10
387.999999
 20
606.606203
 30
0.0
 11
684.481581
 21
606.606203
 31
0.0
  0
ARC
  5
10C9
  8
0
  6
DASHED2
 10
141.152698
 20
600.74158
 30
0.0
 40
427.531813
 50
11.929668
 51
27.175068
  0
LINE
  5
10CA
  8
0
  6
DASHED2
 10
559.450714
 20
654.250909
 30
0.0
 11
559.450714
 21
689.117034
 31
0.0
  0
ARC
  5
10CB
  8
0
 10
1102.365664
 20
600.74158
 30
0.0
 40
427.531813
 50
152.824932
 51
168.070332
  0
LINE
  5
10CC
  8
0
 10
692.04787
 20
676.338455
 30
0.0
 11
712.995959
 21
689.117034
 31
0.0
  0
LINE
  5
10CD
  8
0
 62
     8
 10
769.85506
 20
538.78046
 30
0.0
 11
769.85506
 21
673.139865
 31
0.0
  0
LINE
  5
10CE
  8
0
 62
     8
 10
788.808094
 20
538.78046
 30
0.0
 11
788.808094
 21
673.139865
 31
0.0
  0
LINE
  5
10CF
  8
0
 62
     8
 10
807.761128
 20
538.78046
 30
0.0
 11
807.761128
 21
673.139865
 31
0.0
  0
LINE
  5
10D0
  8
0
 62
     8
 10
826.714162
 20
538.78046
 30
0.0
 11
826.714162
 21
673.139865
 31
0.0
  0
LINE
  5
10D1
  8
0
 62
     8
 10
845.667195
 20
538.78046
 30
0.0
 11
845.667195
 21
673.139865
 31
0.0
  0
LINE
  5
10D2
  8
0
 62
     8
 10
864.620229
 20
538.78046
 30
0.0
 11
864.620229
 21
673.139865
 31
0.0
  0
LINE
  5
10D3
  8
0
 62
     8
 10
883.573263
 20
538.78046
 30
0.0
 11
883.573263
 21
673.139865
 31
0.0
  0
LINE
  5
10D4
  8
0
 62
     8
 10
902.526297
 20
538.78046
 30
0.0
 11
902.526297
 21
673.139865
 31
0.0
  0
LINE
  5
10D5
  8
0
 62
     8
 10
918.522403
 20
538.78046
 30
0.0
 11
918.522403
 21
689.117034
 31
0.0
  0
LINE
  5
10D6
  8
0
 10
939.470492
 20
538.78046
 30
0.0
 11
939.470492
 21
676.338455
 31
0.0
  0
LINE
  5
10D7
  8
0
 62
     8
 10
750.902027
 20
538.78046
 30
0.0
 11
750.902027
 21
673.139865
 31
0.0
  0
LINE
  5
10D8
  8
0
 10
866.273221
 20
491.282779
 30
0.0
 11
920.570273
 21
491.282779
 31
0.0
  0
LINE
  5
10D9
  8
0
 10
866.273221
 20
472.521383
 30
0.0
 11
920.570273
 21
472.521383
 31
0.0
  0
LINE
  5
10DA
  8
0
 10
866.273221
 20
472.521383
 30
0.0
 11
866.273221
 21
491.282779
 31
0.0
  0
LINE
  5
10DB
  8
0
 10
920.570273
 20
472.521383
 30
0.0
 11
920.570273
 21
491.282779
 31
0.0
  0
LINE
  5
10DC
  8
0
 10
939.470492
 20
676.338455
 30
0.0
 11
918.522403
 21
689.117034
 31
0.0
  0
ARC
  5
10DD
  8
0
 10
529.152698
 20
600.74158
 30
0.0
 40
427.531813
 50
11.929668
 51
27.175068
  0
LINE
  5
10DE
  8
0
 62
     8
 10
1258.045194
 20
265.559298
 30
0.0
 11
1258.045194
 21
419.286143
 31
0.0
  0
LINE
  5
10DF
  8
0
 10
1668.999999
 20
302.78046
 30
0.0
 11
1668.999999
 21
552.78046
 31
0.0
  0
LINE
  5
10E0
  8
0
 62
     8
 10
1371.118398
 20
302.78046
 30
0.0
 11
1371.118398
 21
552.78046
 31
0.0
  0
LINE
  5
10E1
  8
0
 10
1277.999999
 20
265.559298
 30
0.0
 11
1277.999999
 21
590.001621
 31
0.0
  0
LINE
  5
10E2
  8
0
 62
     8
 10
1226.725197
 20
265.559298
 30
0.0
 11
1226.725197
 21
419.286143
 31
0.0
  0
LINE
  5
10E3
  8
0
 10
1203.059905
 20
265.559298
 30
0.0
 11
1203.059905
 21
590.001621
 31
0.0
  0
LINE
  5
10E4
  8
0
 10
1277.999999
 20
302.78046
 30
0.0
 11
1668.999999
 21
302.78046
 31
0.0
  0
LINE
  5
10E5
  8
0
 10
1184.63237
 20
164.989725
 30
0.0
 11
1184.63237
 21
319.861786
 31
0.0
  0
LINE
  5
10E6
  8
0
 10
1176.427716
 20
164.989725
 30
0.0
 11
1176.427716
 21
319.861786
 31
0.0
  0
LINE
  5
10E7
  8
0
 10
1171.590643
 20
139.737904
 30
0.0
 11
1171.590643
 21
303.420573
 31
0.0
  0
LINE
  5
10E8
  8
0
 10
1163.385989
 20
139.737904
 30
0.0
 11
1163.385989
 21
303.420573
 31
0.0
  0
ARC
  5
10E9
  8
0
 10
1167.488316
 20
139.737904
 30
0.0
 40
4.102327
 50
180.0
 51
0.0
  0
ARC
  5
10EA
  8
0
 10
1180.530043
 20
164.989725
 30
0.0
 40
4.102327
 50
180.0
 51
0.0
  0
LINE
  5
10EB
  8
0
 10
1171.590643
 20
160.887398
 30
0.0
 11
1180.530043
 21
160.887398
 31
0.0
  0
LINE
  5
10EC
  8
0
 10
1171.590643
 20
169.092052
 30
0.0
 11
1176.427716
 21
169.092052
 31
0.0
  0
LINE
  5
10ED
  8
0
 10
1196.906937
 20
189.231475
 30
0.0
 11
1196.906937
 21
319.861786
 31
0.0
  0
LINE
  5
10EE
  8
0
 10
1188.702283
 20
189.231475
 30
0.0
 11
1188.702283
 21
319.861786
 31
0.0
  0
LINE
  5
10EF
  8
0
 10
1203.059905
 20
265.559298
 30
0.0
 11
1277.999999
 21
265.559298
 31
0.0
  0
ARC
  5
10F0
  8
0
 10
1192.80461
 20
189.231475
 30
0.0
 40
4.102327
 50
180.0
 51
0.0
  0
LINE
  5
10F1
  8
0
 10
1184.63237
 20
185.129148
 30
0.0
 11
1192.80461
 21
185.129148
 31
0.0
  0
LINE
  5
10F2
  8
0
 10
1184.63237
 20
193.333802
 30
0.0
 11
1188.702283
 21
193.333802
 31
0.0
  0
LINE
  5
10F3
  8
0
 10
1171.590643
 20
185.129148
 30
0.0
 11
1176.427716
 21
185.129148
 31
0.0
  0
LINE
  5
10F4
  8
0
 10
1171.590643
 20
193.333802
 30
0.0
 11
1176.427716
 21
193.333802
 31
0.0
  0
LINE
  5
10F5
  8
0
 10
1173.225631
 20
303.420573
 30
0.0
 11
1173.225631
 21
384.221854
 31
0.0
  0
LINE
  5
10F6
  8
0
 10
1147.778764
 20
303.420573
 30
0.0
 11
1147.778764
 21
384.221854
 31
0.0
  0
LINE
  5
10F7
  8
0
 10
1147.778764
 20
303.420573
 30
0.0
 11
1173.225631
 21
303.420573
 31
0.0
  0
LINE
  5
10F8
  8
0
 10
1173.225631
 20
319.861786
 30
0.0
 11
1203.059905
 21
319.861786
 31
0.0
  0
LINE
  5
10F9
  8
0
 10
1173.225631
 20
347.331043
 30
0.0
 11
1203.059905
 21
347.331043
 31
0.0
  0
LINE
  5
10FA
  8
0
 10
1277.999999
 20
552.78046
 30
0.0
 11
1668.999999
 21
552.78046
 31
0.0
  0
LINE
  5
10FB
  8
0
 62
     8
 10
1258.045194
 20
438.04754
 30
0.0
 11
1258.045194
 21
590.001621
 31
0.0
  0
LINE
  5
10FC
  8
0
 62
     8
 10
1226.725197
 20
438.04754
 30
0.0
 11
1226.725197
 21
590.001621
 31
0.0
  0
LINE
  5
10FD
  8
0
 10
1213.381426
 20
438.04754
 30
0.0
 11
1267.678478
 21
438.04754
 31
0.0
  0
LINE
  5
10FE
  8
0
 10
1213.381426
 20
419.286143
 30
0.0
 11
1267.678478
 21
419.286143
 31
0.0
  0
LINE
  5
10FF
  8
0
 10
1213.381426
 20
419.286143
 30
0.0
 11
1213.381426
 21
438.04754
 31
0.0
  0
LINE
  5
1100
  8
0
 10
1267.678478
 20
419.286143
 30
0.0
 11
1267.678478
 21
438.04754
 31
0.0
  0
LINE
  5
1101
  8
0
 10
1203.059905
 20
590.001621
 30
0.0
 11
1277.999999
 21
590.001621
 31
0.0
  0
ENDBLK
  5
1103
  8
0
  0
BLOCK
  8
0
  2
A$C05351393
 70
     0
 10
0.0
 20
0.0
 30
0.0
  3
A$C05351393
  1

  0
LINE
  5
1107
  8
0
 10
818.259042
 20
571.308788
 30
0.0
 11
1147.778764
 21
571.308788
 31
0.0
  0
LINE
  5
1108
  8
0
 10
818.259042
 20
543.839532
 30
0.0
 11
1147.778764
 21
543.839532
 31
0.0
  0
LINE
  5
1109
  8
0
 10
871.803717
 20
578.000001
 30
0.0
 11
1147.778764
 21
578.000001
 31
0.0
  0
LINE
  5
110A
  8
0
 10
1017.856707
 20
223.72316
 30
0.0
 11
1188.702283
 21
223.72316
 31
0.0
  0
LINE
  5
110B
  8
0
 10
1017.856707
 20
231.927814
 30
0.0
 11
1186.574321
 21
231.927814
 31
0.0
  0
LINE
  5
110C
  8
0
 10
990.677469
 20
367.820271
 30
0.0
 11
1203.059905
 21
367.820271
 31
0.0
  0
LINE
  5
110D
  8
0
  6
DASHED2
 10
156.016806
 20
307.300182
 30
0.0
 11
-0.000001
 21
392.489377
 31
0.0
  0
POLYLINE
  5
110E
  8
0
 66
     1
 10
0.0
 20
0.0
 30
0.0
  0
VERTEX
  5
1213
  8
0
 10
997.03874
 20
298.454001
 30
0.0
 42
0.070187
  0
VERTEX
  5
1214
  8
0
 10
977.341934
 20
345.714829
 30
0.0
 42
-0.576083
  0
VERTEX
  5
1215
  8
0
 10
990.677469
 20
367.820271
 30
0.0
  0
SEQEND
  5
1216
  8
0
  0
ARC
  5
110F
  8
0
 10
815.759181
 20
232.558179
 30
0.0
 40
151.852304
 50
0.0
 51
180.0
  0
POLYLINE
  5
1110
  8
0
 66
     1
 10
0.0
 20
0.0
 30
0.0
  0
VERTEX
  5
1217
  8
0
 10
807.806599
 20
578.000001
 30
0.0
  0
VERTEX
  5
1218
  8
0
 10
797.008019
 20
578.000001
 30
0.0
 42
0.755869
  0
VERTEX
  5
1219
  8
0
 10
663.906877
 20
108.600796
 30
0.0
  0
SEQEND
  5
121A
  8
0
  0
ARC
  5
1111
  8
0
 62
     1
 10
815.759181
 20
232.558179
 30
0.0
 40
167.629157
 50
19.607346
 51
205.057608
  0
LINE
  5
1112
  8
0
 10
684.481581
 20
647.458104
 30
0.0
 11
509.143782
 21
326.341752
 31
0.0
  0
LINE
  5
1113
  8
0
 10
509.143782
 20
326.341752
 30
0.0
 11
387.999999
 21
392.489377
 31
0.0
  0
LINE
  5
1114
  8
0
  6
DASHED2
 10
275.906877
 20
0.000001
 30
0.0
 11
624.084592
 21
0.000001
 31
0.0
  0
POLYLINE
  5
1115
  8
0
  6
DASHED2
 66
     1
 10
0.0
 20
0.0
 30
0.0
  0
VERTEX
  5
121B
  8
0
  6
DASHED2
 10
156.016806
 20
307.300182
 30
0.0
 42
0.242223
  0
VERTEX
  5
121C
  8
0
  6
DASHED2
 10
275.906877
 20
108.600796
 30
0.0
  0
SEQEND
  5
121D
  8
0
  6
DASHED2
  0
LINE
  5
1116
  8
0
  6
DASHED2
 10
275.906877
 20
108.600796
 30
0.0
 11
275.906877
 21
0.000001
 31
0.0
  0
ARC
  5
1117
  8
0
 10
749.878018
 20
223.683181
 30
0.0
 40
15.291735
 50
59.062698
 51
239.062698
  0
LINE
  5
1118
  8
0
 10
783.793107
 20
185.52728
 30
0.0
 11
742.01654
 21
210.566995
 31
0.0
  0
LINE
  5
1119
  8
0
 10
663.906877
 20
0.000001
 30
0.0
 11
967.611485
 21
0.000001
 31
0.0
  0
LINE
  5
111A
  8
0
 62
     1
 10
663.906877
 20
82.863962
 30
0.0
 11
967.611485
 21
82.863962
 31
0.0
  0
LINE
  5
111B
  8
0
 10
663.906877
 20
232.558179
 30
0.0
 11
663.906877
 21
0.000001
 31
0.0
  0
LINE
  5
111C
  8
0
 10
1012.09135
 20
205.930955
 30
0.0
 11
1012.09135
 21
122.342266
 31
0.0
  0
LINE
  5
111D
  8
0
 10
995.565913
 20
174.676262
 30
0.0
 11
995.565913
 21
122.342266
 31
0.0
  0
LINE
  5
111E
  8
0
 10
827.057363
 20
155.487773
 30
0.0
 11
827.057363
 21
104.430422
 31
0.0
  0
LINE
  5
111F
  8
0
 10
804.460999
 20
155.487773
 30
0.0
 11
804.460999
 21
104.430422
 31
0.0
  0
LINE
  5
1120
  8
0
 10
967.611485
 20
174.676262
 30
0.0
 11
967.611485
 21
0.000001
 31
0.0
  0
LINE
  5
1121
  8
0
 10
804.460999
 20
104.430422
 30
0.0
 11
827.057363
 21
104.430422
 31
0.0
  0
LINE
  5
1122
  8
0
 10
1006.859389
 20
122.342266
 30
0.0
 11
1006.859389
 21
61.627539
 31
0.0
  0
LINE
  5
1123
  8
0
 10
1000.797875
 20
122.342266
 30
0.0
 11
1000.797875
 21
70.035573
 31
0.0
  0
LINE
  5
1124
  8
0
 10
967.611485
 20
70.035573
 30
0.0
 11
1006.859389
 21
70.035573
 31
0.0
  0
LINE
  5
1125
  8
0
 10
967.611485
 20
61.627539
 30
0.0
 11
1006.859389
 21
61.627539
 31
0.0
  0
LINE
  5
1126
  8
0
 10
995.565913
 20
122.342266
 30
0.0
 11
1012.09135
 21
122.342266
 31
0.0
  0
LINE
  5
1127
  8
0
 10
857.841618
 20
182.880916
 30
0.0
 11
997.582714
 21
182.880916
 31
0.0
  0
LINE
  5
1128
  8
0
 10
857.841618
 20
174.676262
 30
0.0
 11
999.710675
 21
174.676262
 31
0.0
  0
ARC
  5
1129
  8
0
 10
881.640344
 20
223.683181
 30
0.0
 40
15.291735
 50
300.937302
 51
120.937302
  0
LINE
  5
112A
  8
0
 10
788.995412
 20
218.065438
 30
0.0
 11
757.739496
 21
236.799367
 31
0.0
  0
LINE
  5
112B
  8
0
 10
773.676744
 20
281.555837
 30
0.0
 11
773.676744
 21
227.247022
 31
0.0
  0
LINE
  5
112C
  8
0
 10
857.841618
 20
281.555837
 30
0.0
 11
857.841618
 21
227.247022
 31
0.0
  0
LINE
  5
112D
  8
0
 10
842.52295
 20
218.065438
 30
0.0
 11
873.778866
 21
236.799367
 31
0.0
  0
CIRCLE
  5
112E
  8
0
 62
     8
 10
815.759181
 20
197.101401
 30
0.0
 40
33.996914
  0
LINE
  5
112F
  8
0
 10
773.676744
 20
155.487773
 30
0.0
 11
857.841618
 21
155.487773
 31
0.0
  0
LINE
  5
1130
  8
0
 10
773.676744
 20
191.590747
 30
0.0
 11
773.676744
 21
155.487773
 31
0.0
  0
LINE
  5
1131
  8
0
 10
857.841618
 20
191.590747
 30
0.0
 11
857.841618
 21
155.487773
 31
0.0
  0
LINE
  5
1132
  8
0
 10
847.725255
 20
185.52728
 30
0.0
 11
889.501822
 21
210.566995
 31
0.0
  0
LINE
  5
1133
  8
0
 10
773.676744
 20
281.555837
 30
0.0
 11
857.841618
 21
281.555837
 31
0.0
  0
LINE
  5
1134
  8
0
 10
821.788852
 20
281.555837
 30
0.0
 11
821.788852
 21
303.459177
 31
0.0
  0
LINE
  5
1135
  8
0
 10
791.146176
 20
303.459177
 30
0.0
 11
791.146176
 21
281.555837
 31
0.0
  0
LINE
  5
1136
  8
0
 10
808.76442
 20
303.459177
 30
0.0
 11
808.76442
 21
281.555837
 31
0.0
  0
LINE
  5
1137
  8
0
 10
778.121745
 20
281.555837
 30
0.0
 11
778.121745
 21
303.459177
 31
0.0
  0
LINE
  5
1138
  8
0
 10
778.121745
 20
303.459177
 30
0.0
 11
791.146176
 21
303.459177
 31
0.0
  0
LINE
  5
1139
  8
0
 10
821.788852
 20
303.459177
 30
0.0
 11
808.76442
 21
303.459177
 31
0.0
  0
LINE
  5
113A
  8
0
 10
853.396617
 20
281.555837
 30
0.0
 11
853.396617
 21
303.459177
 31
0.0
  0
LINE
  5
113B
  8
0
 10
840.372186
 20
303.459177
 30
0.0
 11
840.372186
 21
281.555837
 31
0.0
  0
LINE
  5
113C
  8
0
 10
853.396617
 20
303.459177
 30
0.0
 11
840.372186
 21
303.459177
 31
0.0
  0
LINE
  5
113D
  8
0
 10
1017.856707
 20
243.80174
 30
0.0
 11
1017.856707
 21
205.930955
 31
0.0
  0
ARC
  5
113E
  8
0
 62
     1
 10
815.759181
 20
232.558179
 30
0.0
 40
167.629157
 50
342.761363
 51
3.845946
  0
LINE
  5
113F
  8
0
 10
989.800556
 20
243.80174
 30
0.0
 11
989.800556
 21
205.930955
 31
0.0
  0
ARC
  5
1140
  8
0
 10
999.710675
 20
182.880916
 30
0.0
 40
8.204654
 50
270.0
 51
0.0
  0
POLYLINE
  5
1141
  8
0
 66
     1
 10
0.0
 20
0.0
 30
0.0
  0
VERTEX
  5
121E
  8
0
 10
967.611485
 20
144.08115
 30
0.0
 42
0.048608
  0
VERTEX
  5
121F
  8
0
 10
985.71578
 20
174.676262
 30
0.0
 42
0.048608
  0
SEQEND
  5
1220
  8
0
  0
ARC
  5
1142
  8
0
 62
     1
 10
815.759181
 20
232.558179
 30
0.0
 40
167.629157
 50
334.942392
 51
339.800047
  0
LINE
  5
1143
  8
0
 10
967.611485
 20
232.558179
 30
0.0
 11
967.611485
 21
182.880916
 31
0.0
  0
ARC
  5
1144
  8
0
 10
1003.813002
 20
228.226103
 30
0.0
 40
4.102327
 50
0.0
 51
180.0
  0
LINE
  5
1145
  8
0
 10
995.565913
 20
205.930955
 30
0.0
 11
995.565913
 21
182.880916
 31
0.0
  0
ARC
  5
1146
  8
0
 10
997.582714
 20
185.008878
 30
0.0
 40
2.127962
 50
270.0
 51
0.0
  0
LINE
  5
1147
  8
0
 10
1007.915329
 20
205.930955
 30
0.0
 11
1017.856707
 21
205.930955
 31
0.0
  0
LINE
  5
1148
  8
0
 10
1007.915329
 20
182.880916
 30
0.0
 11
1007.915329
 21
228.226103
 31
0.0
  0
LINE
  5
1149
  8
0
 10
999.710675
 20
185.008878
 30
0.0
 11
999.710675
 21
228.226103
 31
0.0
  0
POLYLINE
  5
114A
  8
0
 66
     1
 10
0.0
 20
0.0
 30
0.0
  0
VERTEX
  5
1221
  8
0
 10
989.308576
 20
182.880916
 30
0.0
 42
0.025861
  0
VERTEX
  5
1222
  8
0
 10
995.565913
 20
200.763606
 30
0.0
 42
0.025861
  0
SEQEND
  5
1223
  8
0
  0
LINE
  5
114B
  8
0
 10
989.800556
 20
205.930955
 30
0.0
 11
999.710675
 21
205.930955
 31
0.0
  0
LINE
  5
114C
  8
0
 10
973.668266
 20
298.454001
 30
0.0
 11
1033.988998
 21
298.454001
 31
0.0
  0
LINE
  5
114D
  8
0
 10
973.668266
 20
243.80174
 30
0.0
 11
1033.988998
 21
243.80174
 31
0.0
  0
LINE
  5
114E
  8
0
 10
973.668266
 20
298.454001
 30
0.0
 11
973.668266
 21
243.80174
 31
0.0
  0
LINE
  5
114F
  8
0
 10
1033.988998
 20
298.454001
 30
0.0
 11
1033.988998
 21
243.80174
 31
0.0
  0
POLYLINE
  5
1150
  8
0
  6
DASHED2
 66
     1
 10
0.0
 20
0.0
 30
0.0
  0
VERTEX
  5
1224
  8
0
  6
DASHED2
 10
296.481581
 20
647.458104
 30
0.0
  0
VERTEX
  5
1225
  8
0
  6
DASHED2
 10
310.593058
 20
638.353897
 30
0.0
 42
0.105602
  0
VERTEX
  5
1226
  8
0
  6
DASHED2
 10
462.73735
 20
580.644148
 30
0.0
 42
0.105602
  0
SEQEND
  5
1227
  8
0
  6
DASHED2
  0
LINE
  5
1151
  8
0
  6
DASHED2
 10
175.337798
 20
713.605729
 30
0.0
 11
-0.000001
 21
392.489377
 31
0.0
  0
LINE
  5
1152
  8
0
  6
DASHED2
 10
296.481581
 20
647.458104
 30
0.0
 11
175.337798
 21
713.605729
 31
0.0
  0
POLYLINE
  5
1153
  8
0
 66
     1
 10
0.0
 20
0.0
 30
0.0
  0
VERTEX
  5
1228
  8
0
 10
684.481581
 20
647.458104
 30
0.0
  0
VERTEX
  5
1229
  8
0
 10
698.593058
 20
638.353897
 30
0.0
 42
0.119403
  0
VERTEX
  5
122A
  8
0
 10
871.803717
 20
578.000001
 30
0.0
 42
0.477567
  0
SEQEND
  5
122B
  8
0
  0
POLYLINE
  5
1154
  8
0
 62
     8
 66
     1
 10
0.0
 20
0.0
 30
0.0
  0
VERTEX
  5
122C
  8
0
 62
     8
 10
680.755725
 20
641.683045
 30
0.0
  0
VERTEX
  5
122D
  8
0
 62
     8
 10
694.867202
 20
632.578838
 30
0.0
 42
0.078503
  0
VERTEX
  5
122E
  8
0
 62
     8
 10
815.141166
 20
581.663448
 30
0.0
 42
0.078503
  0
SEQEND
  5
122F
  8
0
 62
     8
  0
LINE
  5
1155
  8
0
 10
563.337798
 20
713.605729
 30
0.0
 11
387.999999
 21
392.489377
 31
0.0
  0
POLYLINE
  5
1156
  8
0
 62
     8
 66
     1
 10
0.0
 20
0.0
 30
0.0
 70
     1
  0
VERTEX
  5
1230
  8
0
 62
     8
 10
704.755404
 20
429.627085
 30
0.0
  0
VERTEX
  5
1231
  8
0
 62
     8
 10
713.715156
 20
445.145831
 30
0.0
  0
VERTEX
  5
1232
  8
0
 62
     8
 10
704.755404
 20
460.664578
 30
0.0
  0
VERTEX
  5
1233
  8
0
 62
     8
 10
686.835899
 20
460.664578
 30
0.0
  0
VERTEX
  5
1234
  8
0
 62
     8
 10
677.876146
 20
445.145831
 30
0.0
  0
VERTEX
  5
1235
  8
0
 62
     8
 10
686.835899
 20
429.627085
 30
0.0
  0
SEQEND
  5
1236
  8
0
 62
     8
  0
LINE
  5
1157
  8
0
 10
684.481581
 20
647.458104
 30
0.0
 11
563.337798
 21
713.605729
 31
0.0
  0
LINE
  5
1158
  8
0
 10
818.259042
 20
583.220755
 30
0.0
 11
818.259042
 21
531.927565
 31
0.0
  0
LINE
  5
1159
  8
0
 10
773.968243
 20
561.098523
 30
0.0
 11
818.259042
 21
583.220755
 31
0.0
  0
LINE
  5
115A
  8
0
 10
773.968243
 20
554.049797
 30
0.0
 11
818.259042
 21
531.927565
 31
0.0
  0
LINE
  5
115B
  8
0
 10
773.968243
 20
561.098523
 30
0.0
 11
773.968243
 21
554.049797
 31
0.0
  0
CIRCLE
  5
115C
  8
0
 62
     8
 10
886.654196
 20
491.702071
 30
0.0
 40
24.412136
  0
POLYLINE
  5
115D
  8
0
 66
     1
 10
0.0
 20
0.0
 30
0.0
  0
VERTEX
  5
1237
  8
0
 10
818.259042
 20
580.900666
 30
0.0
 42
0.035401
  0
VERTEX
  5
1238
  8
0
 10
876.637853
 20
571.160063
 30
0.0
  0
SEQEND
  5
1239
  8
0
  0
LINE
  5
115E
  8
0
 10
818.259042
 20
578.000001
 30
0.0
 11
831.21612
 21
578.000001
 31
0.0
  0
LINE
  5
115F
  8
0
 10
797.008019
 20
578.000001
 30
0.0
 11
807.806599
 21
578.000001
 31
0.0
  0
CIRCLE
  5
1160
  8
0
 10
893.421747
 20
605.148527
 30
0.0
 40
27.148526
  0
CIRCLE
  5
1161
  8
0
 10
893.421747
 20
605.148527
 30
0.0
 40
18.925279
  0
LINE
  5
1162
  8
0
 10
1196.906937
 20
231.927814
 30
0.0
 11
1196.906937
 21
361.3534
 31
0.0
  0
LINE
  5
1163
  8
0
 10
1188.702283
 20
234.055776
 30
0.0
 11
1188.702283
 21
361.3534
 31
0.0
  0
LINE
  5
1164
  8
0
 10
1176.427716
 20
234.055776
 30
0.0
 11
1176.427716
 21
361.3534
 31
0.0
  0
LINE
  5
1165
  8
0
 10
1184.63237
 20
231.927814
 30
0.0
 11
1184.63237
 21
361.3534
 31
0.0
  0
LINE
  5
1166
  8
0
 10
1171.590643
 20
231.927814
 30
0.0
 11
1171.590643
 21
361.3534
 31
0.0
  0
LINE
  5
1167
  8
0
 10
1163.385989
 20
234.055776
 30
0.0
 11
1163.385989
 21
361.3534
 31
0.0
  0
LINE
  5
1168
  8
0
 10
1277.999999
 20
304.77884
 30
0.0
 11
1277.999999
 21
629.221163
 31
0.0
  0
LINE
  5
1169
  8
0
 10
1203.059905
 20
304.77884
 30
0.0
 11
1203.059905
 21
629.221163
 31
0.0
  0
LINE
  5
116A
  8
0
 62
     8
 10
1226.725197
 20
304.77884
 30
0.0
 11
1226.725197
 21
629.221163
 31
0.0
  0
LINE
  5
116B
  8
0
 62
     8
 10
1258.045194
 20
304.77884
 30
0.0
 11
1258.045194
 21
629.221163
 31
0.0
  0
LINE
  5
116C
  8
0
 62
     8
 10
1371.118398
 20
342.000001
 30
0.0
 11
1371.118398
 21
592.000001
 31
0.0
  0
LINE
  5
116D
  8
0
 10
1668.999999
 20
342.000001
 30
0.0
 11
1668.999999
 21
592.000001
 31
0.0
  0
LINE
  5
116E
  8
0
 10
1277.999999
 20
342.000001
 30
0.0
 11
1668.999999
 21
342.000001
 31
0.0
  0
ARC
  5
116F
  8
0
 10
1188.702283
 20
231.927814
 30
0.0
 40
8.204654
 50
270.0
 51
0.0
  0
ARC
  5
1170
  8
0
 10
1186.574321
 20
234.055776
 30
0.0
 40
2.127962
 50
270.0
 51
0.0
  0
LINE
  5
1171
  8
0
 10
1203.059905
 20
304.77884
 30
0.0
 11
1277.999999
 21
304.77884
 31
0.0
  0
LINE
  5
1172
  8
0
 10
1277.999999
 20
592.000001
 30
0.0
 11
1668.999999
 21
592.000001
 31
0.0
  0
LINE
  5
1173
  8
0
 10
1173.225631
 20
522.261433
 30
0.0
 11
1173.225631
 21
589.903691
 31
0.0
  0
LINE
  5
1174
  8
0
 10
1147.778764
 20
522.261433
 30
0.0
 11
1147.778764
 21
589.903691
 31
0.0
  0
ARC
  5
1175
  8
0
 10
1167.488316
 20
361.3534
 30
0.0
 40
4.102327
 50
0.0
 51
180.0
  0
ARC
  5
1176
  8
0
 10
1192.80461
 20
361.3534
 30
0.0
 40
4.102327
 50
0.0
 51
180.0
  0
ARC
  5
1177
  8
0
 10
1180.530043
 20
361.3534
 30
0.0
 40
4.102327
 50
0.0
 51
180.0
  0
LINE
  5
1178
  8
0
 10
1173.225631
 20
543.839532
 30
0.0
 11
1203.059905
 21
543.839532
 31
0.0
  0
CIRCLE
  5
1179
  8
0
 10
1240.529952
 20
656.369689
 30
0.0
 40
18.925279
  0
CIRCLE
  5
117A
  8
0
 10
1240.529952
 20
656.369689
 30
0.0
 40
27.148526
  0
LINE
  5
117B
  8
0
 10
1203.059905
 20
629.221163
 30
0.0
 11
1277.999999
 21
629.221163
 31
0.0
  0
LINE
  5
117C
  8
0
 10
1147.778764
 20
589.903691
 30
0.0
 11
1173.225631
 21
589.903691
 31
0.0
  0
LINE
  5
117D
  8
0
 10
1173.225631
 20
578.000001
 30
0.0
 11
1203.059905
 21
578.000001
 31
0.0
  0
LINE
  5
117E
  8
0
 10
1173.225631
 20
571.308788
 30
0.0
 11
1203.059905
 21
571.308788
 31
0.0
  0
ENDBLK
  5
1180
  8
0
  0
ENDSEC
  0
SECTION
  2
ENTITIES
  0
TEXT
  8
0
  40
30
  5
123B
  62
5
  72
0
  71
0
 10
1353.59
 20
-790.677
 30
0.000000
  1
3477713
  0
TEXT
  8
0
  40
30
  5
123C
  62
5
  72
0
  71
0
 10
2274.22
 20
-790.677
 30
0.000000
  1
P 200 T/G t.c.
  0
TEXT
  8
0
  40
30
  5
123D
  62
5
  72
0
  71
0
 10
2909.56
 20
-790.677
 30
0.000000
  1
1:1
  0
INSERT
  5
EEC
  8
0
  2
A$C4E4605BA
 10
1723.817517
 20
-597.933046
 30
0.0
  0
INSERT
  5
1104
  8
0
  2
A$C379B76C2
 10
1269.723316
 20
1054.303872
 30
0.0
  0
INSERT
  5
1181
  8
0
  2
A$C05351393
 10
1269.723316
 20
228.925764
 30
0.0
  0
LINE
  5
1203
  8
CONTORNO_PAGINA
 62
   150
 10
1085.02258
 20
1943.550655
 30
0.0
 11
3080.82258
 21
1943.550655
 31
0.0
  0
LINE
  5
1204
  8
CONTORNO_PAGINA
 62
     5
 10
1115.02258
 20
1913.550655
 30
0.0
 11
3050.82258
 21
1913.550655
 31
0.0
  0
LINE
  5
1205
  8
CONTORNO_PAGINA
 62
   150
 10
1085.02258
 20
-827.396794
 30
0.0
 11
1085.02258
 21
1943.550655
 31
0.0
  0
LINE
  5
1206
  8
CONTORNO_PAGINA
 62
     5
 10
1115.02258
 20
-797.396794
 30
0.0
 11
1115.02258
 21
1913.550655
 31
0.0
  0
LINE
  5
1207
  8
CONTORNO_PAGINA
 62
   150
 10
3080.82258
 20
-827.396794
 30
0.0
 11
3080.82258
 21
1943.550655
 31
0.0
  0
LINE
  5
1208
  8
CONTORNO_PAGINA
 62
     5
 10
3050.82258
 20
-797.396794
 30
0.0
 11
3050.82258
 21
1913.550655
 31
0.0
  0
LINE
  5
1209
  8
LAYER1
 62
   150
 10
1115.02258
 20
-685.375168
 30
0.0
 11
3050.82258
 21
-685.375168
 31
0.0
  0
LINE
  5
120A
  8
LAYER1
 62
     4
 10
1115.02258
 20
-630.082438
 30
0.0
 11
3050.82258
 21
-630.082438
 31
0.0
  0
TEXT
  8
0
  40
25
  5
123E
  62
5
  72
0
  71
0
 10
1690.18
 20
-675.290
 30
0.000000
  1
Denominazione commerciale
  7
SIMPLEX_INCLINATO
  0
LINE
  5
120C
  8
LAYER1
 62
     4
 10
1673.155507
 20
-797.396794
 30
0.0
 11
1673.155507
 21
-630.082438
 31
0.0
  0
TEXT
  8
0
  40
25
  5
123F
  62
5
  72
0
  71
0
 10
1132.04
 20
-675.290
 30
0.000000
  1
Codice n.
  7
SIMPLEX_INCLINATO
  0
LINE
  5
120E
  8
LAYER1
 62
     4
 10
2766.012584
 20
-797.396794
 30
0.0
 11
2766.012584
 21
-630.082438
 31
0.0
  0
TEXT
  8
0
  40
25
  5
1240
  62
5
  72
0
  71
0
 10
2783.03
 20
-675.290
 30
0.000000
  1
scala
  7
SIMPLEX_INCLINATO
  0
LINE
  5
1210
  8
CONTORNO_PAGINA
 62
   150
 10
1085.02258
 20
-827.396794
 30
0.0
 11
3080.82258
 21
-827.396794
 31
0.0
  0
LINE
  5
1211
  8
CONTORNO_PAGINA
 62
     5
 10
1115.02258
 20
-797.396794
 30
0.0
 11
3050.82258
 21
-797.396794
 31
0.0
  0
ENDSEC
  0
EOF
