<?xml version="1.0" encoding="UTF-8"?>
<svg width="83px" height="64px" viewBox="0 0 83 64" version="1.1" xmlns="http://www.w3.org/2000/svg" xmlns:xlink="http://www.w3.org/1999/xlink">
    <!-- Generator: Sketch 52.5 (67469) - http://www.bohemiancoding.com/sketch -->
    <title>Group 14</title>
    <desc>Created with Sketch.</desc>
    <defs>
        <polygon id="path-1" points="0 0.4376 82.8595385 0.4376 82.8595385 63.19984 0 63.19984"></polygon>
        <polygon id="path-3" points="0 63.56224 82.8595385 63.56224 82.8595385 0.79984 0 0.79984"></polygon>
    </defs>
    <g id="Layout-web" stroke="none" stroke-width="1" fill="none" fill-rule="evenodd">
        <g id="Home" transform="translate(-138.000000, -5125.000000)">
            <g id="Group-6" transform="translate(0.000000, 5113.000000)">
                <g id="Group-14" transform="translate(138.000000, 12.000000)">
                    <path d="M55.5194981,28.70424 C55.5194981,27.54264 55.1723346,26.35224 54.4907769,25.16904 C53.7988442,23.95464 52.6663731,23.01224 51.296075,22.51464 L46.3288442,20.73544 L42.0232192,28.76584 L40.8516423,28.76584 L36.5452192,20.73544 L31.5732,22.51624 C30.2084885,23.01224 29.0752192,23.95464 28.3864788,25.16424 C27.7025269,26.35224 27.3545654,27.54264 27.36095,28.59944 C27.3561615,28.64344 26.8741231,33.02824 26.7041327,37.30104 L28.5995654,37.37784 C28.7679596,33.17304 29.2412192,28.85224 29.2523923,28.70424 C29.2523923,27.67864 29.674575,26.73064 30.0313154,26.11144 C30.4997865,25.28824 31.2787096,24.64744 32.21645,24.30504 L35.6457865,23.07784 L39.717575,30.66824 L43.1572865,30.66824 L47.2282769,23.07784 L50.6536231,24.30424 C51.5961519,24.64744 52.375075,25.28824 52.8451423,26.11704 C53.1994885,26.73064 53.6224692,27.67864 53.6280558,28.80824 C53.6336423,28.85224 54.1061038,33.17064 54.2752962,37.37784 L56.1707288,37.30104 C56.0015365,33.05704 55.5258827,28.70344 55.5194981,28.70344 L55.5194981,28.70424 Z" id="Fill-1" fill="#FFFFFF"></path>
                    <path d="M41.4370317,7.90504 C44.2430702,7.90504 46.5263683,10.19384 46.5263683,13.00664 C46.5263683,15.81944 44.2430702,18.10744 41.4370317,18.10744 C38.6309933,18.10744 36.3484933,15.81944 36.3484933,13.00664 C36.3484933,10.19384 38.6309933,7.90504 41.4370317,7.90504 M41.4370317,20.00984 C45.289349,20.00984 48.4233971,16.86824 48.4233971,13.00664 C48.4233971,9.14504 45.289349,6.00344 41.4370317,6.00344 C37.5855125,6.00344 34.4506663,9.14504 34.4506663,13.00664 C34.4506663,16.86824 37.5855125,20.00984 41.4370317,20.00984" id="Fill-3" fill="#FFFFFF"></path>
                    <g id="Group-7" transform="translate(0.000000, 0.362240)">
                        <mask id="mask-2" fill="white">
                            <use xlink:href="#path-1"></use>
                        </mask>
                        <g id="Clip-6"></g>
                        <path d="M64.0528558,17.59744 C63.7320288,16.52624 63.3521442,15.47744 62.8900577,14.46544 L62.9818365,14.46544 C62.9818365,11.64384 65.2715192,9.34704 68.0879327,9.34704 C70.9035481,9.34704 73.1940288,11.64384 73.1940288,14.46544 C73.1940288,17.28784 70.9035481,19.58384 68.0879327,19.58384 C66.4957692,19.58384 65.0289038,18.85824 64.0528558,17.59744 M63.0057788,27.18144 C62.4016346,31.81824 60.3944712,36.03184 57.2037596,39.36784 L56.5916346,40.00704 L72.0392115,54.77264 C72.7822212,55.56944 73.1477404,56.60784 73.0695288,57.69504 C72.9929135,58.78384 72.4829423,59.75984 71.6337885,60.44304 C70.9402596,61.00224 70.1030769,61.29744 69.2164135,61.29744 C67.9386923,61.29744 66.7455673,60.66944 66.0129327,59.60224 L53.2915865,42.69824 L52.5413942,43.14944 C48.0785481,45.83184 42.7617596,46.83104 37.5774519,45.95424 C26.7283942,44.10864 18.9088365,34.40704 19.3900769,23.38784 C19.5305385,20.17504 20.3645288,17.16384 21.7108846,14.46544 L21.7755288,14.46544 C21.7755288,14.42704 21.7707404,14.39024 21.7699423,14.35184 C25.3932115,7.19824 32.7530769,2.33984 41.2557885,2.33984 C43.0538558,2.33984 44.8694808,2.56304 46.6507885,3.00304 C57.2468558,5.62224 64.4311442,16.24304 63.0057788,27.18144 M14.7716058,19.58384 C11.9567885,19.58384 9.66630769,17.28784 9.66630769,14.46544 C9.66630769,11.64384 11.9567885,9.34704 14.7716058,9.34704 C17.419625,9.34704 19.577625,11.38544 19.8290192,13.97504 C19.19375,15.30384 18.6805865,16.70224 18.2951154,18.15744 C17.3406154,19.07264 16.0972115,19.58384 14.7716058,19.58384 M82.2075096,30.20704 L82.2075096,30.20784 C82.2075096,29.04144 81.8595481,27.84704 81.174,26.66384 C80.4836635,25.44704 79.3472019,24.50144 77.9721154,24.00304 L72.9945096,22.21984 L68.6769135,30.27184 L67.4981538,30.27184 L65.0320962,25.67424 C65.123875,23.97344 65.0368846,22.28864 64.7703269,20.64464 C65.7743077,21.18624 66.9043846,21.48624 68.0879327,21.48624 C71.9498269,21.48624 75.0910577,18.33664 75.0910577,14.46544 C75.0910577,10.59424 71.9498269,7.44544 68.0879327,7.44544 C65.1047212,7.44544 62.5588558,9.32704 61.5508846,11.96624 C58.3785288,6.72464 53.2852019,2.68384 47.1056923,1.15664 C45.1743462,0.67904 43.2062885,0.43744 41.2557885,0.43744 C32.7905865,0.43744 25.3684712,4.87104 21.1530288,11.58784 C20.0540769,9.14944 17.6103654,7.44544 14.7716058,7.44544 C10.9097115,7.44544 7.76848077,10.59424 7.76848077,14.46544 C7.76848077,18.33664 10.9097115,21.48624 14.7716058,21.48624 C15.8186827,21.48624 16.8194712,21.23584 17.7396538,20.80224 C17.6175481,21.62384 17.5321538,22.45664 17.4946442,23.30464 C17.4523462,24.27184 17.4898558,25.22544 17.5624808,26.17024 L15.3613846,30.27184 L14.182625,30.27184 L9.86502885,22.21984 L4.88343269,24.00464 C3.51393269,24.50064 2.37826923,25.44624 1.68873077,26.65824 C1.00078846,27.84704 0.652826923,29.04144 0.658413462,30.10304 C0.653625,30.14704 0.170788462,34.54464 0,38.82944 L1.89463462,38.90464 C2.064625,34.68944 2.53868269,30.35584 2.55065385,30.20784 C2.55065385,29.17744 2.97363462,28.22704 3.33356731,27.60624 C3.80443269,26.78064 4.58335577,26.13584 5.52508654,25.79424 L8.96559615,24.56144 L13.0485577,32.17424 L16.4954519,32.17424 L18.0173846,29.33584 C20.0197596,38.65984 27.5049231,46.16944 37.2614135,47.82944 C42.5933654,48.73664 48.0745577,47.80464 52.7576731,45.21824 L64.459875,60.69504 C65.5356827,62.26384 67.3137981,63.19984 69.2164135,63.19984 C70.5204712,63.19984 71.8021827,62.74784 72.822125,61.92544 C74.0695192,60.92224 74.8484423,59.42944 74.9633654,57.83184 C75.0766923,56.23344 74.5164423,54.64544 73.4366442,53.48544 L59.1734135,40.03264 C61.9610962,36.89264 63.8230096,33.09744 64.6338558,28.94704 L66.3640865,32.17424 L69.8109808,32.17424 L73.8939423,24.56144 L77.3312596,25.79264 C78.2769808,26.13584 79.0575,26.78064 79.5307596,27.61184 C79.8859038,28.22704 80.3096827,29.17744 80.3160673,30.31264 C80.3208558,30.35584 80.7957115,34.68944 80.9641058,38.90464 L82.8595385,38.82944 C82.6911442,34.57344 82.2138942,30.20704 82.2075096,30.20704" id="Fill-5" fill="#FFFFFF" mask="url(#mask-2)"></path>
                    </g>
                    <polygon id="Fill-8" fill="#FFFFFF" points="75.5384596 33.82496 75.8824308 39.28976 77.7746712 39.16896 77.4314981 33.70496"></polygon>
                    <polygon id="Fill-10" fill="#FFFFFF" points="5.0847875 39.16904 6.97782596 39.28904 7.32099904 33.82504 5.42875865 33.70424"></polygon>
                    <mask id="mask-4" fill="white">
                        <use xlink:href="#path-3"></use>
                    </mask>
                    <g id="Clip-13"></g>
                    <path d="M44.7002885,36.01104 L50.5629615,36.01104 L50.5629615,33.77904 L44.7002885,33.77904 L44.7002885,36.01104 Z M48.3802212,30.13104 L46.8822308,30.13104 L46.8822308,32.27824 L43.2030962,32.27824 L43.2030962,37.51184 L52.0601538,37.51184 L52.0601538,32.27824 L48.3802212,32.27824 L48.3802212,30.13104 Z" id="Fill-12" fill="#FFFFFF" mask="url(#mask-4)"></path>
                </g>
            </g>
        </g>
    </g>
</svg>