<?xml version="1.0" encoding="UTF-8"?>
<svg width="35px" height="56px" viewBox="0 0 35 56" version="1.1" xmlns="http://www.w3.org/2000/svg" xmlns:xlink="http://www.w3.org/1999/xlink">
    <!-- Generator: Sketch 52.5 (67469) - http://www.bohemiancoding.com/sketch -->
    <title>Group 10</title>
    <desc>Created with Sketch.</desc>
    <defs>
        <polygon id="path-1" points="0.000238636364 0.4552 34.9252273 0.4552 34.9252273 55.2 0.000238636364 55.2"></polygon>
        <polygon id="path-3" points="0 55.2 34.9252273 55.2 34.9252273 0.4552 0 0.4552"></polygon>
    </defs>
    <g id="Layout-web" stroke="none" stroke-width="1" fill="none" fill-rule="evenodd">
        <g id="Home" transform="translate(-617.000000, -5126.000000)">
            <g id="Group-6" transform="translate(0.000000, 5113.000000)">
                <g id="Group-10" transform="translate(617.000000, 13.000000)">
                    <polygon id="Fill-1" fill="#FFFFFF" points="22.1160227 19.6572 23.4993182 19.6572 23.4993182 18.2652 22.1160227 18.2652"></polygon>
                    <polygon id="Fill-2" fill="#FFFFFF" points="22.1160227 22.6252 23.4993182 22.6252 23.4993182 21.234 22.1160227 21.234"></polygon>
                    <g id="Group-9" transform="translate(0.000000, 0.344400)">
                        <g id="Group-5">
                            <mask id="mask-2" fill="white">
                                <use xlink:href="#path-1"></use>
                            </mask>
                            <g id="Clip-4"></g>
                            <path d="M33.541375,35.8968 C33.541375,36.9264 32.7085341,37.764 31.6855795,37.764 L22.2021705,37.764 C21.1784205,37.764 20.3447841,36.9264 20.3447841,35.8968 L20.3447841,35.4384 C20.3447841,34.5392 21.072625,33.8088 21.9667159,33.8088 L24.8852386,33.8088 L31.9210341,33.8088 C32.8143295,33.8088 33.541375,34.5392 33.541375,35.4384 L33.541375,35.8968 Z M33.541375,41.3632 C33.541375,42.328 32.7618295,43.1136 31.8025114,43.1136 L22.0852386,43.1136 C21.1259205,43.1136 20.3447841,42.328 20.3447841,41.3632 L20.3447841,40.9048 C20.3447841,39.9408 21.1259205,39.156 22.0852386,39.156 L22.2021705,39.156 L31.6855795,39.156 L31.8025114,39.156 C32.7618295,39.156 33.541375,39.9408 33.541375,40.9048 L33.541375,41.3632 Z M33.541375,46.712 C33.541375,47.676 32.7618295,48.4608 31.8025114,48.4608 L28.8537614,48.4608 L22.0852386,48.4608 C21.1259205,48.4608 20.3447841,47.676 20.3447841,46.712 L20.3447841,46.252 C20.3447841,45.288 21.1259205,44.5048 22.0852386,44.5048 L31.8025114,44.5048 C32.7618295,44.5048 33.541375,45.288 33.541375,46.252 L33.541375,46.712 Z M30.592625,52.0592 C30.592625,53.0232 29.8130795,53.8088 28.8537614,53.8088 L24.7261477,53.8088 L22.0852386,53.8088 C21.1259205,53.8088 20.3447841,53.0232 20.3447841,52.0592 L20.3447841,51.6016 C20.3447841,50.6376 21.1259205,49.852 22.0852386,49.852 L28.8537614,49.852 C29.8130795,49.852 30.592625,50.6376 30.592625,51.6016 L30.592625,52.0592 Z M26.2629659,15.3424 L25.8994432,15.5384 L25.8994432,27.068 L19.7171705,27.068 L19.7171705,15.5392 L19.3536477,15.3424 C16.9831932,14.056 15.5100114,11.5792 15.5100114,8.8768 C15.5100114,6.3424 16.8097841,4.0136 18.8978523,2.6808 L18.8978523,6.2536 L22.9005795,9.6464 L26.9136477,6.2544 L26.9136477,2.8136 C28.8839886,4.1624 30.1073977,6.4368 30.1073977,8.8768 C30.1073977,11.5792 28.6342159,14.056 26.2629659,15.3424 Z M34.9254659,35.8968 L34.9254659,35.4384 C34.9254659,33.772 33.5779659,32.416 31.9210341,32.416 L28.7169432,32.416 C30.0461477,31.3072 30.8956932,29.6336 30.8956932,27.764 L30.8956932,27.068 L27.2827386,27.068 L27.2827386,16.3584 C29.8886477,14.78 31.4906932,11.9512 31.4906932,8.8768 C31.4906932,5.5136 29.5386477,2.4184 26.5167159,0.9872 L25.5303523,0.5208 L25.5303523,5.6064 L22.9021705,7.8264 L20.2811477,5.6072 L20.2811477,0.4552 L19.3098977,0.8856 C16.1606932,2.2824 14.1259205,5.4184 14.1259205,8.8768 C14.1259205,11.9512 15.7271705,14.78 18.333875,16.3584 L18.333875,27.068 L13.4418295,27.068 C12.4506932,27.068 11.5200114,27.5552 10.9520568,28.3728 L8.13853409,32.416 L2.42160227,32.416 L2.42160227,33.8088 L8.86001136,33.8088 L12.086375,29.1704 C12.3958068,28.7248 12.9033068,28.4592 13.4418295,28.4592 L18.333875,28.4592 L27.2827386,28.4592 L29.4598977,28.4592 C29.1250114,30.696 27.2008068,32.416 24.8852386,32.416 L21.9667159,32.416 L16.1670568,32.416 L16.1670568,33.8088 L19.4435341,33.8088 C19.1412614,34.28 18.9614886,34.8376 18.9614886,35.4384 L18.9614886,35.8968 C18.9614886,36.924 19.445125,37.8304 20.1864886,38.428 C19.4467159,39.0032 18.9614886,39.8944 18.9614886,40.9048 L18.9614886,41.3632 C18.9614886,42.356 19.4316023,43.2328 20.1483068,43.8088 C19.4316023,44.384 18.9614886,45.26 18.9614886,46.252 L18.9614886,46.712 C18.9614886,47.7048 19.4316023,48.58 20.1483068,49.156 C19.4316023,49.7328 18.9614886,50.6088 18.9614886,51.6016 L18.9614886,52.0592 C18.9614886,52.7064 19.1579659,53.308 19.4920568,53.8088 L13.0846705,53.8088 C12.620125,53.8088 12.1508068,53.7032 11.7300114,53.5056 L9.78353409,52.5872 C9.04376136,52.24 8.22205682,52.056 7.40592045,52.056 L0.000238636364,52.056 L0.000238636364,53.4472 L7.40592045,53.4472 C8.02001136,53.4472 8.63967045,53.5856 9.19648864,53.848 L11.1429659,54.7656 C11.7475114,55.0496 12.418875,55.2 13.0846705,55.2 L22.0852386,55.2 L24.7261477,55.2 L28.8537614,55.2 C30.575125,55.2 31.9767159,53.7912 31.9767159,52.0592 L31.9767159,51.6016 C31.9767159,50.9536 31.7802386,50.352 31.4453523,49.852 L31.8025114,49.852 C33.5246705,49.852 34.9254659,48.444 34.9254659,46.712 L34.9254659,46.252 C34.9254659,45.26 34.4561477,44.384 33.7386477,43.8088 C34.4561477,43.2328 34.9254659,42.356 34.9254659,41.3632 L34.9254659,40.9048 C34.9254659,39.8944 34.4402386,39.0032 33.7004659,38.428 C34.4410341,37.8304 34.9254659,36.924 34.9254659,35.8968 Z" id="Fill-3" fill="#FFFFFF" mask="url(#mask-2)"></path>
                        </g>
                        <mask id="mask-4" fill="white">
                            <use xlink:href="#path-3"></use>
                        </mask>
                        <g id="Clip-7"></g>
                        <polygon id="Fill-6" fill="#FFFFFF" mask="url(#mask-4)" points="7.26568182 49.852 8.64897727 49.852 8.64897727 48.4608 7.26568182 48.4608"></polygon>
                        <polygon id="Fill-8" fill="#FFFFFF" mask="url(#mask-4)" points="4.03613636 49.852 5.42022727 49.852 5.42022727 48.4608 4.03613636 48.4608"></polygon>
                    </g>
                </g>
            </g>
        </g>
    </g>
</svg>