<?xml version="1.0" encoding="UTF-8"?>
<svg width="82px" height="104px" viewBox="0 0 82 104" version="1.1" xmlns="http://www.w3.org/2000/svg" xmlns:xlink="http://www.w3.org/1999/xlink">
    <!-- Generator: Sketch 52.5 (67469) - http://www.bohemiancoding.com/sketch -->
    <title>Group 6 Copy</title>
    <desc>Created with Sketch.</desc>
    <g id="Layout-web" stroke="none" stroke-width="1" fill="none" fill-rule="evenodd">
        <g id="Home" transform="translate(-228.000000, -1093.000000)" fill="#E12121">
            <g id="Group-11" transform="translate(125.000000, 1059.000000)">
                <g id="Group-6-Copy" transform="translate(103.000000, 34.000000)">
                    <path d="M0,103.643 L81.824,103.643 L81.824,0 L0,0 L0,103.643 Z M2.374,101.27 L79.451,101.27 L79.451,2.374 L2.374,2.374 L2.374,101.27 Z" id="Fill-1"></path>
                    <polygon id="Fill-2" points="34.647 89.689 47.177 89.689 47.177 87.315 34.647 87.315"></polygon>
                    <polygon id="Fill-3" points="28.382 82.343 53.443 82.343 53.443 79.969 28.382 79.969"></polygon>
                    <polygon id="Fill-4" points="26.538 20.552 55.286 20.552 55.286 18.178 26.538 18.178"></polygon>
                    <path d="M40.9922,42.5566 L33.7452,49.8036 L29.9342,45.9936 L40.9922,34.9356 L51.8892,45.8336 L48.0792,49.6446 L40.9922,42.5566 Z M35.4232,51.4826 L40.9922,45.9126 L46.4012,51.3226 L40.8322,56.8916 L35.4232,51.4826 Z M51.8892,56.8116 L40.8322,67.8686 L29.9342,56.9716 L33.7452,53.1606 L40.8322,60.2476 L48.0792,53.0006 L51.8892,56.8116 Z M40.9922,31.5786 L26.5782,45.9936 L32.0672,51.4826 L26.5782,56.9716 L40.8322,71.2256 L55.2472,56.8116 L49.7582,51.3226 L55.2472,45.8336 L40.9922,31.5786 Z" id="Fill-5"></path>
                </g>
            </g>
        </g>
    </g>
</svg>