<?xml version="1.0" encoding="UTF-8"?>
<svg width="58px" height="59px" viewBox="0 0 58 59" version="1.1" xmlns="http://www.w3.org/2000/svg" xmlns:xlink="http://www.w3.org/1999/xlink">
    <!-- Generator: Sketch 52.5 (67469) - http://www.bohemiancoding.com/sketch -->
    <title>Group 14</title>
    <desc>Created with Sketch.</desc>
    <defs>
        <polygon id="path-1" points="0 0 57.2053205 0 57.2053205 16.7432432 0 16.7432432"></polygon>
        <polygon id="path-3" points="0 59 58 59 58 0 0 0"></polygon>
    </defs>
    <g id="Layout-web" stroke="none" stroke-width="1" fill="none" fill-rule="evenodd">
        <g id="Home" transform="translate(-1034.000000, -5122.000000)">
            <g id="Group-6" transform="translate(0.000000, 5113.000000)">
                <g id="Group-14" transform="translate(1034.000000, 9.000000)">
                    <path d="M5.56148493,45.719977 C5.56148493,39.8542608 10.4056767,35.0808419 16.3590192,35.0808419 L26.5447726,35.0808419 C32.4981151,35.0808419 37.3423068,39.8542608 37.3423068,45.719977 L37.3423068,55.8105716 L38.9313479,55.8105716 L38.9313479,45.719977 C38.9313479,38.9740446 33.3752658,33.4862473 26.5447726,33.4862473 L16.3590192,33.4862473 C9.52852603,33.4862473 3.97244384,38.9740446 3.97244384,45.719977 L3.97244384,55.8105716 L5.56148493,55.8105716 L5.56148493,45.719977 Z" id="Fill-1" fill="#FFFFFF"></path>
                    <g id="Group-5" transform="translate(0.000000, 42.256757)">
                        <mask id="mask-2" fill="white">
                            <use xlink:href="#path-1"></use>
                        </mask>
                        <g id="Clip-4"></g>
                        <path d="M11.9176493,15.1486486 L11.9176493,13.5540541 L9.87334795,2.53859459 C9.8137589,2.21808108 9.95359452,1.99005405 10.0425808,1.88241892 C10.1315671,1.77558108 10.3294027,1.59459459 10.6543616,1.59459459 L32.2494301,1.59459459 C32.574389,1.59459459 32.7722247,1.77558108 32.861211,1.88241892 C32.9501973,1.99005405 33.0900329,2.21808108 33.0304438,2.53939189 L31.0004438,13.4065541 L30.9861425,15.1486486 L11.9176493,15.1486486 Z M32.5751836,13.6282027 L34.5916767,2.8327973 C34.7235671,2.13117568 34.5384438,1.41360811 34.0839781,0.86427027 C33.6295123,0.31572973 32.960526,0 32.2494301,0 L10.6543616,0 C9.94326575,0 9.27427945,0.31572973 8.8198137,0.86427027 C8.36534795,1.41360811 8.18022466,2.13117568 8.31211507,2.8327973 L10.3286082,13.6282027 L10.3286082,15.1486486 L-0.00015890411,15.1486486 L-0.00015890411,16.7432432 L10.3286082,16.7432432 L32.5751836,16.7432432 L57.2053205,16.7432432 L57.2053205,15.1486486 L32.5751836,15.1486486 L32.5751836,13.6282027 Z" id="Fill-3" fill="#FFFFFF" mask="url(#mask-2)"></path>
                    </g>
                    <path d="M14.2150849,16.7517743 C13.2592767,18.2913554 12.7118521,20.1937068 12.7118521,22.3240851 C12.7118521,23.0623824 12.7817699,23.7711797 12.9073041,24.4488824 C11.4048658,23.8796122 10.3282904,22.4333149 10.3282904,20.7294905 C10.3282904,18.5616392 12.0659068,16.7996122 14.2150849,16.7517743 Z M21.4515781,9.56732838 C25.5957973,9.56732838 29.1655781,11.9815446 30.4654137,15.4768959 C29.8822356,15.2688014 29.2569479,15.1484095 28.602263,15.1484095 C28.2375781,15.1484095 27.8776603,15.1962473 27.5233041,15.2664095 C25.9851123,13.6901527 23.8812219,12.7565176 21.4515781,12.7565176 C19.0219342,12.7565176 16.9172493,13.6901527 15.3798521,15.2672068 C15.0254959,15.1970446 14.6663726,15.1484095 14.3008932,15.1484095 C13.6470027,15.1484095 13.0225096,15.2688014 12.4393315,15.4768959 C13.7367836,11.9823419 17.3081534,9.56732838 21.4515781,9.56732838 Z M32.5748658,20.7294905 C32.5748658,22.4333149 31.4990849,23.8796122 29.9966466,24.4488824 C30.1221808,23.7711797 30.1913041,23.0623824 30.1913041,22.3240851 C30.1913041,20.1937068 29.644674,18.2913554 28.6888658,16.7517743 C30.8388384,16.7996122 32.5748658,18.5616392 32.5748658,20.7294905 Z M21.4515781,30.2970581 C19.7298521,30.2970581 18.2091397,29.7118419 17.0133863,28.7024635 L21.4515781,28.7024635 L21.4515781,27.1078689 L15.6229753,27.1078689 C14.7863452,25.8010986 14.3008932,24.1666392 14.3008932,22.3240851 C14.3008932,17.7037473 17.3089479,14.3511122 21.4515781,14.3511122 C25.5950027,14.3511122 28.602263,17.7037473 28.602263,22.3240851 C28.602263,26.9436257 25.5950027,30.2970581 21.4515781,30.2970581 Z M11.122811,27.1078689 L11.122811,25.3035851 C11.7894137,25.7708014 12.5616877,26.0921122 13.3959342,26.2300446 C13.5095507,26.5330176 13.6374685,26.8248284 13.7773041,27.1078689 L11.122811,27.1078689 Z M9.53376986,28.7024635 L14.7839616,28.7024635 C16.3491671,30.6893284 18.6906192,31.8916527 21.4515781,31.8916527 C25.2231671,31.8916527 28.2216877,29.658423 29.5080164,26.2300446 C32.1442356,25.793923 34.1639068,23.4969095 34.1639068,20.7294905 C34.1639068,19.1428689 33.4980986,17.7117203 32.4350301,16.6951662 C32.4294685,16.6640716 32.4254959,16.6321797 32.4199342,16.6018824 C31.5141808,11.6012338 26.901989,7.97273378 21.4515781,7.97273378 C16.0019616,7.97273378 11.3889753,11.6012338 10.484811,16.6018824 C10.4792493,16.6321797 10.4760712,16.6632743 10.4705096,16.6935716 C9.40664658,17.710923 8.73924932,19.1420716 8.73924932,20.7294905 C8.73924932,21.7755446 9.03401644,22.7514365 9.53376986,23.5893959 L9.53376986,28.7024635 Z" id="Fill-6" fill="#FFFFFF"></path>
                    <path d="M56.4108,12.7567568 L43.3695397,12.7567568 L38.9313479,17.2104595 L38.9313479,12.7567568 L35.7532658,12.7567568 L35.7532658,1.59459459 L56.4108,1.59459459 L56.4108,12.7567568 Z M34.1642247,0 L34.1642247,14.3513514 L37.3423068,14.3513514 L37.3423068,21.0598108 L44.0274027,14.3513514 L57.9998411,14.3513514 L57.9998411,0 L34.1642247,0 Z" id="Fill-8" fill="#FFFFFF"></path>
                    <mask id="mask-4" fill="white">
                        <use xlink:href="#path-3"></use>
                    </mask>
                    <g id="Clip-11"></g>
                    <polygon id="Fill-10" fill="#FFFFFF" mask="url(#mask-4)" points="45.2876712 9.56756757 46.8767123 9.56756757 46.8767123 7.97297297 45.2876712 7.97297297"></polygon>
                    <polygon id="Fill-12" fill="#FFFFFF" mask="url(#mask-4)" points="50.0547945 9.56756757 51.6438356 9.56756757 51.6438356 7.97297297 50.0547945 7.97297297"></polygon>
                    <polygon id="Fill-13" fill="#FFFFFF" mask="url(#mask-4)" points="40.5205479 9.56756757 42.109589 9.56756757 42.109589 7.97297297 40.5205479 7.97297297"></polygon>
                </g>
            </g>
        </g>
    </g>
</svg>