<?xml version="1.0" encoding="UTF-8"?>
<svg width="99px" height="65px" viewBox="0 0 99 65" version="1.1" xmlns="http://www.w3.org/2000/svg" xmlns:xlink="http://www.w3.org/1999/xlink">
    <!-- Generator: Sketch 52.6 (67491) - http://www.bohemiancoding.com/sketch -->
    <title>Group 13</title>
    <desc>Created with Sketch.</desc>
    <g id="Layout-web" stroke="none" stroke-width="1" fill="none" fill-rule="evenodd">
        <g id="Home" transform="translate(-1123.000000, -1108.000000)" fill="#E12121">
            <g id="Group-13" transform="translate(1123.000000, 1108.000000)">
                <path d="M53.575219,31.6505795 C53.8822569,31.6505795 54.1365711,31.7775814 54.3381617,32.040878 C63.6640497,44.4467938 59.7376865,51.8252935 55.9353789,58.9559846 C53.2929923,63.9059605 50.914224,68.3851002 51.7795126,74.5617284 L52.4494135,79.2948718 L54.6234898,75.0728335 C56.5773672,71.2968507 59.7376865,68.0164849 62.8049639,64.8414378 C73.5978108,53.7241265 85.7428648,41.2190873 56.2610252,1.68432999 L54.5800703,-0.576923077 L53.6372469,2.11799496 C51.8601488,7.21355837 47.7570062,11.4108158 44.1345795,15.1124561 C35.4165644,24.0924186 25.5665409,34.2463741 38.5923906,59.0303272 L41.2192702,64.0298648 L41.4456719,58.330268 C41.7434056,50.7999856 45.086707,46.5221904 48.0361316,42.7462075 C50.3993928,39.7570169 52.6292942,36.9319993 52.6292942,32.7440347 C52.6292942,32.2639057 52.8929126,31.8488263 53.2712825,31.7032388 L53.575219,31.6505795 Z M53.6765272,85 C53.3495852,85 53.0352178,84.7855347 52.8497411,84.4280925 C46.8296063,72.5206049 50.83779,65.1293218 54.3775664,58.6021164 C57.5149526,52.8084445 60.4731494,47.3380247 56.1505983,39.0236083 L54.7233705,36.2728574 L53.4030276,39.082664 C52.4159141,41.2024516 51.0138357,42.9803381 49.5425965,44.8639031 C45.5092634,49.9520151 40.9635115,55.6835231 44.7264887,70.0122931 L44.8616667,70.6121743 C44.8616667,71.202731 44.4184087,71.7186911 43.8934152,71.734232 C43.5916226,71.7280156 43.2898299,71.5539568 43.0854911,71.2555703 C20.1555365,37.0903122 32.186375,24.8564643 42.8025605,14.0554935 C47.9047426,8.88035203 52.7177068,3.98805616 52.7177068,-2.94943075 C52.7177068,-3.40633513 52.984919,-3.82594119 53.3747346,-3.98135084 L53.6765272,-4 C54.0663427,-4 54.2612505,-3.87878047 54.4058595,-3.68918069 C89.8759278,41.1558287 75.7608337,55.5716281 64.4184596,67.1527555 C59.4043004,72.2688412 54.6636407,77.1051896 54.6636407,83.8965915 C54.6636407,84.4125515 54.361848,84.8445903 53.9343084,84.9627017 L53.6765272,85 Z" id="Fill-1" stroke="#E12121" transform="translate(53.500000, 40.500000) rotate(-270.000000) translate(-53.500000, -40.500000) "></path>
                <rect id="Rectangle" fill-rule="nonzero" x="0" y="0" width="3" height="62" rx="1"></rect>
            </g>
        </g>
    </g>
</svg>