<svg xmlns="http://www.w3.org/2000/svg" viewBox="0 0 862.21 196.05"><defs><style>.cls-1{fill:#fff;}</style></defs><title>myriello_w</title><g id="Livello_2" data-name="Livello 2"><g id="Livello_1-2" data-name="Livello 1"><path class="cls-1" d="M423.6,190.3l-.29-.62c-.48-.79-.94-1.58-1.34-2.38.4.8.86,1.59,1.34,2.38L381.66,99.8s24-12,24-45.22c0-35.93-32.67-51.92-50.26-51.92H291.91V194h45V101.14l.07-2s0-.71-.07-2V36.61s12-2.33,18.17,4.65c4.29,5,5,11.3,5,22,0,11.31,0,18.3-4.34,24a24,24,0,0,1-18.79,10v4L380.11,194h46.11c-.92-1.29-1.81-2.55-2.62-3.85Z"/><path class="cls-1" d="M466.78,2.66H423.6V190.12c.81,1.3,1.7,2.56,2.62,3.85h40.56Z"/><polygon class="cls-1" points="485.68 2.67 485.68 193.97 580.09 193.97 580.09 155.77 530.09 155.77 530.09 112.17 570.22 112.17 570.22 78.24 530.09 78.24 530.09 36.27 576.08 36.27 576.08 2.67 485.68 2.67"/><polygon class="cls-1" points="590.28 2.67 590.28 193.97 666.15 193.97 666.15 155.77 634.35 155.77 634.35 2.67 590.28 2.67"/><path class="cls-1" d="M817.78,141.15c0,7-5.53,13-12,13h-1c-6.74,0-12-6-12-13V54.6c0-7,5.28-12.68,12-12.68h1c6.47,0,12,5.67,12,12.68ZM808.85,0h-7.72c-24.68,0-52.78,18.66-52.78,49.58v95.56a54.35,54.35,0,0,0,1.12,11H720.31V2.67H676.48V194H750.8V161.41c6.88,21.51,27.3,34.64,50.33,34.64h7.72c28.66,0,53.36-20,53.36-50.91V49.58C862.21,18.66,832.28,0,808.85,0"/><path class="cls-1" d="M127.28,18.18h-9.44C51.72,18.18,0,26.74,0,37.32V167.94c0,10.51,51.72,19.58,117.84,19.58h9.44c63.39,0,117.66-9.07,117.66-19.58V37.32C244.94,26.74,190.67,18.18,127.28,18.18Zm6.13,105.61q0,7.19-5.51,10.28t-17.06,3.09v-55q0-5.69-2.51-9c-1.67-2.22-4.29-3.34-7.86-3.34a12.12,12.12,0,0,0-9,3.76q-3.68,3.77-3.68,12.63v37.63q0,7.19-5.43,10.28t-16.81,3.09v-55q0-5.69-2.51-9c-1.67-2.22-4.24-3.34-7.69-3.34Q42.43,69.77,42.44,87v36.79q0,7.19-5.52,10.28t-17,3.09V67.93q0-8.36,5.35-12.87t16.22-4.52v9.87a28.61,28.61,0,0,0-4.18,5.68l1.17.67A45.69,45.69,0,0,1,49.55,54.64a23.22,23.22,0,0,1,13.8-4.1q14.2,0,19.73,14.21A30.47,30.47,0,0,1,93.78,54.3a28.89,28.89,0,0,1,14.72-3.76q11.37,0,18.14,8.36t6.77,21.24ZM190.77,143q-5.85,14.21-13,20.9a24.75,24.75,0,0,1-17.64,6.69,13.49,13.49,0,0,1-11-4.93q-4-4.94-4-14.47a43.94,43.94,0,0,0,8.86,1,16.15,16.15,0,0,0,6.86-1.25,13.91,13.91,0,0,0,5.1-4.6,59.19,59.19,0,0,0,5.44-10l2.5-5.69-32.1-78.26A11.22,11.22,0,0,1,146.21,51a37.4,37.4,0,0,1,5.43-.5,21.68,21.68,0,0,1,9.62,2.17,11.28,11.28,0,0,1,5.93,6.19l16.39,43.65-2.84,8.19,1.51.5,20.4-52.34a11.67,11.67,0,0,1,5.93-6.27,21.64,21.64,0,0,1,9.62-2.09,37.4,37.4,0,0,1,5.43.5,11.34,11.34,0,0,1,4.44,1.34Z"/></g></g></svg>