<?xml version="1.0" encoding="UTF-8"?>
<svg width="104px" height="62px" viewBox="0 0 104 62" version="1.1" xmlns="http://www.w3.org/2000/svg" xmlns:xlink="http://www.w3.org/1999/xlink">
    <!-- Generator: Sketch 52.5 (67469) - http://www.bohemiancoding.com/sketch -->
    <title>Group 11 Copy</title>
    <desc>Created with Sketch.</desc>
    <defs>
        <polygon id="path-1" points="0 0.2911 103.923 0.2911 103.923 33 0 33"></polygon>
        <polygon id="path-3" points="0 61.5521 103.923 61.5521 103.923 0.0001 0 0.0001"></polygon>
    </defs>
    <g id="Layout-web" stroke="none" stroke-width="1" fill="none" fill-rule="evenodd">
        <g id="Home" transform="translate(-669.000000, -1110.000000)">
            <g id="Group-11-Copy" transform="translate(669.000000, 1110.000000)">
                <g id="Group-3" transform="translate(0.000000, 28.552100)">
                    <mask id="mask-2" fill="white">
                        <use xlink:href="#path-1"></use>
                    </mask>
                    <g id="Clip-2"></g>
                    <path d="M56.199,30.6221 C56.196,30.5561 56.144,30.4721 56.189,30.4231 C56.828,29.7371 54.352,9.4681 53.645,9.6031 C53.413,9.6471 53.462,9.1811 53.349,8.9661 C54.339,7.5451 55.808,6.4321 57.545,5.7991 L64.772,3.2181 L72.815,18.1541 L78.733,18.1541 L86.758,3.2181 L93.976,5.7961 C95.981,6.5311 97.629,7.8891 98.619,9.6221 C99.679,11.4731 100.217,13.2791 100.225,15.1241 C100.233,15.2041 101.083,22.8191 101.445,30.6221 L56.199,30.6221 Z M2.478,30.6221 C2.84,22.8181 3.689,15.1971 3.705,14.9911 C3.705,13.2801 4.242,11.4731 5.303,9.6201 C6.293,7.8891 7.942,6.5311 9.937,5.8001 L17.164,3.2181 L25.189,18.1541 L31.107,18.1541 L39.151,3.2181 L46.371,5.7971 C48.329,6.5101 49.953,7.8331 50.911,9.4631 L50.993,9.6221 C53.552,13.0261 53.802,30.2681 53.808,30.4041 C53.812,30.4761 53.815,30.5501 53.818,30.6221 L2.478,30.6221 Z M103.874,31.7641 C103.548,23.4841 102.602,14.9911 102.595,14.9911 C102.595,12.8591 101.952,10.6541 100.683,8.4411 C99.416,6.2241 97.325,4.4911 94.786,3.5601 L85.631,0.2911 L77.312,15.7771 L74.235,15.7771 L65.897,0.2911 L56.737,3.5631 C54.839,4.2551 53.197,5.4101 51.965,6.8811 C50.723,5.4081 49.077,4.2521 47.178,3.5601 L38.025,0.2911 L29.688,15.7771 L26.61,15.7771 L18.291,0.2911 L9.127,3.5641 C6.597,4.4911 4.506,6.2241 3.239,8.4401 C1.97,10.6561 1.327,12.8591 1.335,14.8591 C1.325,14.9441 0.376,23.4621 0.049,31.7651 L0,33.0001 L103.923,33.0001 L103.874,31.7641 Z" id="Fill-1" fill="#E12121" mask="url(#mask-2)"></path>
                </g>
                <path d="M75.7698,2.3774 C81.6138,2.3774 86.3678,7.1314 86.3678,12.9754 C86.3678,18.8184 81.6138,23.5734 75.7698,23.5734 C69.9258,23.5734 65.1718,18.8184 65.1718,12.9754 C65.1718,7.1314 69.9258,2.3774 75.7698,2.3774 M75.7698,25.9514 C82.9248,25.9514 88.7448,20.1304 88.7448,12.9754 C88.7448,5.8204 82.9248,0.0004 75.7698,0.0004 C68.6148,0.0004 62.7938,5.8204 62.7938,12.9754 C62.7938,20.1304 68.6148,25.9514 75.7698,25.9514" id="Fill-4" fill="#E12121"></path>
                <path d="M28.1526,2.3774 C33.9966,2.3774 38.7516,7.1314 38.7516,12.9754 C38.7516,18.8184 33.9966,23.5734 28.1526,23.5734 C22.3086,23.5734 17.5546,18.8184 17.5546,12.9754 C17.5546,7.1314 22.3086,2.3774 28.1526,2.3774 M28.1526,25.9514 C35.3076,25.9514 41.1286,20.1304 41.1286,12.9754 C41.1286,5.8204 35.3076,0.0004 28.1526,0.0004 C20.9976,0.0004 15.1776,5.8204 15.1776,12.9754 C15.1776,20.1304 20.9976,25.9514 28.1526,25.9514" id="Fill-6" fill="#E12121"></path>
                <mask id="mask-4" fill="white">
                    <use xlink:href="#path-3"></use>
                </mask>
                <g id="Clip-9"></g>
                <path d="M37.29,53.4771 L46.598,53.4771 L46.598,49.9421 L37.29,49.9421 L37.29,53.4771 Z M43.133,44.1611 L40.755,44.1611 L40.755,47.5651 L34.912,47.5651 L34.912,55.8551 L48.975,55.8551 L48.975,47.5651 L43.133,47.5651 L43.133,44.1611 Z" id="Fill-8" fill="#E12121" mask="url(#mask-4)"></path>
                <path d="M85.091,53.4771 L94.399,53.4771 L94.399,49.9421 L85.091,49.9421 L85.091,53.4771 Z M90.934,44.1611 L88.556,44.1611 L88.556,47.5651 L82.713,47.5651 L82.713,55.8551 L96.777,55.8551 L96.777,47.5651 L90.934,47.5651 L90.934,44.1611 Z" id="Fill-10" fill="#E12121" mask="url(#mask-4)"></path>
            </g>
        </g>
    </g>
</svg>